<svg width="21" height="11" viewBox="0 0 21 11" fill="none" xmlns="http://www.w3.org/2000/svg">
<path d="M0.240597 4.91934C0.240843 4.91909 0.241049 4.91881 0.241337 4.91856L4.52763 0.652935C4.84874 0.333382 5.36812 0.334571 5.68776 0.655724C6.00735 0.976835 6.00612 1.49622 5.68501 1.81581L2.80719 4.67969H20.1797C20.6327 4.67969 21 5.04694 21 5.5C21 5.95306 20.6327 6.32031 20.1797 6.32031H2.80723L5.68497 9.18419C6.00608 9.50378 6.00731 10.0232 5.68772 10.3443C5.36808 10.6655 4.84866 10.6666 4.52759 10.3471L0.241295 6.08143C0.241049 6.08119 0.240843 6.0809 0.240557 6.08066C-0.080719 5.76 -0.0796928 5.23893 0.240597 4.91934Z" fill="#CCCCCC"/>
</svg>
