<svg width="138" height="69" viewBox="0 0 138 69" fill="none" xmlns="http://www.w3.org/2000/svg">
<g clip-path="url(#clip0)">
<path d="M93.702 26.3253C97.773 27.4337 99.153 30.5512 101.292 33.8072C101.43 33.9458 101.637 33.8765 101.637 33.6687C99.498 24.6626 89.838 22.2379 84.456 27.0873C84.318 27.2259 84.525 27.4337 84.663 27.2952C87.216 25.5632 90.735 25.494 93.702 26.3253Z" fill="#F2F2F2"/>
<path d="M98.394 33.5994C96.255 31.521 93.771 31.6596 92.529 32.9066C92.46 32.9759 92.529 33.0451 92.598 32.9759C98.118 31.9367 99.291 36.3704 99.498 37.271C100.395 37.6867 100.671 33.3223 97.083 30.3433C95.151 28.6807 92.391 27.9879 90.045 29.3042C89.976 29.3735 89.976 29.512 90.114 29.512C93.84 28.6807 96.876 30.759 98.394 33.5994Z" fill="#F2F2F2"/>
<path d="M131.031 53.2741C130.272 55.2139 126.891 59.7862 118.266 61.3103C119.439 61.6567 122.958 61.5874 126.477 59.3705C131.721 55.9759 131.79 52.3735 131.031 53.2741Z" fill="#F2F2F2"/>
<path d="M128.892 52.9276C128.892 52.7891 128.616 52.6505 128.547 52.7891C127.512 56.5993 120.129 58.5391 118.611 59.2319C117.024 60.0632 129.03 58.6084 128.892 52.9276Z" fill="#F2F2F2"/>
<path d="M119.025 57.3615C121.164 57.3615 125.304 55.3524 125.994 53.3434C126.063 53.1356 125.442 53.5512 125.304 53.6898C124.821 54.3133 120.819 56.5994 118.956 57.2229C118.956 57.2922 118.956 57.3615 119.025 57.3615Z" fill="#F2F2F2"/>
<path d="M112.608 56.4609C111.021 57.8464 109.434 59.994 102.051 60.6175C98.325 60.9639 94.599 59.994 90.873 59.7862C90.666 59.7862 90.666 59.994 90.804 60.0633C98.877 62.8344 110.193 62.1416 112.884 56.738C113.022 56.5994 112.815 56.3223 112.608 56.4609Z" fill="#F2F2F2"/>
<path d="M111.09 55.2831C111.435 55.006 111.573 54.3825 111.228 54.521C107.985 56.0451 104.466 58.9548 97.014 58.9548C96.048 59.0241 103.776 61.518 111.09 55.2831Z" fill="#F2F2F2"/>
<path d="M106.743 52.7892C106.812 52.6506 106.605 52.4428 106.467 52.5813C105.294 53.4819 104.328 54.4518 103.017 55.0753C101.499 55.9066 99.774 56.253 98.118 56.8765C96.669 57.4307 105.156 57.2229 106.743 52.7892Z" fill="#F2F2F2"/>
<path d="M70.863 60.8946C67.965 61.5874 66.792 62.9037 61.203 62.5573C57.891 62.3495 54.441 61.1717 52.854 58.0543C52.302 56.9458 52.371 62.3495 60.03 63.5964C69.483 65.0513 72.243 60.5482 70.863 60.8946Z" fill="#F2F2F2"/>
<path d="M71.208 58.6777C67.62 58.1928 64.791 61.4488 58.029 58.8163C57.96 58.8163 57.891 58.8856 57.96 58.9548C59.754 60.4097 61.548 60.8946 63.894 60.8946C68.655 60.8253 72.381 58.8856 71.208 58.6777Z" fill="#F2F2F2"/>
<path d="M66.723 58.262C70.1729 57.8464 70.38 56.3223 69.897 56.3223C68.931 56.3223 67.965 57.015 66.999 57.2229C65.619 57.5693 63.894 57.5693 62.514 57.2921C62.376 57.2921 62.307 57.4307 62.445 57.5C63.756 58.262 65.136 58.4699 66.723 58.262Z" fill="#F2F2F2"/>
<path d="M18.837 56.1144C16.146 56.8765 14.076 58.1927 11.178 58.1234C8.14202 58.0542 4.00202 55.6295 4.34702 52.1656C4.34702 51.8885 3.93302 51.8192 3.86402 52.0963C3.17402 55.0752 5.79602 57.7078 8.41802 58.6084C11.73 59.7861 16.698 59.4397 19.32 56.8072C19.596 56.5301 19.251 56.0451 18.837 56.1144Z" fill="#F2F2F2"/>
<path d="M11.937 56.9458C16.905 57.3615 18.768 54.7289 17.871 54.7982C16.215 54.9368 14.697 55.7681 13.041 55.9066C10.833 56.1145 8.69401 55.491 6.96901 54.1054C6.55501 53.7591 7.65901 56.5301 11.937 56.9458Z" fill="#F2F2F2"/>
<path d="M13.455 55.1446C16.284 55.3524 18.216 53.6898 17.319 53.5512C15.594 53.2741 14.697 54.9367 10.212 53.8283C9.72899 53.759 10.971 55.006 13.455 55.1446Z" fill="#F2F2F2"/>
<path d="M47.61 54.8675C44.367 56.5994 42.297 62.2109 34.983 60.8253C34.845 60.8253 34.845 60.9639 34.914 61.0331C37.122 62.5572 39.813 61.7952 42.021 60.6868C47.265 57.985 48.852 54.1747 47.61 54.8675Z" fill="#F2F2F2"/>
<path d="M36.57 58.4698C39.813 58.1927 42.849 57.5 44.781 54.5903C45.126 54.1054 44.367 53.5512 44.022 53.9668C41.952 56.3915 39.537 57.2921 36.501 58.0542C36.294 58.1927 36.363 58.4698 36.57 58.4698Z" fill="#F2F2F2"/>
<path d="M36.501 56.253C38.433 56.5301 40.917 55.8374 41.262 54.7289C41.331 54.5904 41.193 54.3825 40.986 54.3825C40.365 54.3133 39.882 54.7982 39.33 55.0753C38.502 55.491 37.467 55.8374 36.501 55.9066C36.363 55.9759 36.363 56.253 36.501 56.253Z" fill="#F2F2F2"/>
<path d="M126.753 45.0301C126.201 42.1898 123.441 37.756 118.128 36.7169C118.404 33.3916 116.955 29.9277 116.265 28.4729C114.126 23.9699 108.33 19.1205 100.671 18.8434C100.533 11.2922 92.322 0 78.522 0C73.968 0 65.619 1.38554 59.961 10.4608C58.443 10.1145 56.925 9.90663 55.407 9.90663C44.16 9.90663 35.535 19.744 33.327 27.0874C24.219 25.009 11.799 34.2922 12.42 43.1596C8.90099 43.1596 5.10599 45.0301 3.10499 46.6928C-0.414005 49.6024 -1.242 54.7982 1.173 58.1928C4.76099 63.1115 15.525 65.259 22.356 60.4789C24.081 63.3193 29.325 65.5361 31.119 65.8825C36.294 66.9217 44.988 65.9518 48.783 61.7952C51.336 69.0693 63.549 69.7621 69.552 68.3765C74.382 67.2681 77.763 63.9428 82.524 63.9428C87.906 63.9428 89.976 66.3675 99.912 66.3675C103.914 66.3675 107.571 65.9518 109.986 65.1205C115.092 66.7831 121.371 65.6054 126.477 63.8735C130.203 62.6265 134.964 60.2711 136.62 55.9066C138.897 50.0181 134.964 44.1988 126.753 45.0301ZM133.998 56.4608C132.066 59.7169 127.857 61.3102 124.407 62.4187C120.267 63.7349 116.127 64.1506 111.918 63.5964C112.263 63.3886 112.677 63.1807 113.022 62.9729C113.367 62.7651 113.16 62.2801 112.746 62.3494C93.564 67.4759 89.493 61.3102 81.282 61.8645C74.796 62.3494 71.208 68.3072 59.685 66.5753C55.2 65.8825 50.163 63.8042 49.542 58.6777C49.68 58.0542 49.128 57.9157 48.852 58.2621C45.333 63.3193 39.054 64.4277 33.258 64.0813C27.945 63.7349 23.598 60.5482 23.598 58.3313C23.943 57.9157 24.288 57.5 24.633 57.0843C24.909 56.6687 24.357 56.3223 24.012 56.5994C16.215 63.5271 7.52099 61.3795 3.65699 57.9849C0.551995 55.2139 1.79399 50.8494 4.48499 48.3554C6.07199 46.9006 8.14199 46.2078 10.143 45.7229C12.075 45.238 14.076 45.5843 16.008 45.238C16.146 45.238 16.146 45.0301 16.077 44.9608C15.456 44.6145 14.766 44.3374 14.076 44.1988C14.214 41.9127 14.766 39.8343 15.732 37.9639C15.663 40.8735 18.492 46.7621 26.565 47.1777C26.772 47.1777 26.772 46.9006 26.634 46.9006C21.39 45.6536 16.284 42.1205 17.112 36.1627C17.112 36.0934 17.112 36.0241 17.112 36.0241C17.802 35.1235 18.561 34.2922 19.458 33.5301C18.216 38.5181 21.942 45.0994 27.393 45.238C27.6 45.238 27.669 44.8916 27.462 44.8223C22.218 43.9217 17.664 35.6084 22.218 31.6596C22.287 31.5904 22.287 31.5904 22.287 31.5211C22.701 31.244 23.115 31.0361 23.598 30.8283C21.666 34.0151 24.012 39.0723 25.875 42.1898C26.013 42.3283 26.22 42.1898 26.151 42.0512C22.149 34.4307 24.012 32.1446 26.703 29.6506C29.118 28.9578 31.602 28.8886 33.81 29.5813C33.534 31.8675 33.81 34.2922 35.052 36.509C35.121 36.5783 35.19 36.509 35.19 36.4398C32.016 28.1265 40.227 17.3193 48.576 13.4398C52.164 11.7771 56.097 11.8464 59.961 12.6777C59.961 12.747 59.892 12.8163 59.892 12.8163C55.752 11.6386 50.508 14.4789 47.334 16.8343C43.746 19.4669 41.124 23.2078 40.641 27.7108C40.641 27.9187 40.917 27.9187 40.917 27.7801C42.987 18.497 54.027 12.8163 59.34 13.9247C59.271 14.0633 59.202 14.2018 59.133 14.3404C54.924 14.0633 46.092 19.8825 46.161 26.5331C46.161 26.6717 46.437 26.741 46.437 26.6024C47.61 20.3675 52.992 16.6265 58.65 15.3795C58.581 15.7259 58.443 16.0723 58.443 16.4187C55.959 16.488 50.577 20.9217 51.681 25.3554C51.681 25.4247 51.888 25.4247 51.888 25.3554C52.302 23.3464 52.992 21.5452 54.441 20.0211C55.959 18.3584 57.891 17.8042 58.305 17.5964C58.236 18.012 58.236 18.497 58.305 18.9127C58.305 19.1898 58.65 19.1898 58.719 18.9819C60.306 14.4789 61.962 10.6687 65.412 7.20482C71.898 0.762048 83.697 0.207831 91.839 6.6506C95.565 9.56024 99.084 14.8946 98.739 19.8133C98.67 19.8133 98.601 19.8133 98.532 19.8133C97.773 13.3012 87.147 3.18675 77.901 5.95783C77.832 5.95783 77.832 6.02711 77.901 6.02711C82.179 6.23494 85.836 6.92771 89.424 9.42169C92.943 11.8464 95.979 15.8645 97.221 20.0211C96.669 20.0904 96.048 20.2289 95.496 20.4367C95.22 15.7259 87.63 9.42169 81.075 10.4608C81.006 10.4608 81.006 10.5301 81.075 10.5994C85.422 11.1536 89.424 13.1627 92.391 16.6265C93.495 17.9428 93.84 19.3283 94.323 20.8524C93.978 20.991 93.702 21.1295 93.357 21.2681C93.288 21.2681 93.288 21.2681 93.219 21.2681C91.908 17.4578 88.113 13.509 83.904 14.6175C83.835 14.6175 83.835 14.6867 83.904 14.6867C87.837 15.3795 90.321 17.6657 91.839 21.1295C87.147 20.7139 82.11 22.1687 79.902 26.6024C79.764 26.8102 80.109 27.0181 80.247 26.8102C83.835 21.4066 92.046 22.4458 92.874 22.5843C100.188 23.2771 101.568 27.6416 102.948 29.4428C103.086 29.5813 103.362 29.3735 103.362 29.2349C103.362 27.0181 100.326 23.1386 95.427 21.8223C105.087 19.3283 113.505 24.4548 115.506 33.1145C115.851 34.5693 115.782 36.0934 116.058 37.5482C113.091 37.4789 109.917 38.3795 107.433 39.6958C107.295 39.7651 107.364 39.9729 107.502 39.9036C112.125 38.8645 120.336 36.7861 123.51 43.2982C121.647 41.7741 118.818 40.9428 117.093 40.6657C109.434 39.488 105.156 46.1386 106.26 45.0301C108.675 42.6747 112.056 41.6355 115.368 41.5663C119.301 41.497 122.13 43.3675 124.338 46.3464C124.062 46.4157 123.786 46.5542 123.51 46.6235C117.369 40.0422 107.985 46.0693 109.71 45.6536C117.714 43.6446 118.749 44.4759 122.406 47.1777C122.268 47.247 121.923 47.5241 121.854 47.5934C119.991 46.3464 116.541 46.4157 115.437 47.5934C117.093 47.1084 120.129 47.1084 121.164 48.2861C120.612 48.9789 119.922 49.3253 121.302 48.9096C123.096 48.3554 125.925 46.5542 130.617 47.4548C134.964 48.3554 136.137 52.8584 133.998 56.4608Z" fill="#F2F2F2"/>
</g>
<defs>
<clipPath id="clip0">
<rect width="138" height="69" fill="white"/>
</clipPath>
</defs>
</svg>
