<svg width="224" height="49" viewBox="0 0 224 49" fill="none" xmlns="http://www.w3.org/2000/svg">
<g clip-path="url(#clip0)">
<path d="M181.552 29.5766C180.768 29.3558 179.424 30.2387 178.976 30.9009C178.864 31.0112 179.088 31.1216 179.2 31.1216C179.536 30.9009 179.984 30.6802 180.32 30.4594C180.768 30.2387 181.216 30.1284 181.552 29.9076C181.664 29.7973 181.664 29.5766 181.552 29.5766Z" fill="#F2F2F2"/>
<path d="M183.008 30.2388C182.56 30.1284 181.44 30.5698 181.104 30.6802C180.88 30.7906 180.992 31.0113 181.216 31.0113C182.336 30.7906 182.896 30.7906 183.12 30.5698C183.12 30.4595 183.12 30.3491 183.008 30.2388Z" fill="#F2F2F2"/>
<path d="M183.232 30.9009C183.12 30.9009 183.12 31.1216 183.232 31.1216C183.792 31.1216 184.352 31.0113 184.8 30.7906C185.136 30.6802 184.576 30.3491 183.232 30.9009Z" fill="#F2F2F2"/>
<path d="M184.24 32.1149C184.128 32.2253 184.24 32.446 184.464 32.3357C184.688 32.2253 185.024 32.1149 185.248 32.0046C185.584 31.8942 185.92 31.8942 186.144 31.7839C186.48 31.5631 185.696 31.0113 184.24 32.1149Z" fill="#F2F2F2"/>
<path d="M187.936 32.4459C188.272 32.2252 187.6 31.7838 186.032 32.5563C185.808 32.6667 186.032 32.9977 186.256 32.8874C186.592 32.777 186.928 32.6667 187.264 32.5563C187.376 32.4459 187.712 32.5563 187.936 32.4459Z" fill="#F2F2F2"/>
<path d="M187.152 33.3289C186.928 33.4392 187.04 33.7703 187.264 33.66C187.488 33.5496 187.712 33.5496 187.936 33.4392C188.16 33.3289 188.496 33.4392 188.72 33.2185C188.832 33.1082 188.832 32.9978 188.72 32.9978C188.384 32.8874 187.6 33.2185 187.152 33.3289Z" fill="#F2F2F2"/>
<path d="M198.576 33.991C198.464 33.991 198.576 34.2117 198.688 34.2117C199.584 33.991 200.48 33.991 201.264 33.6599C201.6 33.4392 200.816 33.1081 198.576 33.991Z" fill="#F2F2F2"/>
<path d="M200.368 34.7635C200.256 34.8739 200.368 35.0946 200.48 34.9842C200.704 34.8739 201.04 34.7635 201.376 34.6532C201.6 34.5428 202.048 34.6532 202.272 34.5428C202.384 34.5428 202.384 34.4324 202.272 34.3221C201.936 34.1014 200.816 34.4324 200.368 34.7635Z" fill="#F2F2F2"/>
<path d="M202.496 35.3154C202.384 35.4257 202.608 35.6465 202.72 35.5361C203.168 35.205 203.728 35.5361 204.176 35.205C204.624 34.9843 203.168 34.6532 202.496 35.3154Z" fill="#F2F2F2"/>
<path d="M205.072 35.7567C204.848 35.536 204.624 35.6464 203.84 35.6464C203.616 35.6464 203.616 35.9774 203.84 35.9774C204.624 35.9774 204.96 36.0878 205.072 35.8671V35.7567Z" fill="#F2F2F2"/>
<path d="M205.184 36.5294C204.96 36.6397 205.184 36.8604 205.296 36.8604C205.52 36.7501 205.856 36.7501 206.08 36.6397C206.304 36.6397 206.64 36.6397 206.864 36.419C206.976 36.3086 206.864 36.1983 206.864 36.1983C206.416 35.9776 205.52 36.3086 205.184 36.5294Z" fill="#F2F2F2"/>
<path d="M207.088 37.4121C207.424 37.4121 207.872 37.4121 207.984 37.1914C207.984 37.0811 207.984 37.0811 207.872 37.0811C207.76 37.0811 207.648 37.0811 207.424 37.1914C207.312 37.1914 207.088 37.1914 206.976 37.1914C206.976 37.0811 206.976 37.3018 207.088 37.4121Z" fill="#F2F2F2"/>
<path d="M209.328 37.7432C209.44 37.6329 209.664 37.6329 209.888 37.6329C210.224 37.5225 209.552 37.3018 209.216 37.6329C209.104 37.6329 209.216 37.8536 209.328 37.7432Z" fill="#F2F2F2"/>
<path d="M162.624 38.6261C162.288 38.5158 161.952 38.7365 161.504 38.7365C160.944 38.8468 160.272 38.9572 159.712 38.9572C159.6 38.9572 159.6 39.0676 159.712 39.0676C162.064 39.7297 163.184 38.7365 162.624 38.6261Z" fill="#F2F2F2"/>
<path d="M163.296 39.509C162.96 39.509 162.624 39.7298 162.288 39.7298C161.84 39.8401 161.392 39.8401 160.944 39.8401C160.72 39.8401 160.72 40.0608 160.944 40.1712C162.736 40.723 163.968 39.509 163.296 39.509Z" fill="#F2F2F2"/>
<path d="M164.416 40.723C164.528 40.723 164.528 40.5022 164.416 40.5022C163.856 40.2815 163.072 40.6126 162.624 40.723C162.512 40.723 162.512 41.054 162.736 40.9437C163.072 40.8333 163.408 40.8333 163.744 40.8333C163.968 40.8333 164.192 40.8333 164.416 40.723Z" fill="#F2F2F2"/>
<path d="M164.304 41.4955C164.752 41.3851 165.088 41.2748 165.2 41.054C165.2 40.9437 165.2 40.9437 165.088 40.8333C164.864 40.7229 164.528 40.9437 163.744 41.1644C163.52 41.2747 163.632 41.6058 163.856 41.4955C164.416 41.7162 165.424 42.0473 166.096 41.8266C165.984 41.9369 165.872 41.9369 165.76 42.0473C165.536 42.1576 165.76 42.3784 165.984 42.3784C167.776 41.6058 167.776 41.2748 167.44 41.2748C167.104 41.2748 166.88 41.4955 166.544 41.6058C166.656 41.4955 166.656 41.4955 166.656 41.3851C166.656 41.2748 166.656 41.1644 166.544 41.1644C165.872 41.3851 165.536 41.9369 164.304 41.4955Z" fill="#F2F2F2"/>
<path d="M138.208 45.4685C137.424 45.3582 136.752 45.7996 134.848 45.2478C134.736 45.2478 134.624 45.3582 134.736 45.4685C137.536 46.7929 138.88 45.5789 138.208 45.4685Z" fill="#F2F2F2"/>
<path d="M139.216 44.8064C138.656 44.5856 138.208 44.8064 137.2 44.3649C137.088 44.2546 136.976 44.4753 137.088 44.5856C138.768 45.4685 139.552 44.9167 139.216 44.8064Z" fill="#F2F2F2"/>
<path d="M141.232 43.4821C140.56 43.4821 139.888 43.8131 139.216 43.5924C139.104 43.4821 138.992 43.8131 139.104 43.8131C140.448 44.4753 141.68 43.4821 141.232 43.4821Z" fill="#F2F2F2"/>
<path d="M142.464 42.8198C142.016 42.5991 141.456 42.8198 140.112 42.5991C139.888 42.5991 139.888 42.9302 140.112 42.9302C140.672 43.0406 142.016 43.2613 142.576 43.0406C142.576 43.0406 142.576 42.8198 142.464 42.8198Z" fill="#F2F2F2"/>
<path d="M143.136 41.6059C142.912 41.4956 142.576 41.6059 142.352 41.6059C142.016 41.6059 141.68 41.6059 141.232 41.6059C141.008 41.6059 140.896 41.8266 141.12 41.937C143.024 42.3784 143.472 41.7163 143.136 41.6059Z" fill="#F2F2F2"/>
<path d="M144.816 40.9437C144.592 40.8333 144.256 40.9437 144.032 40.9437C143.696 40.9437 143.36 41.0541 143.136 41.0541C142.912 41.0541 142.912 41.3851 143.136 41.3851C143.696 41.3851 144.48 41.6059 144.928 41.1644C144.928 41.0541 144.928 40.9437 144.816 40.9437Z" fill="#F2F2F2"/>
<path d="M115.248 45.2478C114.688 45.0271 114.24 44.9167 113.68 44.5856C113.12 44.2546 112.672 43.9235 112.224 43.7028C112.112 43.7028 112 43.7028 112.112 43.8131C114.016 46.3514 115.808 45.4685 115.248 45.2478Z" fill="#F2F2F2"/>
<path d="M115.808 44.4753C115.36 44.3649 114.912 44.1442 114.576 44.0338C114.464 44.0338 114.352 44.1442 114.464 44.2545C116.368 45.6892 117.264 45.1374 116.928 44.9167C116.592 44.5856 116.256 44.5856 115.808 44.4753Z" fill="#F2F2F2"/>
<path d="M117.712 44.2545C117.376 44.1441 116.928 44.0338 116.592 43.813C116.48 43.7027 116.256 43.9234 116.368 44.0338C117.712 45.4685 119.056 44.8063 118.608 44.4752C118.384 44.3648 118.048 44.3648 117.712 44.2545Z" fill="#F2F2F2"/>
<path d="M120.512 43.8131C120.288 43.5924 119.84 43.7027 119.504 43.5924C119.056 43.482 118.72 43.3717 118.384 43.1509C118.272 43.0406 118.16 43.1509 118.272 43.2613C119.28 44.4753 121.072 44.1442 120.512 43.8131Z" fill="#F2F2F2"/>
<path d="M119.84 43.1509C120.288 43.482 121.072 43.5923 121.52 43.2613C121.632 43.1509 121.52 43.0405 121.52 43.0405C121.072 42.9302 120.736 43.2613 119.952 42.9302C119.84 42.9302 119.728 43.0405 119.84 43.1509Z" fill="#F2F2F2"/>
<path d="M72.128 36.419C71.68 36.3086 71.12 36.3086 70.672 36.1982C70.112 36.0879 69.664 35.7568 69.216 35.4257C69.104 35.3154 68.992 35.4257 69.104 35.5361C69.776 36.1982 71.12 37.0811 72.128 36.5293C72.24 36.5293 72.24 36.419 72.128 36.419Z" fill="#F2F2F2"/>
<path d="M69.888 35.3154C70.224 35.4257 70.672 35.5361 71.008 35.6465C71.344 35.7568 71.68 35.7568 72.016 35.6465C72.128 35.6465 72.128 35.4257 72.016 35.4257C71.68 35.3154 71.344 35.3154 71.008 35.3154C70.672 35.3154 70.224 35.205 69.888 35.3154C69.776 35.0947 69.776 35.3154 69.888 35.3154Z" fill="#F2F2F2"/>
<path d="M70.112 33.8806C70 33.8806 70 33.991 70.112 33.8806C70.448 34.3221 71.68 34.8739 72.24 34.6531C72.352 34.6531 72.464 34.4324 72.352 34.4324C72.016 34.1013 71.68 34.2117 70.112 33.8806Z" fill="#F2F2F2"/>
<path d="M74.48 33.4392C74.032 33.2185 73.92 33.3289 71.68 33.1082C71.568 33.1082 71.456 33.3289 71.68 33.3289C72.464 33.5496 73.696 33.991 74.48 33.4392C74.592 33.66 74.592 33.4392 74.48 33.4392Z" fill="#F2F2F2"/>
<path d="M73.808 32.2252C73.584 32.2252 73.472 32.4459 73.696 32.5563C74.816 32.9977 75.152 33.3288 75.6 33.1081C75.712 33.1081 75.712 32.9977 75.712 32.8874C75.488 32.5563 74.144 32.3356 73.808 32.2252Z" fill="#F2F2F2"/>
<path d="M75.264 31.3424C75.152 31.3424 75.04 31.4528 75.152 31.5631C75.488 31.7839 76.832 32.3357 77.392 32.1149C77.504 32.1149 77.504 31.8942 77.504 31.8942C77.28 31.6735 77.056 31.6735 75.264 31.3424Z" fill="#F2F2F2"/>
<path d="M77.952 30.9009C77.728 30.9009 77.392 30.9009 77.168 30.7905C76.944 30.6802 76.832 31.1216 77.056 31.1216C78.176 31.5631 78.736 31.232 78.512 31.0113C78.4 30.9009 78.176 30.9009 77.952 30.9009Z" fill="#F2F2F2"/>
<path d="M79.744 30.2388C79.296 30.2388 78.96 30.2388 78.624 30.0181C78.4 29.9077 78.288 30.2388 78.4 30.3491C78.736 30.5699 79.184 30.6802 79.744 30.6802C80.08 30.6802 80.08 30.2388 79.744 30.2388Z" fill="#F2F2F2"/>
<path d="M81.088 30.0181C80.752 30.0181 80.528 29.9077 80.192 29.7974C79.968 29.687 79.856 30.0181 80.08 30.1284C80.416 30.3492 80.752 30.4595 81.088 30.4595C81.424 30.5699 81.424 30.1284 81.088 30.0181Z" fill="#F2F2F2"/>
<path d="M95.76 28.6937C95.648 28.6937 95.536 28.6937 95.536 28.6937H95.424C95.312 28.6937 95.312 28.8041 95.312 28.8041C95.424 29.0248 95.872 29.1352 96.096 29.2455C96.544 29.3559 96.992 29.4662 97.44 29.3559C97.552 29.3559 97.552 29.2455 97.552 29.1352C97.328 28.9144 96.768 28.8041 95.76 28.6937Z" fill="#F2F2F2"/>
<path d="M96.208 28.0316C96.096 28.0316 96.096 28.3627 96.208 28.3627C96.544 28.473 96.88 28.473 97.104 28.5834C97.328 28.6937 97.664 28.8041 97.888 28.5834C98.336 28.2523 97.328 27.8109 96.208 28.0316Z" fill="#F2F2F2"/>
<path d="M96.88 26.7073C96.656 26.7073 96.544 26.928 96.768 27.0384C98.112 27.4798 98.448 27.8109 98.896 27.7005C99.232 27.5902 98.896 27.0384 96.88 26.7073Z" fill="#F2F2F2"/>
<path d="M97.888 25.714C97.664 25.714 97.664 25.9347 97.776 25.9347C98 26.0451 98.224 26.0451 98.448 26.1554C98.672 26.1554 98.896 26.3761 99.12 26.1554C99.232 26.1554 99.232 26.0451 99.12 26.0451C99.12 25.8244 98.672 25.9347 97.888 25.714Z" fill="#F2F2F2"/>
<path d="M98.672 24.8311C98.56 24.8311 98.56 25.1621 98.672 25.1621C99.008 25.1621 99.344 25.1621 99.68 25.2725C100.016 25.2725 100.352 25.3829 100.576 25.1621C100.688 25.1621 100.688 25.0518 100.576 24.9414C100.24 24.7207 99.008 24.8311 98.672 24.8311Z" fill="#F2F2F2"/>
<path d="M99.904 24.0586C99.792 24.169 99.904 24.2793 100.016 24.2793C101.248 24.0586 101.248 24.5001 101.808 24.3897C101.92 24.3897 101.92 24.2793 101.92 24.169C101.472 23.6172 100.352 23.7275 99.904 24.0586Z" fill="#F2F2F2"/>
<path d="M101.808 22.8446C101.584 22.8446 101.584 23.1757 101.808 23.286C102.704 23.3964 103.152 23.6171 103.488 23.3964C103.936 23.0653 102.704 22.8446 101.808 22.8446Z" fill="#F2F2F2"/>
<path d="M25.2 33.2185C25.088 33.2185 24.976 33.3288 24.864 33.4392C24.752 33.4392 24.752 33.6599 24.864 33.6599C24.864 33.6599 24.976 33.7703 25.088 33.6599C25.76 33.6599 26.32 33.7703 26.768 33.6599C26.88 33.6599 26.88 33.4392 26.88 33.4392C26.432 33.1081 25.648 33.1081 25.2 33.2185Z" fill="#F2F2F2"/>
<path d="M26.656 32.4459C26.544 32.4459 26.544 32.6666 26.656 32.777C28.224 33.1081 28.224 33.1081 28.448 32.9977C28.56 32.9977 28.56 32.8874 28.56 32.777C28.224 32.4459 27.216 32.3356 26.656 32.4459Z" fill="#F2F2F2"/>
<path d="M29.344 32.0045C29.008 32.0045 28.672 31.8942 28.336 31.7838C28.112 31.7838 28 32.1149 28.224 32.1149C28.784 32.2253 29.568 32.6667 30.016 32.3356C30.128 32.3356 30.128 32.1149 30.016 32.1149C29.904 32.0045 29.68 32.0045 29.344 32.0045Z" fill="#F2F2F2"/>
<path d="M29.792 31.3424C29.568 31.3424 29.568 31.5631 29.792 31.6735C30.464 31.7838 31.92 32.1149 31.584 31.7838C31.136 31.232 30.464 31.3424 29.792 31.3424Z" fill="#F2F2F2"/>
<path d="M31.92 30.9009C31.808 30.9009 31.696 31.0112 31.584 31.0112C31.472 31.0112 31.472 31.232 31.584 31.232C31.696 31.232 31.808 31.3423 31.808 31.3423C32.368 31.4527 32.928 31.6734 33.376 31.6734C33.488 31.6734 33.6 31.563 33.488 31.4527C33.264 30.9009 32.48 30.9009 31.92 30.9009Z" fill="#F2F2F2"/>
<path d="M33.712 30.5698C33.6 30.5698 33.6 30.7905 33.712 30.9009C35.28 31.232 35.28 31.232 35.504 31.1216C35.616 31.1216 35.616 31.0113 35.616 30.9009C35.168 30.5698 34.16 30.4595 33.712 30.5698Z" fill="#F2F2F2"/>
<path d="M36.848 30.4595C36.512 30.4595 36.176 30.3491 35.84 30.2388C35.616 30.2388 35.504 30.5698 35.728 30.5698C36.288 30.6802 37.072 31.1216 37.52 30.7906C37.632 30.7906 37.632 30.5698 37.52 30.5698C37.296 30.4595 37.072 30.4595 36.848 30.4595Z" fill="#F2F2F2"/>
<path d="M37.296 30.018C37.072 30.018 37.072 30.2388 37.296 30.3491C37.968 30.4595 39.424 30.7906 39.088 30.4595C38.64 29.9077 37.856 30.018 37.296 30.018Z" fill="#F2F2F2"/>
<path d="M166.208 26.4866C164.976 18.0992 155.456 17.437 156.576 17.8785C162.848 20.3064 165.76 23.6172 165.2 29.7974C164.64 29.3559 164.08 29.1352 163.408 29.0249C163.296 29.0249 163.184 29.2456 163.296 29.2456C164.192 29.7974 165.424 31.0113 165.536 32.3357C165.536 32.7771 165.424 34.2118 165.536 34.6532C165.76 35.6465 166.88 32.5564 165.872 30.6803C166.544 29.4663 166.32 27.5902 166.208 26.4866Z" fill="#F2F2F2"/>
<path d="M135.408 37.3018C139.328 36.419 141.12 34.2117 140.336 34.3221C140.224 34.3221 138.544 35.205 135.632 36.0879C133.84 36.6397 132.048 36.0879 130.256 35.9775C130.144 35.9775 130.144 36.0879 130.144 36.0879C131.04 36.8604 132.16 37.3018 133.28 37.3018C133.056 37.5226 132.72 37.6329 132.496 37.8536C131.152 38.6262 129.808 39.178 128.352 39.509C125.44 40.1712 122.528 39.7298 120.064 38.1847C119.952 38.0744 119.728 38.2951 119.84 38.4054C123.312 41.6059 128.016 41.2748 132.384 39.2883C133.392 38.8469 134.624 38.1847 135.408 37.3018Z" fill="#F2F2F2"/>
<path d="M125.888 38.7365C126.56 38.8468 127.344 39.0676 128.016 38.7365C128.352 38.6261 127.68 38.1847 125.888 38.5158C125.888 38.6261 125.888 38.7365 125.888 38.7365Z" fill="#F2F2F2"/>
<path d="M127.568 37.8537C127.904 38.0744 128.576 38.4055 129.024 38.1847C129.136 38.1847 129.136 38.0744 129.024 37.964C128.912 37.8537 128.688 37.8537 128.464 37.8537C128.24 37.8537 127.904 37.7433 127.68 37.7433C127.568 37.6329 127.456 37.8537 127.568 37.8537Z" fill="#F2F2F2"/>
<path d="M129.248 37.1914C129.136 36.9707 128.912 37.0811 128.688 36.9707C128.464 36.9707 128.352 36.9707 128.128 36.8604C128.016 36.8604 128.016 36.9707 128.128 36.9707C128.464 37.1914 128.912 37.3018 129.248 37.1914Z" fill="#F2F2F2"/>
<path d="M134.848 35.2049C134.624 34.9842 134.176 34.9842 133.952 34.9842C133.616 34.8738 133.28 34.8738 133.056 34.6531C132.944 34.5428 132.72 34.7635 132.832 34.8738C134.288 36.1982 135.184 35.536 134.848 35.2049Z" fill="#F2F2F2"/>
<path d="M134.288 34.6532C134.512 34.6532 134.736 34.6532 134.96 34.7635C135.184 34.7635 135.408 34.8739 135.52 34.7635L135.632 34.6532C135.52 34.2117 134.736 34.3221 134.4 34.4325C134.064 34.4325 134.064 34.6532 134.288 34.6532Z" fill="#F2F2F2"/>
<path d="M137.312 34.3221C136.976 34.1014 137.2 34.2118 136.64 34.1014C136.416 34.1014 136.08 33.991 135.856 33.8807C135.632 33.7703 135.52 33.991 135.632 34.2118C136.976 34.9843 137.648 34.5428 137.312 34.3221Z" fill="#F2F2F2"/>
<path d="M136.528 33.5495C136.864 33.5495 137.312 33.7702 137.648 33.6599C137.984 33.5495 137.2 33.3288 136.528 33.3288C136.416 33.2184 136.416 33.5495 136.528 33.5495Z" fill="#F2F2F2"/>
<path d="M137.312 32.777C137.984 33.2184 138.656 32.9977 138.544 32.6666C138.432 32.4459 138.208 32.5563 137.984 32.5563C137.76 32.5563 137.648 32.5563 137.424 32.4459C137.312 32.4459 137.2 32.777 137.312 32.777Z" fill="#F2F2F2"/>
<path d="M163.072 10.2636C163.408 10.1532 163.632 9.93252 163.856 9.82216C164.192 9.7118 164.528 9.60144 164.864 9.49108C164.976 9.49108 164.976 9.38071 164.864 9.27035C163.968 9.04963 162.736 10.2636 163.072 10.2636Z" fill="#F2F2F2"/>
<path d="M163.968 10.4843C163.968 10.4843 163.968 10.5946 163.968 10.4843C164.304 10.2635 164.864 10.1532 165.2 10.0428C165.424 9.93245 165.872 9.93245 165.984 9.82209C166.096 9.71173 165.984 9.60137 165.984 9.60137C165.648 9.49101 165.2 9.71173 164.864 9.82209C164.416 9.93245 164.192 10.0428 163.968 10.4843Z" fill="#F2F2F2"/>
<path d="M165.088 10.705C165.312 10.5946 165.648 10.5946 165.872 10.4843C166.096 10.4843 166.32 10.4843 166.544 10.3739C166.656 10.3739 166.656 10.2636 166.544 10.2636C166.096 10.0428 164.864 10.705 165.088 10.705Z" fill="#F2F2F2"/>
<path d="M165.424 11.3672C165.312 11.4775 165.424 11.6982 165.536 11.5879C165.76 11.3672 166.096 11.2568 166.432 11.2568C166.656 11.1464 167.104 11.2568 167.328 11.0361C167.552 10.9257 167.216 10.5946 166.208 10.9257C165.984 10.9257 165.648 11.1464 165.424 11.3672Z" fill="#F2F2F2"/>
<path d="M166.32 12.1397C166.656 12.0294 166.992 11.919 167.328 11.919C167.552 11.919 167.776 11.919 168 11.6983C168 11.6983 168.112 11.5879 168 11.5879C167.104 11.2568 165.984 12.2501 166.32 12.1397Z" fill="#F2F2F2"/>
<path d="M118.608 16.554C118.944 16.6644 119.28 16.6644 119.616 16.6644C119.952 16.7748 120.176 16.8851 120.512 16.8851C120.848 16.8851 119.392 15.8919 118.608 16.3333C118.496 16.3333 118.496 16.554 118.608 16.554Z" fill="#F2F2F2"/>
<path d="M118.384 17.2162C118.72 17.2162 119.28 17.2162 119.616 17.4369C119.728 17.4369 119.728 17.4369 119.728 17.3266C119.392 16.9955 119.168 16.8851 118.72 16.7748C118.384 16.7748 117.824 16.6644 117.6 16.8851C117.488 16.9955 117.488 17.1059 117.6 17.1059C117.712 17.3266 118.16 17.2162 118.384 17.2162Z" fill="#F2F2F2"/>
<path d="M117.04 17.7681C117.264 17.8785 117.488 17.7681 117.712 17.7681C117.936 17.7681 118.272 17.7681 118.496 17.7681C118.832 17.7681 117.376 17.3267 117.04 17.7681C117.04 17.6577 117.04 17.7681 117.04 17.7681Z" fill="#F2F2F2"/>
<path d="M116.48 18.5405C116.704 18.6509 117.152 18.5405 117.376 18.5405C117.712 18.5405 118.048 18.6509 118.384 18.7613C118.496 18.7613 118.608 18.6509 118.496 18.5405C118.16 18.3198 117.936 18.3198 117.6 18.2095C116.368 18.0991 116.144 18.4302 116.48 18.5405Z" fill="#F2F2F2"/>
<path d="M115.92 19.4234C116.144 19.5338 116.368 19.5338 116.704 19.4234C117.04 19.4234 117.376 19.4234 117.824 19.4234C118.272 19.5338 116.928 18.7612 116.032 19.2027C115.808 19.313 115.808 19.313 115.92 19.4234Z" fill="#F2F2F2"/>
<path d="M115.36 20.4167C115.584 20.4167 115.808 20.3064 116.144 20.3064C116.48 20.196 116.928 20.196 117.376 20.3064C117.488 20.3064 117.488 20.196 117.488 20.196C116.928 19.8649 115.808 19.7546 115.36 20.4167C115.136 20.196 115.248 20.3064 115.36 20.4167Z" fill="#F2F2F2"/>
<path d="M115.136 21.0788C115.36 21.1892 116.256 20.9685 116.48 20.9685C116.592 20.9685 116.592 20.8581 116.48 20.8581C116.032 20.7477 115.36 20.6374 115.136 21.0788C115.024 20.9685 115.136 21.0788 115.136 21.0788Z" fill="#F2F2F2"/>
<path d="M114.688 22.072C114.912 22.072 115.136 21.9617 115.36 21.9617C115.584 21.8513 115.808 21.8513 116.144 21.8513C116.256 21.8513 116.256 21.741 116.144 21.741C114.688 21.4099 114.352 21.9617 114.688 22.072Z" fill="#F2F2F2"/>
<path d="M114.24 23.1757C114.464 23.1757 114.688 23.0654 114.912 22.955C115.248 22.8446 115.584 22.7343 115.92 22.7343C116.032 22.7343 116.032 22.6239 115.92 22.5136C115.36 22.4032 114.352 22.5136 114.128 22.955C114.128 23.0654 114.24 23.1757 114.24 23.1757Z" fill="#F2F2F2"/>
<path d="M114.128 24.5001C114.352 24.5001 114.576 24.169 114.8 24.0586C115.024 23.9483 115.36 23.8379 115.696 23.7276C115.808 23.7276 115.808 23.6172 115.696 23.6172C114.912 23.2861 113.904 23.9483 114.016 24.3897C114.016 24.5001 114.016 24.5001 114.128 24.5001Z" fill="#F2F2F2"/>
<path d="M114.352 25.4933C114.464 25.383 114.688 25.2726 114.912 25.2726C115.024 25.2726 115.136 25.0519 114.912 25.0519C113.68 24.8312 113.344 26.3762 114.352 25.4933Z" fill="#F2F2F2"/>
<path d="M157.696 19.6441C156.8 19.4234 155.68 20.7477 155.904 20.6374C156.24 20.527 156.464 20.3063 156.688 20.1959C157.024 20.0856 157.36 19.9752 157.696 19.8648C157.808 19.7545 157.808 19.6441 157.696 19.6441Z" fill="#F2F2F2"/>
<path d="M158.816 20.196C158.928 20.0856 158.816 19.9753 158.816 19.9753C158.48 19.8649 158.032 20.0856 157.696 20.196C157.248 20.3063 157.024 20.5271 156.8 20.9685C156.8 20.9685 156.8 21.0789 156.912 21.0789C157.136 20.8582 157.696 20.6374 158.032 20.5271C158.368 20.4167 158.704 20.4167 158.816 20.196Z" fill="#F2F2F2"/>
<path d="M159.488 20.7478C159.6 20.7478 159.6 20.6374 159.488 20.7478C159.04 20.4167 157.808 21.1892 158.032 21.0789C158.256 20.9685 158.592 20.9685 158.816 20.8581C159.04 20.8581 159.264 20.8581 159.488 20.7478Z" fill="#F2F2F2"/>
<path d="M160.272 21.41C160.496 21.2996 160.16 20.9685 159.152 21.2996C158.816 21.41 158.48 21.5203 158.256 21.7411C158.144 21.8514 158.256 22.0721 158.368 21.9618C158.592 21.7411 158.928 21.6307 159.264 21.6307C159.6 21.5203 160.048 21.5203 160.272 21.41Z" fill="#F2F2F2"/>
<path d="M160.944 22.0721C160.944 22.0721 161.056 21.9618 160.944 22.0721C159.936 21.7411 158.816 22.7343 159.152 22.5136C159.488 22.4032 159.824 22.2929 160.16 22.2929C160.496 22.1825 160.72 22.1825 160.944 22.0721Z" fill="#F2F2F2"/>
<path d="M159.824 23.1756C160.16 23.0653 160.608 22.9549 160.944 22.9549C161.168 22.9549 161.504 23.0653 161.728 22.9549C161.84 22.9549 161.84 22.7342 161.728 22.7342C161.168 22.2928 160.16 22.7342 159.6 23.0653C159.6 23.0653 159.712 23.1756 159.824 23.1756Z" fill="#F2F2F2"/>
<path d="M160.72 23.6171C160.944 23.7275 161.84 23.7275 162.064 23.6171C162.176 23.6171 162.176 23.5068 162.064 23.3964C161.728 23.286 161.168 23.5068 160.72 23.6171Z" fill="#F2F2F2"/>
<path d="M161.28 24.2793C161.168 24.2793 161.28 24.3897 161.28 24.2793C161.504 24.2793 161.728 24.2793 162.064 24.2793C162.288 24.2793 162.512 24.3897 162.736 24.2793C163.072 24.2793 162.624 23.7275 161.28 24.2793Z" fill="#F2F2F2"/>
<path d="M161.616 25.1622C161.504 25.1622 161.616 25.383 161.728 25.2726C162.064 25.2726 162.4 25.2726 162.736 25.2726C162.96 25.2726 163.184 25.383 163.52 25.383C163.632 25.383 163.632 25.2726 163.632 25.1622C163.184 24.8312 162.176 24.8312 161.616 25.1622Z" fill="#F2F2F2"/>
<path d="M162.064 26.1554C161.952 26.1554 162.064 26.2657 162.064 26.1554C162.4 26.2657 162.736 26.2657 162.96 26.3761C163.184 26.4865 163.408 26.7072 163.744 26.7072C163.856 26.7072 163.856 26.5968 163.856 26.5968C163.968 26.1554 162.848 25.6036 162.064 26.1554Z" fill="#F2F2F2"/>
<path d="M163.072 27.3694C162.96 27.4798 162.96 27.7005 163.184 27.5901C163.408 27.4798 163.632 27.5901 163.744 27.7005C164.976 28.3627 164.304 26.8176 163.072 27.3694Z" fill="#F2F2F2"/>
<path d="M142.24 5.07666C142.464 4.85594 142.688 4.63522 142.8 4.4145C143.024 4.19378 143.36 3.97306 143.584 3.75234C143.584 3.64198 143.584 3.53162 143.472 3.53162C142.688 3.64198 142.016 5.29738 142.24 5.07666Z" fill="#F2F2F2"/>
<path d="M143.248 4.96619C143.248 5.07655 143.248 5.07655 143.248 4.96619C143.472 4.63511 143.92 4.30403 144.256 4.19366C144.48 4.0833 144.816 3.97294 144.928 3.64186C144.928 3.5315 144.928 3.42114 144.816 3.42114C144.48 3.42114 144.032 3.75222 143.808 3.97294C143.36 4.30403 143.248 4.52475 143.248 4.96619Z" fill="#F2F2F2"/>
<path d="M144.368 4.74555C144.592 4.63519 144.816 4.41447 145.04 4.30411C145.264 4.19375 145.488 4.08339 145.6 3.97303C145.6 3.86267 145.6 3.86267 145.488 3.86267C145.04 3.86267 144.144 4.96627 144.368 4.74555Z" fill="#F2F2F2"/>
<path d="M145.6 4.52482C145.376 4.74554 145.152 4.96626 144.928 5.29734C144.928 5.4077 145.04 5.51806 145.152 5.4077C145.376 5.18698 145.6 4.96626 145.824 4.74554C146.048 4.63518 146.384 4.52482 146.608 4.30409C146.72 4.08337 146.384 3.86265 145.6 4.52482Z" fill="#F2F2F2"/>
<path d="M147.504 4.74549C147.504 4.74549 147.504 4.63513 147.392 4.63513C146.384 4.74549 145.712 6.06982 145.936 5.73874C146.16 5.51802 146.496 5.29729 146.832 5.18693C147.168 4.96621 147.392 4.96621 147.504 4.74549Z" fill="#F2F2F2"/>
<path d="M147.84 5.5181C148.064 5.40773 148.288 5.40773 148.512 5.18701C148.624 5.18701 148.512 4.96629 148.512 4.96629C147.84 4.74557 146.944 5.40773 146.72 5.95954C146.608 6.0699 146.832 6.18026 146.832 6.0699C147.056 5.84918 147.504 5.62846 147.84 5.5181Z" fill="#F2F2F2"/>
<path d="M148.96 5.62842C148.624 5.62842 148.176 5.9595 147.728 6.29058C147.728 6.29058 147.728 6.40094 147.84 6.40094C148.064 6.29058 148.848 6.06986 149.072 5.84914C149.072 5.73878 149.072 5.62842 148.96 5.62842Z" fill="#F2F2F2"/>
<path d="M149.968 6.29053C150.192 6.06981 149.632 5.73873 148.624 6.73197C148.512 6.84233 148.624 6.84233 148.736 6.84233C148.96 6.73197 149.184 6.62161 149.408 6.51125C149.632 6.40089 149.856 6.40089 149.968 6.29053Z" fill="#F2F2F2"/>
<path d="M150.864 7.06312C150.864 7.06312 150.864 6.95276 150.864 6.8424C150.416 6.51132 149.52 6.95276 149.072 7.3942C148.96 7.50456 149.072 7.61493 149.184 7.50456C149.52 7.3942 149.744 7.28384 150.08 7.17348C150.416 7.17348 150.752 7.17348 150.864 7.06312Z" fill="#F2F2F2"/>
<path d="M151.76 8.05633C151.872 8.05633 151.872 7.94597 151.872 7.83561C151.76 7.39417 150.528 7.39417 150.08 8.05633C150.08 8.16669 150.08 8.16669 150.192 8.16669C150.528 8.05633 150.752 7.94597 151.088 7.94597C151.312 8.05633 151.536 8.27705 151.76 8.05633Z" fill="#F2F2F2"/>
<path d="M151.424 8.93927C151.312 9.04963 151.424 9.27035 151.536 9.15999C151.76 9.04963 151.872 8.93927 152.096 9.04963C153.44 9.27035 152.32 8.05639 151.424 8.93927Z" fill="#F2F2F2"/>
<path d="M177.52 26.2658C177.296 26.3762 176.848 26.4866 176.624 26.8176C176.512 26.928 176.624 27.0384 176.736 27.0384C177.296 27.1487 178.304 26.1555 178.752 25.3829C178.752 25.2726 178.752 25.2726 178.64 25.2726C178.304 25.714 177.856 26.0451 177.52 26.2658Z" fill="#F2F2F2"/>
<path d="M178.08 25.1622C178.08 25.0518 178.08 24.9415 177.968 25.0518C177.52 25.3829 176.96 25.714 176.288 25.8243C175.84 25.9347 177.184 26.7072 178.08 25.1622Z" fill="#F2F2F2"/>
<path d="M177.296 24.169C176.96 24.3897 176.512 24.5001 176.176 24.8312C175.84 25.0519 176.848 25.4933 178.528 23.6172C178.528 23.6172 178.528 23.5068 178.416 23.5068C177.968 23.7276 177.632 23.9483 177.296 24.169Z" fill="#F2F2F2"/>
<path d="M175.728 23.5068C175.616 23.5068 175.728 23.6172 175.728 23.7275C176.624 24.0586 177.968 23.0654 178.416 22.4032C178.416 22.4032 178.416 22.2928 178.304 22.2928C177.856 22.5136 177.408 22.8446 176.96 23.0654C176.624 23.1757 176.064 23.2861 175.728 23.5068Z" fill="#F2F2F2"/>
<path d="M177.968 21.6306C178.08 21.5203 177.968 21.4099 177.856 21.4099C176.736 22.0721 176.512 21.9617 176.064 22.1824C175.728 22.4032 176.4 22.955 177.968 21.6306Z" fill="#F2F2F2"/>
<path d="M175.616 21.2996C176.064 21.5203 176.848 21.0788 177.184 20.7477C177.296 20.6374 177.184 20.527 177.072 20.6374C176.848 20.7477 176.512 20.9685 176.176 20.9685C176.064 21.0788 175.728 21.0788 175.616 21.2996Z" fill="#F2F2F2"/>
<path d="M174.496 20.6374C174.384 20.6374 174.384 20.8581 174.496 20.8581C175.168 20.9685 175.84 20.4167 176.4 20.0856C176.512 19.9752 176.4 19.8649 176.288 19.8649C175.952 20.0856 175.728 20.1959 175.392 20.3063C175.056 20.4167 174.72 20.4167 174.496 20.6374Z" fill="#F2F2F2"/>
<path d="M174.272 19.8649C174.272 19.9753 174.272 20.0857 174.384 20.0857C174.72 20.0857 175.728 19.5338 176.064 19.3131C176.176 19.2028 176.064 19.0924 175.952 19.0924C175.616 19.2028 175.392 19.3131 175.056 19.4235C174.72 19.5338 174.496 19.6442 174.272 19.8649Z" fill="#F2F2F2"/>
<path d="M174.048 18.9821C174.496 18.9821 174.944 18.5406 175.28 18.3199C175.392 18.2095 175.28 18.0992 175.168 18.2095C174.608 18.7613 174.384 18.651 174.048 18.9821C173.936 18.8717 173.936 18.9821 174.048 18.9821Z" fill="#F2F2F2"/>
<path d="M173.936 17.8784C174.16 17.768 174.272 17.5473 174.496 17.437C174.608 17.3266 174.496 17.2162 174.384 17.3266C174.16 17.437 174.048 17.6577 173.824 17.768C173.712 17.8784 173.488 17.9888 173.376 18.0991C173.264 18.0991 173.376 18.2095 173.936 17.8784Z" fill="#F2F2F2"/>
<path d="M173.488 16.3333C173.264 16.554 173.04 16.7747 172.816 16.9955C172.592 17.1058 172.256 17.2162 172.256 17.5473C172.256 17.5473 172.256 17.6576 172.368 17.6576C172.816 17.8784 173.488 16.9955 173.712 16.554C173.712 16.4437 173.6 16.2229 173.488 16.3333Z" fill="#F2F2F2"/>
<path d="M172.256 15.2298C172.144 15.5609 172.032 15.7816 171.808 16.0023C171.584 16.2231 171.36 16.3334 171.248 16.5541C171.248 16.9956 172.368 16.6645 172.592 15.3402C172.592 15.1194 172.256 15.0091 172.256 15.2298Z" fill="#F2F2F2"/>
<path d="M171.024 15.009C170.912 15.2298 170.8 15.4505 170.688 15.6712C170.576 15.7816 170.352 16.0023 170.352 16.223C170.352 16.5541 171.136 16.3334 171.36 15.009C171.248 14.8987 171.024 14.8987 171.024 15.009Z" fill="#F2F2F2"/>
<path d="M169.68 14.5676C169.568 14.7884 169.456 15.0091 169.344 15.2298C169.232 15.3402 169.12 15.5609 169.12 15.6712C169.12 15.7816 169.232 15.7816 169.232 15.7816C169.68 15.6712 169.792 15.0091 169.904 14.5676C170.016 14.4573 169.792 14.4573 169.68 14.5676Z" fill="#F2F2F2"/>
<path d="M168.448 14.3469C168.448 14.5677 168.336 14.7884 168.336 14.8987C168.224 15.0091 168.112 15.1195 168.224 15.3402C168.224 15.3402 168.224 15.4505 168.336 15.4505C168.784 15.4505 168.896 14.678 168.896 14.3469C168.784 14.2366 168.448 14.2366 168.448 14.3469Z" fill="#F2F2F2"/>
<path d="M211.792 33.8807C209.44 33.5496 208.432 33.3289 206.304 32.1149C201.936 29.687 199.136 30.2388 194.208 31.1216C192.64 29.1352 188.048 26.3762 181.44 26.5969C182.224 22.6239 179.536 15.4505 172.033 12.1397C171.809 10.5946 170.688 8.82886 169.904 8.16669C166.544 5.29733 160.048 5.95949 155.792 7.17345C148.4 -2.64862 132.272 -1.10358 130.816 4.41444C126.672 4.08336 122.64 7.83561 122.752 11.5879C120.512 11.8086 118.272 12.3604 115.92 14.3469C113.792 16.1126 112.224 18.5406 111.328 20.6374C109.76 19.6442 107.856 19.2027 105.728 19.2027C100.128 19.2027 93.4085 22.8446 92.4005 27.4798C90.2725 26.5969 87.6965 26.2658 84.8965 26.2658C77.2805 26.2658 69.1045 29.4662 65.0725 33.991C60.7045 32.3356 55.1045 32.2253 50.9605 33.1081C49.1685 30.3491 43.4565 27.0383 36.6245 27.0383C31.1365 27.0383 25.6485 28.8041 22.0645 31.8942C19.3765 30.6802 16.8005 30.6802 14.3365 30.7906C10.1925 30.7906 -0.335501 32.1149 -0.111501 36.0879C0.000498854 38.4054 4.1445 41.0541 10.6405 38.2951C13.5525 39.7298 19.4885 41.4955 22.9605 41.2748C28.2245 40.9437 27.7765 39.7298 32.5925 42.268C34.6085 43.3716 36.2885 44.2545 39.9845 44.2545C39.9845 44.2545 44.2405 44.2545 46.0325 43.1509C49.3925 44.696 54.9925 45.3581 58.1285 45.3581C62.4965 45.3581 66.4165 43.8131 68.9925 43.2613C69.2165 45.0271 73.3605 45.4685 75.1525 45.4685C76.8325 45.4685 78.1765 45.2478 82.0965 44.8063C82.8805 46.5721 85.6805 46.9032 87.5845 46.9032C92.2885 46.9032 95.3125 44.3649 98.5605 44.8063C103.712 45.5788 102.592 48.5586 114.464 48.3379C116.704 48.3379 120.96 48.3379 125.888 46.7928C129.472 49.1104 132.944 49.5518 137.424 49C143.024 48.2275 144.48 45.0271 146.833 45.0271C150.417 45.0271 155.008 51.759 169.344 44.1442C170.016 43.8131 170.688 43.482 171.36 42.9302C179.984 45.5789 188.832 43.7027 192.64 40.8334C195.776 41.937 201.712 41.6059 205.408 42.3784C209.44 43.2613 213.136 44.4753 216.496 44.4753C224 44.2545 230.608 36.75 211.792 33.8807ZM218.064 41.937C214.592 42.4888 208.88 40.6126 204.96 39.9505C201.824 39.3987 195.216 39.178 193.312 38.8469C193.648 38.5158 193.984 38.0743 194.208 37.6329C194.432 37.1915 194.544 36.75 194.208 37.1915C190.96 40.5023 184.576 41.7162 179.984 41.7162C175.056 41.8266 170.688 40.2816 166.096 38.8469C165.984 38.8469 165.872 38.9572 165.984 38.9572C167.104 39.8401 168.336 40.5023 169.68 41.1644C152.992 50.1036 151.76 41.8266 146.048 42.5991C143.136 43.0406 141.12 45.6892 138.208 46.241C127.792 48.2275 125.104 42.268 120.4 41.6059C120.176 41.6059 120.176 41.8266 120.4 41.937C122.08 43.0406 122.192 42.8198 124.768 44.5856C122.416 45.0271 120.176 45.5789 117.824 45.7996C106.848 46.4617 106.176 45.1374 101.36 43.2613C94.6405 40.5023 92.7365 45.4685 85.7925 44.4753C83.4405 44.1442 83.5525 43.1509 85.2325 41.7162C86.5765 40.5023 88.4805 40.2816 90.9445 38.9572C91.0565 38.9572 90.9445 38.7365 90.8325 38.7365C89.1525 38.9572 84.6725 39.3987 82.9925 42.3784C81.6485 42.9302 72.0165 44.2545 71.4565 42.4888C71.9045 41.6059 71.6805 40.6126 70.2245 40.6126C68.2085 40.6126 66.0805 41.4955 64.2885 42.0473C58.6885 43.7027 48.9445 43.0406 44.1285 39.7298C44.0165 39.6194 43.7925 39.8401 43.9045 39.9505C44.2405 40.3919 44.5765 40.723 44.9125 41.0541C34.6085 43.482 33.2645 38.5158 28.3365 38.2951C26.9925 38.1847 25.5365 38.5158 24.1925 38.7365C18.2565 39.6194 10.7525 35.8671 8.9605 35.205C8.7365 35.0946 8.6245 35.4257 8.7365 35.5361C9.0725 35.7568 9.2965 36.0879 9.6325 36.3086C7.8405 36.9707 5.8245 37.5225 4.0325 37.1915C3.4725 37.0811 1.9045 36.4189 1.7925 35.6464C1.7925 34.3221 5.6005 33.5496 6.4965 33.3289C11.3125 32.1149 16.5765 31.8942 21.3925 33.3289C21.1685 33.4392 21.0565 33.6599 20.9445 33.7703C20.8325 33.8807 20.9445 33.991 21.0565 33.991C28.0005 30.018 35.6165 27.4798 43.2325 29.9077C46.9285 31.1216 48.4965 33.4392 49.6165 34.3221C47.6005 34.9843 46.3685 36.0879 46.8165 35.9775C48.3845 35.6464 49.8405 35.0946 51.2965 34.7635C56.2245 33.6599 62.2725 33.8807 67.0885 36.5293C67.7605 36.8604 68.7685 36.6397 68.0965 36.3086C67.6485 36.0879 66.9765 35.5361 66.5285 35.3153C67.5365 33.5496 82.2085 22.5135 96.2085 31.6734C96.4325 31.8942 96.7685 31.5631 96.6565 31.232C96.0965 30.3491 95.3125 29.687 94.3045 29.1352C94.5285 27.7005 95.0885 26.3762 96.0965 25.2725C99.1205 21.8514 107.408 19.6442 111.552 23.0653C111.216 25.6036 112.784 26.5969 112.56 26.0451C112.224 25.0518 111.552 19.8649 117.824 15.2298C121.744 12.3604 126.672 13.464 128.352 12.4707C128.464 12.3604 127.792 12.25 127.568 12.25C126.672 12.1397 126 11.9189 124.432 12.0293C124.432 9.60138 126.672 6.62165 129.92 6.29057C130.368 6.29057 131.824 6.51129 132.496 7.06309C132.72 7.28381 133.504 7.50453 133.28 7.17345C132.496 6.06985 132.16 4.08336 134.4 2.97976C135.632 2.42796 145.264 -1.3243 154.56 8.27705C153.776 8.60814 153.104 8.93922 152.544 9.49102C152.432 9.60138 152.544 9.8221 152.656 9.8221C154 9.71174 155.344 9.15994 156.688 8.93922C161.728 7.83561 169.12 7.28381 170.016 12.3604C169.008 12.25 167.888 12.25 166.88 12.3604C166.432 12.3604 166.208 12.8018 166.656 12.8018C178.752 14.3469 181.104 24.6104 178.528 27.7005C176.4 28.1419 174.496 29.0248 173.264 30.5698C175.392 30.5698 184.8 24.9415 192.192 32.3356C191.408 32.5563 190.736 32.7771 190.176 33.1081C189.952 33.2185 190.064 33.5496 190.288 33.5496C192.528 33.2185 194.656 32.7771 198.912 32.446C203.28 32.1149 204.736 33.6599 206.64 34.5428C210.448 36.4189 217.952 35.8671 221.424 39.2883C221.536 41.1644 219.52 41.7162 218.064 41.937Z" fill="#F2F2F2"/>
</g>
<defs>
<clipPath id="clip0">
<rect width="224" height="49" fill="white"/>
</clipPath>
</defs>
</svg>
