<svg width="279" height="108" viewBox="0 0 279 108" fill="none" xmlns="http://www.w3.org/2000/svg">
<path d="M274.26 86.3398C271.04 82.8802 266.28 82.5794 261.94 83.7827C259.98 78.2173 253.68 74.0056 248.5 76.4122C245.42 69.7939 231.28 61.2201 223.86 67.3872C222.04 64.8301 218.96 62.4234 215.18 61.5209C213.92 57.61 210.14 55.3538 206.22 54.4512C207.2 47.8329 202.72 39.4095 194.18 36.4011C194.32 28.8802 185.22 21.3593 176.96 24.5181C172.76 14.4401 158.76 10.3788 153.02 14.4401C148.4 5.26462 135.94 -3.61003 120.4 1.65459C108.22 5.71587 99.12 18.5014 98.5601 27.8273C88.48 24.2173 71.12 30.6852 65.8 42.5682C61.46 40.9136 52.7801 44.6741 51.3801 52.9471C39.4801 50.39 25.3401 57.61 20.7201 66.4847C15.8201 64.5292 6.02006 67.2368 1.54006 74.3064C-3.35994 81.2256 4.34006 91.7549 17.3601 86.7911C22.5401 84.8356 27.1601 80.7744 31.9201 80.7744C39.6201 80.7744 46.2001 90.5515 58.6601 87.9944C64.2601 86.9415 69.72 84.3844 74.9 81.6769C79.94 92.9582 100.94 93.7103 110.6 86.9415C114.38 90.2507 121.24 92.3565 125.86 92.507C123.2 105.593 142.24 108.451 156.94 100.93C163.1 106.045 175.42 105.593 182 101.682C184.1 109.354 195.02 109.504 202.58 104.841C204.68 106.345 207.48 106.496 210 106.345C210.56 106.496 216.86 105.744 220.92 101.682C225.82 107.097 238.7 106.045 244.86 101.833C248.64 105.443 254.94 105.142 259.84 104.841C282.38 103.788 280.14 92.507 274.26 86.3398ZM274.96 95.6657C274.54 98.2228 270.62 99.727 268.24 100.479C269.5 99.2758 270.48 98.3733 271.74 95.9666C271.88 95.8161 271.6 95.6657 271.46 95.8161C269.5 98.8245 266.7 100.178 265.86 101.081C264.74 101.231 263.62 101.382 262.5 101.532C262.92 101.231 263.2 100.93 263.48 100.78C266.14 98.8245 266.84 96.5682 266.28 97.0195C265.16 98.2228 263.9 99.2758 262.64 100.028C261.8 100.479 260.68 100.93 259.98 101.682C259 101.682 257.88 101.682 256.9 101.682C261.24 98.9749 264.18 92.8078 263.2 94.0111C260.54 97.1699 257.88 99.8774 254.1 101.532C253.4 101.532 252.84 101.382 252.14 101.231C254.8 99.8774 256.9 96.8691 258.16 94.312C258.3 94.1616 258.02 94.0111 257.88 94.1616C254.94 98.5237 251.44 100.178 250.18 100.78C249.9 100.63 249.48 100.63 249.2 100.479C250.88 99.2758 252.14 97.4707 253.12 95.8161C253.26 95.6657 252.98 95.5153 252.84 95.6657C251.44 97.4707 249.9 98.9749 248.08 100.178C247.38 99.8774 246.54 99.4262 245.84 98.8245C246.68 97.922 247.1 96.7187 247.38 95.5153C247.38 95.2145 247.1 95.0641 246.96 95.3649C246.26 96.5682 245.42 97.4707 244.58 98.3733C244.44 98.3733 244.44 98.5237 244.3 98.5237C242.62 99.8774 240.66 100.78 238.42 101.382C239.96 99.4262 240.38 98.9749 242.06 95.9666C242.2 95.8161 241.92 95.6657 241.78 95.8161C237.86 100.479 238 100.329 236.32 101.983C235.2 102.134 234.64 102.284 234.08 102.284C239.96 96.7187 238.98 93.5599 238.7 94.1616C237.3 97.6212 235.2 100.178 232.4 102.284C231 102.284 229.74 102.284 228.34 101.983C231.28 100.028 232.54 97.7716 233.66 95.5153C233.8 95.3649 233.52 95.2145 233.52 95.3649C230.16 99.8774 227.08 101.231 226.52 101.532C225.82 101.382 225.26 101.081 224.56 100.78C227.36 98.8245 228.06 95.8161 227.78 96.4178C226.66 98.0724 225.12 98.9749 223.58 100.028C223.3 99.727 221.9 98.2228 221.62 98.0724C221.9 97.4707 222.18 96.7187 222.32 96.117C222.46 95.6657 221.9 95.5153 221.76 95.8161C219.94 99.1253 217 101.382 213.78 102.585C215.18 100.93 216.44 99.2758 217.98 95.9666C218.12 95.8161 217.84 95.5153 217.7 95.6657C215.46 98.3732 213.92 101.081 211.26 103.187C210.28 103.337 209.3 103.337 208.32 103.337C211.4 101.081 211.96 97.4707 211.54 98.3733C210.28 100.329 208.88 101.983 206.92 103.187C205.8 103.036 204.82 102.735 203.84 102.284C206.78 99.727 207.06 96.7187 206.78 97.3203C205.94 98.8245 204.4 100.329 202.44 101.682C202.16 101.682 202.02 101.833 201.88 101.983C200.62 102.735 199.36 103.337 197.96 103.788C200.34 101.231 201.18 98.6741 202.44 95.6657C202.44 95.5153 202.44 95.5153 202.3 95.5153C199.92 98.5237 199.08 101.382 196.42 103.337C195.58 103.939 194.74 104.089 194.04 104.691C192.64 104.841 191.24 104.992 189.98 104.691C196.56 101.532 198.8 93.4095 197.82 95.0641C193.9 102.134 188.58 103.337 187.74 103.939C185.78 102.886 184.52 100.78 184.66 97.1699C185.08 96.7187 185.36 96.117 185.64 95.5153C185.64 95.3649 185.5 95.2145 185.5 95.3649C184.66 96.117 183.82 96.7187 182.98 97.3203C184.1 95.8161 184.8 94.0111 185.5 92.2061C185.5 92.0557 185.36 92.0557 185.36 92.0557C182.14 96.8691 181.72 99.2758 175 100.93C176.54 99.5766 177.66 98.6741 179.34 94.9136C179.34 94.7632 179.2 94.7632 179.2 94.7632C176.68 98.6741 172.34 100.78 171.64 101.382C170.66 101.532 169.54 101.532 168.56 101.382C174.86 97.4707 175.7 91.454 174.86 92.6574C170.24 100.028 168.56 99.1253 165.76 100.93C165.2 100.78 164.64 100.63 164.08 100.479C167.3 98.8245 169.26 96.2674 170.52 92.8078C170.52 92.6574 170.38 92.507 170.24 92.6574C166.6 98.8245 164.5 98.3733 161.98 99.727C160.86 99.2758 159.88 98.6741 158.76 98.0724C158.9 97.6212 158.48 97.0195 157.92 97.1699C157.78 97.1699 157.64 97.1699 157.5 97.3203C157.36 97.3203 157.08 97.3203 156.94 97.4707C156.52 97.6212 156.1 97.7716 155.68 97.7716C156.8 96.7187 157.78 95.5153 158.48 94.1616C158.62 94.0111 158.34 93.8607 158.2 94.0111C155.96 96.5682 153.3 98.9749 146.86 100.78C148.68 99.5766 150.22 98.0724 151.48 96.2674C151.62 96.117 151.34 95.9666 151.2 95.9666C149.1 97.3203 147.14 98.8245 145.04 100.028C143.64 100.78 141.96 101.081 140.56 101.532C138.88 101.532 137.2 101.382 135.66 100.93C147 99.727 148.4 91.7549 147.7 92.6574C142.24 99.5766 134.96 98.8245 132.02 99.5766C131.32 99.1253 130.76 98.6741 130.34 98.0724C135.66 98.3732 140.28 95.6657 144.06 91.6045C144.2 91.454 144.06 91.1532 143.92 91.3036C140.84 92.6574 138.88 97.0195 129.5 96.5682C128.1 92.8078 130.76 89.0473 133.56 86.3398C135.24 84.6852 136.92 84.6852 139.02 84.5348C139.86 84.5348 138.6 82.7298 136.64 82.8802C138.88 74.6072 146.58 70.6964 152.32 72.2006C155.26 72.9526 157.22 75.6602 159.04 78.0668C159.46 78.6685 160.3 78.2173 160.44 77.6156C162.26 75.2089 164.08 74.0056 167.3 73.7047C172.62 73.1031 173.88 75.6602 175.84 77.6156C175.42 78.6685 175.14 79.7214 175.14 80.9248C175.14 81.2256 175.56 81.2256 175.56 80.9248C175.98 79.8719 176.4 78.9694 176.96 78.0668C177.1 77.9164 177.24 77.766 177.24 77.6156C181.44 71.298 189.98 68.7409 196 73.8551C196 74.0056 196 74.156 196 74.156C196 74.4568 196.42 74.4568 196.42 74.156C196.42 74.0056 196.42 74.0056 196.56 73.8551C196.98 73.8551 197.4 73.2535 196.98 72.6518C199.92 66.0334 209.3 63.0251 216.16 65.1309C219.24 66.1838 220.78 68.8914 222.74 71.4485C222.6 71.8997 223.02 72.351 223.3 72.2006C223.58 72.351 224 72.0501 224 71.7493C224 71.5989 224 71.5989 224 71.4485C227.36 67.688 231.42 67.9889 236.04 69.7939C240.52 71.7493 244.44 75.2089 246.82 79.7214C247.1 80.1727 247.8 80.0223 247.8 79.571C252.98 77.9164 258.44 80.4735 259.56 86.3398C257.6 87.2423 255.92 88.2953 254.52 89.3482C254.24 89.4986 254.38 89.9499 254.8 89.9499C260.4 88.1448 266.98 83.7827 272.3 88.5961C273.7 90.2507 275.52 93.1086 274.96 95.6657ZM131.46 82.8802C129.64 86.1894 126.14 87.9944 125.72 88.5961C124.74 88.5961 123.9 88.4457 122.92 88.2953C129.92 83.7827 129.92 78.9694 129.5 79.8719C127.68 83.9331 124.18 86.1894 120.68 87.9944C120.12 87.844 119.42 87.6936 118.86 87.5432C124.04 84.5348 126.7 77.1643 126 78.2173C120.96 85.2869 119.84 85.4373 117.04 86.9415C116.2 86.6407 115.36 86.3398 114.66 86.039C118.44 83.9331 119.14 80.4735 118.72 81.2256C117.18 83.3315 115.36 84.5348 113.4 85.4373C112.84 85.1365 112.28 84.8356 111.58 84.0836C111.58 83.7827 111.3 83.3315 111.02 83.1811C110.6 82.429 110.46 81.5265 110.32 80.1727C110.32 80.0223 110.18 80.0223 110.18 80.0223C109.34 81.2256 109.48 82.2785 110.04 83.3315C105.28 85.7382 101.64 87.3927 95.9 87.6936C98.56 86.1894 100.94 83.4819 102.48 81.0752C102.62 80.9248 102.34 80.6239 102.2 80.7744C96.88 86.1894 95.06 86.1894 91 87.3927C89.32 87.2423 88.34 86.9415 87.5 86.7911C96.74 84.234 98.56 77.1643 98 77.766C94.64 81.6769 90.16 85.4373 84.84 85.7382C83.72 85.2869 82.6001 84.5348 81.48 83.7827C87.22 83.7827 94.9201 77.3148 93.5201 78.0668C85.5401 82.2785 82.1801 81.8273 79.66 82.1281C79.2401 81.6769 78.82 81.0752 78.4 80.4735C89.6 80.0223 92.4 72.351 91.14 73.7047C87.78 77.766 82.4601 78.5181 77.5601 78.9694C76.44 76.5627 77.2801 75.0585 79.3801 73.5543C79.66 73.4039 79.5201 72.9526 79.1001 72.9526C76.72 73.7047 75.6001 75.5097 75.6001 77.6156C70 80.0223 58.8 87.5432 48.3001 83.6323C52.5 83.181 56.84 79.7214 58.94 76.4122C59.08 76.2618 58.8001 76.1114 58.6601 76.1114C51.3801 82.5794 50.4001 81.0752 45.5001 82.429C44.8001 82.1281 44.1001 81.6769 43.4001 81.376C46.6201 81.0752 52.7801 78.8189 55.1601 73.7047C55.1601 73.7047 55.1601 73.5543 55.1601 73.7047C47.7401 80.4735 45.6401 78.9694 40.7401 80.1727C40.0401 79.8719 39.2001 79.4206 38.5001 79.1198C41.5801 78.3677 44.5201 75.961 46.6201 74.156C46.7601 74.0056 46.62 73.7047 46.34 73.8551C44.2401 74.9081 42.2801 75.961 40.0401 76.8635C38.0801 77.6156 36.1201 77.4652 34.0201 77.766C31.3601 77.3148 28.7001 77.4652 25.7601 78.6685C19.6001 81.2256 9.52006 89.649 3.78006 81.2256C0.840058 76.8635 6.58006 72.5014 9.80006 70.8468C13.0201 69.0418 17.5001 67.688 20.8601 69.6434C20.5801 70.546 20.4401 71.4485 20.4401 72.351C20.4401 72.9526 21.1401 72.9526 21.4201 72.5014C23.5201 67.2368 26.1801 61.6713 36.4001 57.7604C41.0201 55.9554 46.3401 55.3538 51.3801 56.5571C53.6201 57.1588 55.5801 58.5125 57.68 59.2646C58.2401 59.415 58.66 58.6629 58.24 58.2117C57.26 57.1588 55.8601 56.2563 54.4601 55.6546C53.6201 52.6462 54.7401 50.39 57.12 48.1337C58.3801 46.9304 60.06 46.0278 61.74 45.727C63.42 45.4262 64.6801 46.0278 66.08 46.4791C65.8 47.8329 65.66 49.1866 65.8 50.6908C65.8 51.2925 66.6401 51.2925 66.7801 50.6908C68.1801 34.1448 89.4601 26.1727 100.66 32.4902C100.66 32.4902 100.8 32.4902 100.8 32.6407C100.94 32.9415 101.08 33.2423 101.22 33.5432C101.36 33.844 101.92 33.6936 101.78 33.2423C101.64 32.9415 101.64 32.4902 101.5 32.1894C101.64 31.8886 101.5 31.5877 101.36 31.4373C99.4 16.546 120.82 -5.11421 140.84 6.31754C139.02 7.52089 139.02 8.12256 134.26 9.92757C130.76 11.2813 126.84 12.0334 123.06 11.4318C122.92 11.4318 122.92 11.5822 123.06 11.5822C128.94 13.9889 137.48 11.7326 142.1 7.22005C143.36 7.97214 144.48 9.02507 145.6 9.92757C142.1 13.9889 137.2 15.6434 132.16 16.3955V16.546C137.06 17.5989 143.36 15.1922 146.58 10.9805C147.56 12.0334 148.4 13.2368 149.1 14.4401C147.28 15.7939 146.72 16.9972 141.82 19.1031C138.74 20.3064 135.52 20.7577 132.3 21.2089C132.16 21.2089 132.16 21.3593 132.3 21.5097C137.9 22.5627 147 19.5543 149.66 15.6434C150.08 16.546 150.64 17.5989 150.92 18.6518C145.04 23.6156 142.8 22.2618 138.04 24.5181C137.76 24.6685 138.04 24.9694 138.18 24.9694C142.52 24.0668 148.12 23.766 151.48 20.156C151.62 20.7577 151.76 21.2089 151.9 21.8106C152.18 22.7131 153.3 22.4123 153.3 21.3593C153.16 20.3064 153.02 19.4039 152.74 18.5014C152.74 18.351 152.74 18.351 152.74 18.2006C155.82 13.688 163.94 16.0947 168.42 19.1031C164.92 21.3593 163.52 23.6156 156.8 24.9694C156.66 24.9694 156.66 25.2702 156.8 25.4206C161.14 26.1727 166.6 23.4652 169.54 20.0056C170.66 20.9081 171.5 21.8106 172.34 22.8635C170.24 24.5181 168.28 26.4735 165.76 27.6769C162.4 29.3315 158.62 30.234 154.98 30.3844C154.84 30.3844 154.84 30.6852 154.98 30.6852C160.86 31.1365 169.26 29.6323 173.04 24.0668C173.74 25.2702 174.3 26.7744 174.3 27.5265C168.56 31.4373 162.82 34.7465 155.82 34.7465C155.54 34.7465 155.54 35.0473 155.82 35.1978C162.12 36.4011 169.26 33.844 174.44 29.6323C174.44 33.3928 176.4 30.9861 175.98 28.1281C175.98 27.9777 175.98 27.8273 175.98 27.8273C181.58 25.571 186.76 27.376 189.56 32.1894C190.54 33.844 190.54 35.4986 190.96 37.3036C185.64 36.2507 179.48 37.7549 177.24 43.6212C177.1 43.922 177.52 44.3732 177.8 44.0724C184.24 35.4986 194.74 37.7549 200.34 44.9749C203 48.2841 202.86 51.8941 202.58 55.9554C199.64 55.9554 196.56 57.0084 194.04 58.6629C193.76 58.8134 193.9 59.2646 194.18 59.1142C198.38 57.3092 204.12 56.4067 208.18 58.5125C206.64 58.9638 205.1 59.5655 203.42 59.8663C201.6 60.1671 199.64 60.3175 197.68 60.7688C196.14 61.0696 204.68 62.5738 209.3 59.2646C210.14 59.8663 210.7 60.6184 211.12 61.5209C205.8 62.8746 200.34 64.5292 194.74 63.9276C194.6 63.9276 194.6 64.078 194.74 64.078C197.26 64.8301 199.78 64.9805 202.44 64.6797C201.18 65.2813 200.06 66.0334 198.94 66.9359C197.96 66.7855 196.98 66.9359 196 67.0863C192.78 67.2368 190.4 66.7855 191.1 67.0863C192.5 67.8384 194.46 68.4401 197.54 68.4401C196.7 69.493 196 70.8468 195.58 72.2006C190.4 67.2368 179.76 68.4401 175.7 76.2618C173.04 72.9526 169.96 71.5989 165.76 72.351C163.94 72.6518 160.02 73.8551 159.04 76.2618C150.08 63.0251 134.26 74.3064 134.68 83.3315C132.44 84.234 129.78 86.6407 128.38 88.7465C127.82 88.7465 127.4 88.7465 126.98 88.7465C129.22 86.9415 130.48 84.9861 131.18 83.0306C131.74 82.8802 131.6 82.7298 131.46 82.8802Z" fill="#F2F2F2"/>
</svg>
