<svg width="224" height="307" viewBox="0 0 224 307" fill="none" xmlns="http://www.w3.org/2000/svg">
<g clip-path="url(#clip0)">
<path fill-rule="evenodd" clip-rule="evenodd" d="M137.483 190.33C135.672 191.906 133.569 190.749 131.611 190.959C128.564 192.076 127.935 191.749 127.383 188.45C127.236 187.084 125.845 187.036 124.979 186.339C124.091 185.446 122.638 184.812 123.491 183.536C124.148 182.281 125.427 183.131 126.468 183.612C128.118 184.225 129.963 184.817 131.766 185.018C134.611 185.701 137.456 186.383 138.84 182.68C139.015 182.464 139.386 182.226 139.581 182.205C143.699 179.987 144.16 178.752 142.7 174.367C142.337 172.826 141.407 171.543 140.695 170.435C139.765 169.152 138.815 167.674 140.234 166.139C140.975 165.665 141.954 165.56 142.625 166.278C142.492 166.885 142.338 167.296 142.967 167.624C147.153 169.742 149.767 173.806 153.429 176.573C154.925 177.598 153.464 178.742 153.177 179.76C153.848 180.478 154.589 180.004 155.393 180.115C155.63 180.485 156.084 181.028 156.539 181.572C154.686 182.758 152.855 184.139 150.764 184.956C149.261 185.709 147.283 185.724 145.634 185.111C144.809 184.805 143.984 184.498 143.264 185.168C141.475 186.939 139.014 187.993 137.483 190.33Z" fill="white"/>
<path fill-rule="evenodd" clip-rule="evenodd" d="M205.201 183.068C205.635 183.417 205.872 183.786 206.305 184.135C209.555 186.749 211.121 186.581 213.114 183.01C216.343 185.428 215.385 185.729 213.609 189.474C216.342 190.958 219.34 191.229 222.472 190.893C223.059 190.83 223.842 190.746 224.45 190.879C225.037 190.816 225.47 191.164 225.729 191.729C225.987 192.293 225.638 192.726 225.092 193.179C222.562 195.426 220.01 197.476 216.341 196.488C215.928 196.334 215.558 196.572 214.95 196.439C213.167 196.433 213.146 196.238 214.174 194.745C214.349 194.529 214.719 194.292 214.461 193.727C213.398 193.051 212.504 193.937 211.784 194.606C210.714 195.709 209.365 196.051 207.932 195.612C206.912 195.326 205.933 195.431 204.954 195.536C203.78 195.662 202.543 195.202 201.697 194.701C201.418 193.941 201.984 193.682 202.355 193.445C205.165 191.959 205.165 191.959 203.872 189.135C203.593 188.375 203.334 187.811 203.055 187.051C202.6 186.507 202.104 185.573 202.67 185.315C204.02 184.972 204.069 183.585 205.201 183.068Z" fill="white"/>
<path fill-rule="evenodd" clip-rule="evenodd" d="M150.666 187.731C152.539 186.74 154.021 185.792 155.049 184.299C155.923 183.218 157.643 182.639 159.467 183.035C161.291 183.432 163.381 182.616 165.115 184.01C166.394 184.86 166.415 185.055 165.128 185.983C160.745 189.415 155.922 188.747 150.666 187.731Z" fill="white"/>
<path fill-rule="evenodd" clip-rule="evenodd" d="M151.874 195.303C151.678 195.324 151.483 195.345 151.287 195.366C150.546 195.841 149.567 195.946 148.743 195.639C146.66 194.678 144.22 195.927 141.788 195.398C142.445 194.142 143.619 194.016 144.556 193.521C146.234 192.551 145.584 192.028 144.326 191.373C144.654 190.746 145.416 190.466 146.024 190.599C148.827 190.891 151.609 190.987 154.307 190.303C156.244 189.898 156.264 190.093 155.887 192.108C155.775 192.91 156.012 193.28 156.467 193.824C156.9 194.172 157.529 194.5 157.438 195.497C156.089 195.839 155.026 195.163 153.81 194.898C153.615 194.919 153.419 194.94 153.223 194.961C152.615 194.829 152.224 194.871 151.874 195.303Z" fill="white"/>
<path fill-rule="evenodd" clip-rule="evenodd" d="M163.672 139.34C163.093 139.601 162.369 139.926 161.79 140.187C161.565 140.461 161.276 140.592 161.001 140.368C155.936 134.138 151.305 127.712 148.282 120.217C146.933 116.83 145.294 113.573 143.865 110.396C142.761 107.941 142.091 105.29 142.21 102.459C142.149 98.8398 142.377 95.0907 141.607 91.4434C141.132 89.2262 140.273 87.7027 137.647 87.6684C136.294 87.7561 135.035 87.2803 133.842 86.9489C131.6 86.2209 129.538 86.2802 127.446 87.0474C126.577 87.4381 125.499 87.7495 124.754 86.8688C123.945 85.8436 124.974 85.0339 125.358 84.3401C127.054 81.1462 128.621 77.6633 132.111 75.7466C133.204 75.0813 132.959 74.1496 132.215 73.2689C130.791 71.6519 128.904 70.9381 127.081 70.3688C122.871 69.1367 119.191 67.1457 116.568 63.637C113.851 60.6918 113.371 56.9143 112.166 53.4624C111.726 52.0975 112.205 50.8403 113.653 50.1891C115.665 49.6315 117.263 50.4754 118.941 51.1099C123.49 52.7102 128.424 53.6168 132.559 56.6187C133.043 56.9217 133.817 57.0945 134.077 57.6722C135.746 60.2209 138.407 61.1074 140.989 62.2035C143.361 63.2203 145.284 64.7864 147.047 66.7715C147.387 67.1397 147.726 67.5078 148.001 67.7316C148.211 67.8109 148.34 68.0997 148.55 68.179C148.89 68.5472 149.309 68.7058 149.729 68.8644C153.669 71.4331 157.879 72.6652 162.727 72.2211C164.369 72.0032 165.902 72.7027 167.53 72.8388C167.84 73.9148 167.181 74.3849 166.457 74.7104C164.286 75.6872 162.454 77.032 160.217 77.8644C157.177 79.2318 155.77 82.2955 157.069 85.184C158.693 88.7945 158.254 92.4643 158.525 96.1625C158.711 98.51 158.107 101.039 158.503 103.465C158.618 104.108 158.733 104.751 159.217 105.054C161.53 107.487 162.04 110.556 162.905 113.64C162.816 115.764 163.87 117.72 164.794 119.388C165.653 120.912 166.093 122.277 165.519 124.098C164.961 125.564 165.755 126.943 165.616 128.569C165.332 130.259 165.467 132.108 165.682 133.748C165.094 135.923 164.665 137.678 163.672 139.34Z" fill="white"/>
<path fill-rule="evenodd" clip-rule="evenodd" d="M186.324 262.06C185.231 261.504 184.035 261.363 182.867 261.488C182.386 261.135 181.845 261.597 181.364 261.245C179.584 261.166 177.907 260.673 176.348 259.897C175.254 259.341 174.058 259.2 172.976 260.124C169.979 262.466 166.604 264.04 163.258 265.88C162.002 266.554 160.774 267.493 159.838 268.402C159.443 268.848 158.902 269.311 158.143 269.122C157.371 268.801 157.285 268.002 157.505 267.305C158.035 265.363 157.675 263.381 158.365 261.556C158.586 260.859 158.952 260.146 159.333 259.567C161.4 255.439 161.126 254.256 156.96 251.201C154.09 249.219 151.088 247.386 147.734 246.399C144.205 245.161 141.993 242.435 138.992 240.601C134.957 237.397 131.463 233.731 128.233 229.768C126.954 227.48 126.961 224.786 125.258 222.679C124.4 221.559 125.688 219.804 124.392 218.731C123.708 217.861 122.658 217.705 121.608 217.548C120.411 217.407 119.201 217.132 119.218 215.918C119.104 214.853 120.375 214.313 121.222 213.953C123.778 213.005 126.096 213.969 128.151 215.23C132.844 217.69 137.537 220.15 141.732 223.471C144.324 225.618 146.931 227.897 148.982 230.506C149.884 232.026 151.312 232.95 153.017 233.71C157.026 235.3 160.89 236.906 164.401 239.358C167.271 241.34 170.625 242.328 173.627 244.161C175.04 244.952 177.29 243.903 179.027 243.582C179.889 243.355 180.736 242.994 181.423 242.517C181.701 242.352 181.964 242.055 182.388 241.874C183.644 241.201 184.695 241.358 185.553 242.478C186.251 243.481 185.767 244.475 184.803 245.117C184.525 245.282 184.408 245.564 184.144 245.861C182.532 248.728 182.532 248.728 185.755 249.864C186.061 249.966 186.367 250.068 186.673 250.17C188.642 250.632 190.743 250.946 192.74 251.674C193.046 251.776 193.192 251.76 193.353 251.878C195.963 252.81 198.764 252.779 201.435 252.897C203.069 252.991 204.863 253.203 205.779 254.856C206.01 255.639 205.323 256.117 205.089 256.681C204.533 257.009 204.43 257.425 204.035 257.871C201.765 261.482 198.041 262.554 193.765 262.609C192.437 262.617 191.255 262.609 189.941 262.75C188.482 262.906 187.343 263.298 186.324 262.06Z" fill="white"/>
<path fill-rule="evenodd" clip-rule="evenodd" d="M178.554 156.106C178.358 156.127 178.162 156.148 177.967 156.169C177.617 156.601 177.009 156.469 176.659 156.902C176.31 157.334 175.702 157.202 175.352 157.634C175.177 157.85 175.003 158.067 174.632 158.304C174.436 158.325 174.241 158.346 174.045 158.367C173.87 158.583 173.695 158.799 173.521 159.016C172.255 160.139 171.123 160.655 169.606 159.435C167.153 158.711 164.651 159.374 162.393 158.629C163.267 157.548 164.875 157.77 165.532 156.515C164.232 155.469 163.183 156.767 161.988 156.697C163.973 154.905 169.761 153.494 172.389 154.002C173.822 154.441 174.996 154.315 176.304 153.583C176.499 153.562 176.695 153.541 176.891 153.52C177.324 153.868 177.89 153.61 178.324 153.958C178.54 154.133 178.757 154.307 178.974 154.481C179.19 154.655 179.19 154.655 179.211 154.851C179.232 155.046 179.232 155.046 179.036 155.067C179.099 155.653 178.729 155.89 178.554 156.106Z" fill="white"/>
<path fill-rule="evenodd" clip-rule="evenodd" d="M149.98 196.099C149.392 196.162 148.98 196.009 148.547 195.66C149.33 195.576 150.308 195.471 151.091 195.387" fill="white"/>
<path fill-rule="evenodd" clip-rule="evenodd" d="M56.0157 269.182C55.8381 269.039 55.3395 268.93 55.3223 268.77C54.3371 265.638 53.6729 262.47 55.4501 259.365C56.0061 258.496 56.2069 257.341 56.763 256.472C57.1757 255.78 56.9466 255.157 56.557 254.551C55.4053 252.893 54.7634 252.962 53.8118 254.683C53.399 255.375 53.1639 256.21 52.3959 256.616C52.2526 256.794 52.1093 256.971 51.966 257.148C51.2666 258.195 50.5672 259.241 49.6902 260.145C49.2431 260.517 48.4751 260.923 48.5154 259.785C48.6587 259.608 48.802 259.43 48.9453 259.253C49.0886 259.076 49.2148 258.739 49.1976 258.578C49.1804 258.418 49.3409 258.401 49.3237 258.241C49.7365 257.549 49.6507 256.749 49.5649 255.948C48.8148 251.981 50.9816 249.482 54.0022 247.377C58.7365 244.602 63.3791 242.485 69.0583 243.981C72.0669 244.792 75.351 243.63 78.297 242.343C79.0651 241.937 79.8159 241.37 80.7959 241.427C83.6441 242.255 83.8904 243.038 82.2051 245.486C79.0866 249.706 78.9261 249.724 81.9915 254.09C83.888 256.64 85.1598 259.418 86.1279 262.391C87.0324 267.799 90.4187 272.131 93.6274 276.321C93.9998 276.767 94.3723 277.213 94.5671 277.516C97.2943 281.757 98.9497 286.599 100.909 291.246C101.316 292.012 101.241 292.83 101.166 293.647C101.321 295.088 101.475 296.529 101.934 297.775C102.128 298.078 101.859 298.593 101.378 298.644C101.217 298.661 100.879 298.536 100.684 298.233C100.489 297.93 100.295 297.627 100.26 297.307C99.3437 294.814 97.3554 292.923 96.1179 290.465C95.9231 290.162 95.694 289.539 95.2126 289.59C92.1636 289.917 90.6052 287.494 88.4907 285.939C87.442 285.242 86.5367 284.368 85.3447 283.848C84.8118 283.419 84.5826 282.796 83.9236 282.705C81.2359 281.86 79.1214 280.305 77.4025 277.899C75.2768 274.726 72.0793 272.155 70.5612 268.593C69.9082 267.044 70.3784 265.375 69.582 264.003C69.0036 261.636 68.826 261.493 66.86 262.837C64.894 264.182 62.6989 264.903 60.4866 265.464C58.7386 265.813 57.254 267.106 56.0157 269.182Z" fill="white"/>
<path fill-rule="evenodd" clip-rule="evenodd" d="M126.357 141.955C126.748 141.913 127.335 141.85 127.748 142.003C129.18 142.442 129.46 143.202 128.194 144.325C127.845 144.758 127.041 144.646 127.125 145.427C127.425 146.382 129.033 146.605 129.179 147.972C129.389 149.924 129.039 150.357 127.082 150.566C126.495 150.629 126.103 150.671 125.516 150.734C123.203 147.625 119.967 146.985 116.227 147.188C115.249 147.293 114.075 147.419 112.9 147.545C112.313 147.608 111.705 147.476 111.642 146.89C111.579 146.304 112.146 146.046 112.712 145.788C113.669 145.488 114.865 145.557 115.78 144.866C116.892 144.155 117.416 143.506 116.662 142.007C115.886 140.313 114.153 138.919 114.88 136.471C115.167 135.453 112.93 134.903 112.959 133.32C113.916 133.02 114.412 133.954 115.02 134.086C115.384 135.627 116.796 135.871 117.858 136.547C120.178 137.878 122.632 138.602 123.903 141.231C124.204 142.186 125.399 142.255 126.357 141.955Z" fill="white"/>
<path fill-rule="evenodd" clip-rule="evenodd" d="M100.055 179.137C99.1879 178.44 98.2303 178.74 97.2307 178.65C96.0355 178.581 95.015 178.295 93.3865 177.877C94.6309 176.559 96.3013 177.367 96.9586 176.112C97.5949 174.661 98.7273 174.145 100.076 173.803C102.837 173.704 105.731 172.999 108.555 173.486C109.163 173.618 109.946 173.534 110.226 174.294C110.505 175.054 109.743 175.334 109.177 175.592C108.806 175.829 108.24 176.087 107.891 176.52C105.793 179.114 103.116 179.994 100.055 179.137Z" fill="white"/>
<path fill-rule="evenodd" clip-rule="evenodd" d="M77.0836 173.675C79.8239 177.699 81.9936 181.785 86.0079 184.233C87.0881 183.542 86.7723 183.288 86.7112 182.718C86.3649 182.18 85.4174 181.418 86.4976 180.726C87.323 180.35 87.9852 181.142 88.3316 181.681C88.7695 183.073 88.9526 184.781 90.756 185.451C92.3657 187.006 90.3884 190.097 93.6794 191.183C94.5964 191.661 93.6078 193.206 92.7823 193.583C90.5303 194.112 88.6857 195.749 86.5253 197.133C84.905 198.17 83.2541 198.923 81.4812 198.537C77.0489 197.573 72.3923 197.209 67.1345 196.621C68.6328 194.445 70.7215 195.085 72.0871 194.363C74.3086 193.549 75.6131 192.257 75.0531 189.726C74.371 186.057 74.7692 181.696 73.1701 177.549C72.3859 175.618 72.4575 173.595 72.5292 171.572C72.4071 170.434 73.2021 169.773 74.058 169.681C75.036 170.728 75.535 172.689 77.0836 173.675Z" fill="white"/>
<path fill-rule="evenodd" clip-rule="evenodd" d="M13.9504 201.404C15.9986 200.197 15.9986 200.197 14.2863 198.998C12.7697 197.778 10.3583 197.444 9.54088 195.36C10.0443 194.516 10.6943 195.039 11.3023 195.171C11.9314 195.498 12.5813 196.021 13.3851 196.133C16.4674 197.184 19.7873 198.606 22.3463 194.777C23.374 193.284 25.4223 192.077 26.8624 190.738C27.7782 190.047 28.4072 190.375 28.5328 191.546C28.6375 192.522 28.3298 193.345 27.8054 193.994C26.9106 194.88 26.0158 195.766 25.4705 196.219C26.0713 198.129 27.6161 197.766 27.7626 199.133C25.4067 201.163 23.1136 203.779 19.5279 203.571C18.857 202.853 17.8784 202.958 17.1164 203.237C15.7673 203.579 14.3555 203.335 12.9226 202.896C12.6222 201.941 13.4051 201.857 13.9504 201.404Z" fill="white"/>
<path fill-rule="evenodd" clip-rule="evenodd" d="M54.1835 201.829C53.0302 202.15 52.1144 202.841 50.7234 202.793C50.1363 202.856 49.5491 202.919 49.2906 202.354C49.0321 201.789 49.3816 201.357 49.7312 200.924C50.0808 200.492 50.8427 200.213 50.7589 199.432C50.0671 198.518 49.3261 198.993 48.7599 199.251C47.0403 199.83 45.5583 200.779 43.7759 200.773C43.1888 200.836 42.6016 200.899 42.3431 200.334C42.1055 199.965 42.4551 199.532 42.8256 199.295C45.8806 196.4 49.4527 194.635 53.5837 194.389C55.1494 194.221 56.6524 193.468 58.2391 193.495C60.5385 194.631 60.3219 194.457 59.3569 196.535C58.4129 198.808 56.4275 200.601 54.1835 201.829Z" fill="white"/>
<path fill-rule="evenodd" clip-rule="evenodd" d="M49.421 175.877C47.1425 174.937 44.8567 175.774 42.4872 175.831C41.9 175.894 41.5295 176.131 40.9424 176.194C40.5509 176.236 39.9638 176.299 39.901 175.713C39.8382 175.128 40.013 174.911 40.3835 174.674C41.495 173.963 42.6274 173.446 43.9974 173.299C44.7803 173.215 45.7798 173.306 46.2832 172.462C46.9687 169.623 46.9687 169.623 43.7817 167.595C47.1089 167.239 49.5067 165.599 52.5681 166.456C53.5886 166.741 54.2176 167.069 53.5394 168.129C52.8821 169.384 53.7278 169.886 54.923 169.955C55.5311 170.088 56.314 170.004 56.9221 170.136C57.5302 170.268 58.1592 170.596 58.243 171.377C58.3058 171.962 57.7395 172.221 57.1733 172.479C56.4114 172.758 55.6494 173.037 55.3208 173.665C53.7268 175.416 51.7906 175.821 49.421 175.877Z" fill="white"/>
<path fill-rule="evenodd" clip-rule="evenodd" d="M33.2232 150.362C34.0343 148.695 35.8376 148.897 36.9072 147.794C35.9569 146.317 34.657 145.271 34.0771 143.556C33.3225 142.057 31.8059 140.837 32.5333 138.389C35.4335 141.436 39.103 142.425 42.1152 144.669C43.1984 145.54 44.2189 145.826 45.3723 145.504C45.9594 145.441 46.7423 145.358 47.3294 145.295C48.1123 145.211 49.2866 145.085 49.587 146.04C49.8874 146.995 48.6922 146.926 48.1678 147.574C44.9171 150.49 41.3031 151.865 36.8089 150.57C35.9632 150.068 34.656 150.801 33.2232 150.362Z" fill="white"/>
<path fill-rule="evenodd" clip-rule="evenodd" d="M22.6588 166.306C26.1818 165.928 29.4671 165.181 33.0319 165.194C33.6818 165.716 33.1784 166.56 34.0241 167.062C34.2826 167.627 34.8698 167.564 35.4569 167.501C36.827 167.354 38.0013 167.228 39.3221 168.469C37.5324 170.24 35.7218 171.817 33.4569 172.85C32.695 173.129 31.9121 173.213 31.304 173.081C28.4593 172.398 25.6355 171.911 22.6788 172.031C22.3575 170.88 23.357 170.971 23.9232 170.712C24.7061 170.628 25.6847 170.523 26.4466 170.244C27.0338 170.181 27.5581 169.533 27.691 168.926C27.803 168.124 27.174 167.796 26.5659 167.664C25.5245 167.183 24.3502 167.309 23.4135 167.805C22.6515 168.084 21.9105 168.558 20.8482 167.882C20.9392 166.885 22.3721 167.324 22.6588 166.306Z" fill="white"/>
</g>
<defs>
<clipPath id="clip0">
<rect width="209" height="285" fill="white" transform="translate(0.402466 22.9539) rotate(-6.12043)"/>
</clipPath>
</defs>
</svg>
