<svg width="454" height="198" viewBox="0 0 454 198" fill="none" xmlns="http://www.w3.org/2000/svg">
<g clip-path="url(#clip0)">
<path fill-rule="evenodd" clip-rule="evenodd" d="M267.716 169.814C266.808 170.951 265.9 171.86 265.219 172.997C263.63 175.952 262.268 178.68 265.673 181.408C264.311 182.544 262.268 182.09 261.814 183.908C261.814 184.59 262.495 184.818 263.176 185.045C263.63 185.272 264.538 185.272 264.992 185.954C264.992 186.864 264.311 187.091 263.63 187.318C260.452 189.364 260.225 189.364 260.906 193.229C261.133 194.82 261.133 195.957 259.09 196.184C258.636 196.184 257.955 196.411 257.501 196.639C256.139 197.321 256.139 198.23 257.274 199.139C260.906 201.412 264.765 203.004 269.305 201.185C269.532 201.185 269.759 201.185 270.213 201.185C270.894 200.503 272.029 201.185 272.71 200.276C274.072 198.685 276.115 200.048 277.704 198.912C277.023 197.321 275.661 197.775 274.526 197.775C272.937 197.548 271.575 197.093 271.348 195.502C271.121 193.911 272.029 192.547 273.845 192.092C275.434 191.637 277.023 191.183 278.612 190.728C279.066 190.501 279.52 190.046 279.52 189.592C279.52 188.91 278.839 188.91 278.385 188.682C277.477 188.455 276.569 189.137 275.661 187.773C277.704 186.182 281.109 187.773 282.471 184.818C282.471 184.59 282.244 184.363 282.017 184.363C277.704 182.772 277.704 182.772 278.839 177.998C279.747 174.815 280.428 171.633 282.244 168.678C282.698 168.223 282.925 167.314 282.925 166.859C282.925 165.95 282.471 165.495 281.563 165.95C280.655 166.404 280.201 167.086 279.52 167.768C277.25 170.042 275.207 172.315 272.483 174.133C271.575 174.588 270.894 175.27 269.986 174.815C268.851 174.361 267.035 174.133 268.624 172.087C269.532 171.406 269.532 170.269 267.716 169.814Z" fill="white"/>
<path fill-rule="evenodd" clip-rule="evenodd" d="M271.121 155.72C265.673 160.039 265.673 160.039 262.722 153.901C261.814 152.083 260.452 150.492 260.225 148.446C259.998 146.4 258.409 146.854 257.047 147.536C256.366 147.764 255.912 148.446 255.912 149.128C255.912 149.582 256.139 149.81 256.366 150.037C255.912 154.356 256.139 158.448 258.636 162.085C258.409 162.54 258.182 162.994 257.955 162.994C257.047 163.676 255.231 163.222 255.004 164.813C255.004 166.177 256.593 165.95 257.501 166.632C260.225 169.132 263.63 168.223 267.035 168.223C267.489 167.768 268.17 167.996 268.624 167.541C269.532 167.541 270.213 167.541 271.121 167.541C272.029 166.632 273.618 167.541 274.526 166.632C274.753 166.404 274.753 166.177 274.753 166.177C274.753 165.95 274.526 165.95 274.526 165.95C273.845 164.813 272.937 164.358 271.575 164.586C270.894 164.813 269.305 165.495 269.532 163.449C269.759 163.222 269.986 162.994 270.44 162.54C270.667 162.313 270.894 161.858 271.348 161.631C271.348 161.403 271.348 161.176 271.348 160.949C271.575 160.721 271.802 160.267 272.029 160.039C272.029 159.812 272.029 159.585 272.029 159.357C272.256 159.13 272.483 158.903 272.937 158.448C273.164 158.221 273.391 157.766 273.845 157.539C273.845 157.311 273.845 157.084 273.845 156.629C274.072 156.402 274.299 156.175 274.526 155.72C274.526 155.038 274.753 153.901 273.845 153.674C272.937 153.447 272.483 154.356 272.029 154.811C271.575 155.265 271.348 155.493 271.121 155.72Z" fill="white"/>
<path fill-rule="evenodd" clip-rule="evenodd" d="M49.1149 173.224C49.7959 174.588 51.1579 175.27 52.2929 176.179C53.4279 177.089 55.0169 177.543 55.6979 178.907C55.9249 179.135 56.3789 179.362 56.6059 179.817C56.8329 179.817 57.0599 179.817 57.5139 179.817C57.7409 180.044 57.9679 180.271 58.4219 180.499C65.9129 180.044 66.3669 179.817 69.3179 177.998C68.8639 176.861 67.2749 177.543 66.5939 176.407C65.6859 174.815 67.2749 174.815 67.9559 174.588C70.2259 173.451 72.0419 171.86 73.8579 168.905C69.9989 170.042 67.7289 173.224 64.0969 172.997C63.8699 172.997 63.6429 172.997 63.1889 172.997C60.6919 172.997 58.4219 175.043 55.6979 173.906C54.5629 173.906 53.4279 173.906 53.2009 172.315C51.6119 171.178 50.2499 171.86 49.1149 173.224Z" fill="white"/>
<path fill-rule="evenodd" clip-rule="evenodd" d="M47.5259 183.226C47.7529 183.226 47.9799 183.226 48.2069 183.226C48.4339 182.999 48.8879 182.772 49.1149 182.317C48.8879 180.271 47.7529 181.181 46.6179 181.408C43.4399 182.317 40.0349 183.226 36.6299 182.317C35.7219 182.317 34.5869 182.317 33.9059 182.544C33.2249 182.772 32.7709 183.454 33.4519 184.136C35.2679 185.5 34.3599 186.182 33.2249 187.091C32.5439 187.546 32.0899 188.228 32.3169 189.137C32.5439 189.364 32.5439 189.364 32.7709 189.364C36.4029 188 40.0349 188 43.8939 187.546C45.7099 187.318 47.7529 187.091 49.5689 187.091C50.9309 187.091 52.2929 187.546 53.4279 186.182C53.2009 185.954 52.9739 185.5 52.5199 185.272C52.2929 185.272 52.0659 185.272 51.8389 185.272C51.1579 184.59 50.0229 185.272 49.3419 184.363C49.1149 184.363 48.8879 184.363 48.6609 184.363C47.9799 184.363 47.0719 184.136 47.5259 183.226Z" fill="white"/>
<path fill-rule="evenodd" clip-rule="evenodd" d="M35.0409 179.817C36.4029 179.362 37.9919 179.135 40.0349 178.453C37.5379 177.089 35.2679 176.179 33.9059 174.361C33.2249 173.679 31.4089 173.224 30.5009 173.451C27.3229 174.133 23.9179 173.224 21.1939 175.497C20.5129 176.634 20.9669 177.543 22.1019 177.998C25.7339 179.589 29.1389 181.635 33.2249 179.589C33.6789 179.589 34.5869 179.817 35.0409 179.817Z" fill="white"/>
<path fill-rule="evenodd" clip-rule="evenodd" d="M134.467 146.627C134.24 144.809 133.105 144.809 132.197 145.945C130.835 147.991 129.7 150.264 128.338 152.31C126.749 154.584 126.068 157.311 123.798 159.13C122.89 160.039 121.301 158.675 120.393 160.039C119.712 160.494 119.258 161.403 119.712 162.313C120.847 164.586 119.485 165.722 117.442 166.859C119.939 169.132 122.89 170.269 125.387 171.86C125.614 171.86 125.841 171.86 126.295 171.86C127.203 172.315 127.884 172.315 128.792 171.86C129.019 171.86 129.246 171.86 129.7 171.86C130.154 171.406 130.835 171.633 131.289 170.951C132.197 170.042 133.559 170.951 134.467 170.042C134.921 170.042 135.602 170.042 136.056 170.042C137.645 169.132 140.823 171.406 141.277 167.768C141.05 167.314 140.823 167.086 140.369 166.859C134.694 165.495 134.467 165.495 134.921 159.812C135.375 155.266 134.013 150.946 134.467 146.627Z" fill="white"/>
<path fill-rule="evenodd" clip-rule="evenodd" d="M175.781 178.225C171.468 175.27 166.928 173.679 161.707 173.679C159.891 173.679 157.848 173.224 156.032 173.224C153.989 175.043 154.216 174.815 155.805 177.316C159.21 182.772 164.204 183.908 170.106 184.136C170.106 183.908 170.333 183.681 170.333 183.681C170.333 182.772 169.652 182.317 169.879 181.18C172.603 180.953 175.327 182.999 177.824 181.18C178.278 180.726 178.278 180.044 178.051 179.362C177.37 178.225 176.916 177.771 175.781 178.225Z" fill="white"/>
<path fill-rule="evenodd" clip-rule="evenodd" d="M224.586 96.8429C225.494 93.2057 227.991 90.2505 229.58 87.068C230.261 85.704 231.169 84.1127 232.077 82.7488C233.893 80.2482 236.39 78.4296 237.071 75.2471C237.752 74.5651 238.206 73.6558 238.66 72.7465C238.887 72.5192 239.114 72.2919 239.568 71.8372C240.93 68.2 244.108 65.2448 245.697 61.6076C246.151 60.471 247.059 60.2436 247.967 60.9256C253.642 64.7901 259.771 63.4262 265.9 63.6535C267.943 63.6535 269.305 62.2896 270.894 61.1529C271.121 61.1529 271.121 61.1529 271.348 60.9256C271.348 60.6983 271.575 60.471 271.802 60.2436C272.937 57.2884 275.888 58.1977 278.385 57.2884C276.569 54.3332 275.661 51.6053 272.483 50.014C269.078 48.4227 269.078 46.8315 269.986 43.1943C271.348 37.9658 275.207 35.0106 279.52 32.51C280.428 32.0553 281.336 32.0553 282.244 32.51C283.379 32.9646 284.741 32.9646 285.876 32.9646C286.557 33.6466 287.692 32.9646 288.373 33.8739C290.416 34.7832 292.459 34.3286 294.275 34.3286C295.864 34.3286 296.091 33.6466 295.637 32.2827C289.735 28.1908 283.833 25.6902 276.569 29.1001C273.618 30.4641 270.894 32.0553 267.489 32.51C265.673 32.7373 264.084 33.8739 263.403 35.6925C263.403 35.9199 263.403 35.9199 263.176 36.1472C258.863 38.8751 255.231 42.0576 253.869 47.0588C250.691 49.5594 247.74 52.7419 243.654 53.8785C242.065 54.3332 240.703 54.1059 239.341 53.4239C237.525 53.1966 236.617 54.3332 235.936 55.6971C235.028 57.2884 233.893 58.6524 232.531 59.789C232.304 60.0163 232.077 60.2436 231.85 60.6983C231.623 60.9256 231.396 61.3803 231.169 61.6076C230.715 62.2896 230.261 62.9715 229.807 63.6535C229.126 64.7901 228.445 66.1541 227.991 67.2907C226.175 75.2471 223.678 82.9761 221.181 90.7052C220.954 91.3871 220.727 92.0691 220.5 92.7511C220.273 93.6604 220.046 94.5697 220.046 95.479C220.046 95.9336 220.273 96.161 220.273 96.3883C220.046 98.2069 219.138 100.025 219.138 102.071C221.181 102.299 221.862 100.935 222.77 99.7982C222.997 99.5708 223.224 99.1162 223.451 98.8889C223.451 98.6615 223.451 98.4342 223.678 98.2069C223.905 97.9796 224.132 97.7522 224.359 97.7522C224.586 97.2976 224.586 96.8429 224.586 96.8429Z" fill="white"/>
<path fill-rule="evenodd" clip-rule="evenodd" d="M49.1149 173.224C50.7039 173.451 51.8389 172.542 53.4279 172.315C54.1089 172.087 54.7899 171.633 53.8819 171.178C52.747 170.269 51.1579 170.951 49.7959 170.496C47.0719 169.814 46.6179 169.36 46.6179 166.632C46.6179 162.313 46.6179 157.766 49.1149 153.902C49.5689 153.22 50.25 152.083 49.342 151.401C48.661 150.719 47.753 151.401 47.072 151.856C44.348 153.22 42.5319 155.72 40.035 157.539C39.127 159.812 37.7649 161.858 35.9489 163.676C35.2679 164.358 33.906 165.268 34.36 165.95C36.403 169.132 33.4519 169.36 31.8629 170.724C34.1329 172.769 36.857 173.679 39.581 174.588C41.397 175.27 43.44 175.27 45.256 174.361C46.618 173.906 47.7529 173.224 49.1149 173.224Z" fill="white"/>
<path fill-rule="evenodd" clip-rule="evenodd" d="M70.6799 125.031C73.1769 122.531 76.3549 122.985 79.5329 122.531C81.1219 122.303 82.7109 122.985 84.2999 121.849C83.6189 120.485 82.4839 120.257 81.5759 120.257C80.2139 120.257 78.8519 119.803 77.4899 119.348C76.3549 118.893 75.9009 118.211 76.5819 117.075C77.9439 114.347 79.3059 111.846 78.6249 108.436C78.3979 107.527 79.7599 106.618 80.6679 105.936C80.6679 105.254 80.4409 104.572 79.5329 105.254C78.8519 105.709 78.1709 106.391 77.4899 106.845C77.0359 107.073 76.8089 107.3 76.5819 107.754C75.4469 108.664 74.3119 109.346 73.1769 110.255C72.4959 110.255 71.8149 110.482 71.5879 111.164C70.4529 112.756 68.6369 113.665 67.9559 115.484C67.5019 117.075 66.1399 117.757 64.3239 117.757C63.1889 117.757 61.5999 117.529 61.1459 119.121C60.6919 120.712 62.9619 120.485 63.4159 121.621C63.4159 121.621 63.4159 121.849 63.6429 122.076C63.6429 123.213 62.2809 123.667 61.8269 124.804C61.1459 126.395 61.3729 127.759 62.5079 128.896C63.6429 130.032 64.7779 129.35 65.9129 128.896C67.9559 127.759 69.0909 125.94 70.6799 125.031Z" fill="white"/>
<path fill-rule="evenodd" clip-rule="evenodd" d="M15.2919 139.125C12.5679 138.443 10.0709 137.534 7.57388 139.58C6.66588 140.262 5.30389 140.262 4.39589 139.807C3.03389 139.125 1.6719 139.807 0.5369 140.035C-1.0521 142.99 1.21788 142.99 3.03388 143.217C4.39588 143.445 5.53087 144.127 6.89287 144.809C8.25487 145.491 9.3899 145.945 10.7519 145.718C14.1569 145.036 17.7889 145.036 21.4209 143.899C20.0589 142.308 18.2429 142.535 16.8809 141.626C16.6539 140.717 16.4269 139.807 15.2919 139.125Z" fill="white"/>
<path fill-rule="evenodd" clip-rule="evenodd" d="M155.124 146.627C156.259 146.627 157.167 147.082 157.621 148.218C160.799 149.809 163.977 150.491 167.609 149.128C168.744 148.673 170.333 149.128 171.695 148.9C173.738 150.037 175.554 150.491 177.37 148.9C177.37 148.446 177.37 147.764 177.37 147.309C175.781 146.627 174.192 145.718 172.376 145.718C170.106 145.718 168.517 145.036 167.836 142.535C167.155 140.035 169.425 140.262 170.56 138.671C167.836 137.761 165.339 138.216 163.069 137.307C161.934 137.307 160.799 137.761 159.664 137.989C158.529 138.443 158.075 139.125 158.529 140.035C159.437 142.308 158.529 142.99 156.486 142.99C155.351 142.99 154.443 143.444 153.308 143.672C152.173 145.036 153.308 145.49 153.989 146.172C154.67 146.627 154.897 146.627 155.124 146.627Z" fill="white"/>
<path fill-rule="evenodd" clip-rule="evenodd" d="M193.26 167.314C194.622 168.905 195.53 171.178 197.119 172.542C198.027 173.224 197.8 173.906 196.892 174.588C195.53 175.497 195.984 176.407 197.119 177.089C200.524 179.589 203.929 181.635 208.469 180.044C210.739 179.362 213.236 179.589 215.506 178.68C215.052 177.771 214.371 177.771 213.69 177.543C212.782 177.316 211.193 177.543 210.966 176.179C210.966 175.043 212.101 174.361 213.009 173.679C215.052 172.315 216.641 170.724 218.23 169.132C217.322 167.996 216.641 168.678 215.96 168.905C215.279 169.36 214.598 169.814 213.917 170.269C209.377 172.542 205.064 174.361 200.978 169.587C199.843 168.223 198.027 167.541 196.665 166.404C195.53 165.268 194.395 165.04 193.033 165.95C192.806 166.404 192.806 166.859 193.26 167.314Z" fill="white"/>
<path fill-rule="evenodd" clip-rule="evenodd" d="M182.364 114.347C180.548 114.347 178.732 113.665 176.916 112.983C181.91 103.89 181.91 103.89 181.683 100.707C181.229 100.707 180.775 100.707 180.548 100.935C177.597 104.572 173.057 106.391 169.879 109.8C168.971 110.71 167.836 111.164 166.474 111.164C164.885 111.164 163.296 111.164 161.48 111.164C160.572 111.846 159.664 112.528 160.572 113.665C162.615 114.12 164.431 114.802 166.02 115.938C167.836 117.075 169.879 117.984 172.149 117.757C172.83 117.075 173.965 117.757 174.646 117.075C175.1 117.075 175.781 117.075 176.235 117.075C177.824 115.711 179.64 116.393 181.229 116.165C182.818 115.938 182.818 115.256 182.364 114.347Z" fill="white"/>
<path fill-rule="evenodd" clip-rule="evenodd" d="M179.186 137.534C177.143 139.125 177.143 139.125 179.186 140.944C179.413 141.171 179.64 141.398 180.094 141.626C183.953 144.126 187.812 144.808 192.125 142.762C194.168 141.853 196.665 141.398 199.389 141.626C198.708 140.035 197.8 140.035 196.892 140.035C195.984 140.035 194.849 140.035 193.941 139.807C193.033 139.58 192.579 138.898 192.579 137.989C192.579 137.307 193.26 136.852 194.168 136.852C195.757 136.852 197.119 136.852 198.708 136.852C199.389 136.852 200.297 137.079 201.205 135.943C200.297 134.351 198.708 134.351 197.119 134.351C193.487 134.351 189.628 134.351 185.996 134.351C185.769 134.124 185.315 134.124 185.088 134.351C184.861 134.579 184.634 134.806 184.18 134.806C183.953 135.033 183.726 135.261 183.499 135.488C183.272 135.943 183.045 136.17 182.591 136.397C182.364 136.625 181.91 136.625 181.683 136.852C180.775 137.307 179.867 136.852 179.186 137.534Z" fill="white"/>
</g>
<defs>
<clipPath id="clip0">
<rect width="454" height="198" fill="white" transform="matrix(-1 0 0 1 454 0)"/>
</clipPath>
</defs>
</svg>
