<svg width="301" height="35" viewBox="0 0 301 35" fill="none" xmlns="http://www.w3.org/2000/svg">
<rect y="14" width="276" height="8" fill="#00A0E3"/>
<rect x="246.5" y="0.5" width="54" height="34" rx="17" fill="white" stroke="#00A0E3"/>
<path d="M265.274 18.176C265.994 17.664 266.442 16.896 266.442 15.856C266.442 13.696 264.778 12.576 262.81 12.576C260.842 12.576 259.162 13.696 259.162 15.856C259.162 16.896 259.626 17.664 260.346 18.176C259.338 18.768 258.794 19.728 258.794 20.88C258.794 22.944 260.314 24.224 262.81 24.224C265.29 24.224 266.826 22.944 266.826 20.88C266.826 19.728 266.266 18.768 265.274 18.176ZM262.81 14.656C263.642 14.656 264.25 15.136 264.25 15.968C264.25 16.784 263.642 17.296 262.81 17.296C261.978 17.296 261.37 16.784 261.37 15.968C261.37 15.136 261.978 14.656 262.81 14.656ZM262.81 22.144C261.754 22.144 260.986 21.6 260.986 20.592C260.986 19.6 261.754 19.056 262.81 19.056C263.866 19.056 264.634 19.6 264.634 20.592C264.634 21.6 263.866 22.144 262.81 22.144ZM271.935 16.88H270.687L270.831 14.864H275.295V12.8H268.783L268.335 19.024H271.823C272.975 19.024 273.615 19.648 273.615 20.544C273.615 21.456 272.975 22.064 271.823 22.064C270.671 22.064 270.015 21.456 270.015 20.544H267.823C267.823 22.944 269.711 24.224 271.823 24.224C273.935 24.224 275.823 22.944 275.823 20.544C275.823 18.144 274.047 16.88 271.935 16.88ZM279.393 17.856C280.945 17.856 282.081 16.688 282.081 15.216C282.081 13.728 280.929 12.576 279.393 12.576C277.841 12.576 276.689 13.76 276.689 15.216C276.689 16.688 277.841 17.856 279.393 17.856ZM277.441 24H279.393L287.265 12.8H285.297L277.441 24ZM279.377 16.24C278.801 16.24 278.385 15.792 278.385 15.216C278.385 14.656 278.801 14.208 279.377 14.208C279.969 14.208 280.385 14.656 280.385 15.216C280.385 15.776 279.969 16.24 279.377 16.24ZM285.329 24.192C286.865 24.192 288.017 23.008 288.017 21.552C288.017 20.096 286.865 18.912 285.329 18.912C283.777 18.912 282.625 20.096 282.625 21.552C282.625 23.008 283.777 24.192 285.329 24.192ZM285.313 22.576C284.737 22.576 284.321 22.128 284.321 21.552C284.321 20.976 284.737 20.528 285.313 20.528C285.905 20.528 286.321 20.976 286.321 21.552C286.321 22.096 285.905 22.576 285.313 22.576Z" fill="#00A0E3"/>
</svg>
