<svg width="21" height="21" viewBox="0 0 21 21" fill="none" xmlns="http://www.w3.org/2000/svg">
<g clip-path="url(#clip0)">
<path d="M20.7594 9.91934C20.7592 9.9191 20.759 9.91881 20.7587 9.91856L16.4724 5.65294C16.1513 5.33339 15.6319 5.33458 15.3122 5.65573C14.9926 5.97684 14.9939 6.49622 15.315 6.81581L18.1928 9.67969H0.820312C0.367254 9.67969 0 10.0469 0 10.5C0 10.9531 0.367254 11.3203 0.820312 11.3203H18.1928L15.315 14.1842C14.9939 14.5038 14.9927 15.0232 15.3123 15.3443C15.6319 15.6655 16.1513 15.6666 16.4724 15.3471L20.7587 11.0814C20.759 11.0812 20.7592 11.0809 20.7594 11.0807C21.0807 10.76 21.0797 10.2389 20.7594 9.91934Z" fill="#CCCCCC"/>
</g>
<defs>
<clipPath id="clip0">
<rect width="21" height="21" fill="white"/>
</clipPath>
</defs>
</svg>
