<svg width="21" height="21" viewBox="0 0 21 21" fill="none" xmlns="http://www.w3.org/2000/svg">
<g clip-path="url(#clip0)">
<path d="M0.240597 9.91934C0.240843 9.91909 0.241049 9.91881 0.241337 9.91856L4.52763 5.65293C4.84874 5.33338 5.36812 5.33457 5.68776 5.65572C6.00735 5.97684 6.00612 6.49622 5.68501 6.81581L2.80719 9.67969H20.1797C20.6327 9.67969 21 10.0469 21 10.5C21 10.9531 20.6327 11.3203 20.1797 11.3203H2.80723L5.68497 14.1842C6.00608 14.5038 6.00731 15.0232 5.68772 15.3443C5.36808 15.6655 4.84866 15.6666 4.52759 15.3471L0.241295 11.0814C0.241049 11.0812 0.240843 11.0809 0.240557 11.0807C-0.080719 10.76 -0.0796928 10.2389 0.240597 9.91934Z" fill="#CCCCCC"/>
</g>
<defs>
<clipPath id="clip0">
<rect width="21" height="21" fill="white" transform="matrix(-1 0 0 1 21 0)"/>
</clipPath>
</defs>
</svg>
