<svg width="122" height="66" viewBox="0 0 122 66" fill="none" xmlns="http://www.w3.org/2000/svg">
<g clip-path="url(#clip0)">
<path d="M121.815 39.0055C120.717 33.0607 114.739 29.421 110.835 29.3603C112.482 16.3787 100.099 9.88787 93.0226 12.557C90.0336 -3.15441 70.4526 -1.94118 63.4376 6.67279C60.8146 3.45772 55.3856 0 48.0046 0C33.7916 0 23.1166 12.0717 23.2386 19.7757C6.58561 15.7721 -8.72538 41.068 5.79261 56.1121C12.8076 63.3915 25.9226 67.0312 35.7436 59.8125C40.2576 66.8493 53.6776 68.4871 58.4966 61.6323C64.5966 68.2445 77.5286 66.9706 80.2126 59.5092C83.8726 62.4816 89.1796 64.2408 94.3646 64.2408C104.369 64.2408 107.968 57.6287 107.602 53.7463C115.532 54.4743 123.279 47.2555 121.815 39.0055ZM104.186 50.5312C103.759 50.4099 103.393 51.0165 103.942 51.3198C104.064 51.7445 107.175 54.2316 103.149 58.7812C101.075 61.1471 98.2686 61.693 95.2796 61.7537C88.2036 61.9357 82.2256 58.7206 77.8946 53.3217C77.5896 52.9577 77.1626 53.443 77.2846 53.7463C77.6506 54.5349 78.1386 55.2629 78.6876 55.9908C78.3216 58.0533 77.9556 59.6912 76.3696 61.2077C74.0516 63.3309 68.7446 64.4228 63.9256 62.2996C60.3266 60.7224 59.5946 58.114 58.4966 56.4154C58.3746 56.2334 58.1306 56.2941 58.0086 56.4761C57.5816 57.75 58.3136 56.6581 57.2766 59.0846C55.8736 60.7831 53.7386 64.3621 46.9676 63.3915C39.8306 62.3603 37.3296 57.4467 36.9636 57.0221C37.4516 56.5368 37.9396 56.0515 38.3666 55.5055C40.3796 58.8419 44.1616 59.9338 47.8826 60.3584C48.1266 60.4191 48.1876 59.9945 47.9436 59.9338C44.1616 59.0846 41.3556 57.6287 39.0376 54.7169C39.2816 54.4136 39.5256 54.0496 39.7696 53.7463C41.6606 56.2941 44.6496 57.1434 47.7606 57.3254C48.0046 57.3254 48.0046 56.9614 47.7606 56.9007C44.6496 56.5368 42.3926 55.0202 40.3186 52.897C40.4406 52.6544 40.5626 52.4724 40.6846 52.2298C42.0266 53.807 44.8326 54.5349 46.6016 54.171C46.8456 54.1103 46.8456 53.7463 46.6016 53.6857C44.5276 53.3823 42.5756 52.897 41.1116 51.3805C42.8196 47.9834 43.4296 44.1618 42.3926 40.4614C40.3796 33.3033 31.1076 31.4835 24.8246 33.4853C16.1016 36.3364 15.2476 47.3768 24.3976 49.5607C32.0836 51.4412 35.6216 43.1912 32.4496 40.0368C30.6806 38.2776 27.2646 38.5809 26.0446 40.704C25.0686 42.4632 25.9226 46.1029 29.0336 44.4651C29.1556 44.4044 29.0946 44.2224 28.9726 44.2831C26.8986 44.7684 25.9226 42.8879 26.8376 41.1893C28.1796 38.6415 35.0726 40.0974 31.5956 45.7996C30.4976 47.6801 28.7286 48.2868 26.5936 48.2868C20.4936 48.2868 16.6506 42.8272 21.1646 37.7923C26.6546 31.7261 40.2576 33 41.1726 42.8879C41.6606 47.8621 39.4036 53.1397 35.8656 56.4761C27.9356 63.9375 15.3086 61.7537 7.86661 54.8382C-2.99138 44.829 3.65761 26.7518 15.2476 22.3235C20.0056 20.5037 25.9836 22.8695 29.5826 25.3566C30.1316 25.7206 29.2776 24.0827 28.7286 23.7187C27.6916 23.1121 27.1426 22.5662 26.1056 22.1415C25.6786 18.7445 25.1296 16.9246 28.7896 12.011C35.8046 2.66912 49.5906 -0.485294 58.4966 5.64154C60.2656 6.85478 61.3026 8.79595 62.9496 10.0092C55.3856 8.85662 52.7016 13.8915 53.6166 13.1636C58.0086 9.58456 64.5966 10.4945 68.3786 13.4669C70.3306 14.9835 71.0626 16.8033 71.8556 19.0478C71.9776 19.3511 72.6486 20.625 72.6486 20.261C72.6486 14.8621 67.9516 10.9798 63.5596 10.1305C68.8056 2.18382 80.5786 0.909926 86.3126 5.64154C89.7286 8.49265 90.4606 13.5882 90.7656 17.7132C90.7656 18.0772 91.6806 16.864 91.7416 15.2868C96.1946 12.8603 101.746 15.1048 105.101 18.4412C108.883 22.2022 108.944 28.511 106.748 33C106.626 33.3033 106.931 33.6673 107.236 33.4853C108.761 32.454 109.92 29.9669 114.922 33.1213C124.011 38.8842 118.765 54.0496 104.186 50.5312Z" fill="#F2F2F2"/>
<path d="M36.783 8.61401C34.465 9.52394 32.391 10.9192 30.866 12.921C27.145 17.8953 28.731 20.5644 29.097 19.7151C29.463 18.8659 29.524 17.8953 29.768 16.9853C30.317 14.9228 32.635 10.9192 36.905 8.85666C36.966 8.796 36.905 8.61401 36.783 8.61401Z" fill="#F2F2F2"/>
<path d="M34.221 12.6783C32.879 13.4062 32.208 14.3161 31.659 15.7114C30.134 19.4117 31.232 20.7463 31.537 20.2003C32.025 19.2297 31.903 17.7739 32.147 16.682C32.452 15.4081 33.184 13.6489 34.343 12.7996C34.343 12.7389 34.282 12.6176 34.221 12.6783Z" fill="#F2F2F2"/>
<path d="M33.794 16.1967C31.781 19.1691 32.757 22.0202 33.123 21.1103C33.367 20.443 33.306 19.7151 33.306 19.0478C33.367 18.1379 33.611 17.1673 33.916 16.2574C33.916 16.136 33.794 16.136 33.794 16.1967Z" fill="#F2F2F2"/>
<path d="M4.697 40.6434C4.697 40.4615 4.453 40.4615 4.453 40.6434C3.721 47.8015 8.723 53.3824 11.895 54.1104C12.139 54.171 12.322 53.8677 12.139 53.6857C10.309 51.5019 5.49 50.8346 4.697 40.6434Z" fill="#F2F2F2"/>
<path d="M6.95401 42.7665C6.95401 42.6452 6.77101 42.6452 6.77101 42.7665C6.10001 47.3162 10.797 51.8051 13.115 52.5331C13.298 52.5937 13.542 52.3511 13.42 52.1691C11.651 49.8033 7.56401 48.8934 6.95401 42.7665Z" fill="#F2F2F2"/>
<path d="M9.76 45.2537C9.699 45.1324 9.577 45.2537 9.577 45.3144C10.309 48.3474 13.054 50.7133 14.396 50.5313C14.518 50.5313 14.579 50.3493 14.518 50.2886C14.03 49.682 11.407 48.9541 9.76 45.2537Z" fill="#F2F2F2"/>
<path d="M98.027 54.5349C95.282 57.022 90.28 57.932 86.376 56.0515C91.012 56.2334 93.574 53.079 92.903 53.3823C90.768 54.2316 87.291 55.9301 84.241 54.6562C84.18 54.5956 84.058 54.4743 83.997 54.4136C85.888 54.7776 88.023 54.2923 89.426 53.1397C89.548 53.0184 89.365 52.897 89.243 52.9577C86.498 54.3529 83.875 53.261 81.435 51.9265C81.13 51.7445 80.703 52.1084 80.886 52.4724C81.069 52.7757 81.313 53.0184 81.557 53.261C80.764 54.7169 90.707 62.6636 98.271 54.8382C98.454 54.6562 98.21 54.4136 98.027 54.5349Z" fill="#F2F2F2"/>
<path d="M113.887 36.4577C116.693 42.7059 112.911 47.9834 107.726 48.1654C111.02 46.5882 113.582 42.7059 112.179 39.3695C112.179 39.3088 112.057 39.3088 112.057 39.3695C111.935 43.7978 109.251 47.7408 105.042 47.6801C107.116 46.8309 108.702 44.5257 108.824 42.3419C108.824 42.1599 108.58 42.1599 108.519 42.2812C106.872 47.1342 104.432 47.1342 101.809 46.8915C101.504 46.8915 101.321 47.3162 101.504 47.4982C101.504 48.0441 102.846 48.5294 103.395 48.7114C107.055 50.3493 111.386 49.2573 113.887 46.1636C116.144 43.4338 116.51 39.1268 114.07 36.3364C114.009 36.2151 113.826 36.3364 113.887 36.4577Z" fill="#F2F2F2"/>
<path d="M102.053 34.0313C101.809 34.3346 102.114 34.8199 102.48 34.5772C107.604 30.7555 105.713 22.0809 100.223 19.6544C100.101 19.5938 99.979 19.7757 100.101 19.8364C104.798 23.1728 105.835 29.603 102.053 34.0313Z" fill="#F2F2F2"/>
<path d="M101.26 24.8107C103.029 28.9357 101.26 31.7868 99.552 35.4871C99.369 35.8511 99.857 36.3364 100.162 35.9724C105.896 29.057 100.711 23.4761 101.26 24.8107Z" fill="#F2F2F2"/>
<path d="M98.942 28.4504C98.82 28.3291 98.637 28.4504 98.698 28.5717C99.308 29.9063 99.43 31.3622 99.186 32.7574C98.942 34.0313 98.088 34.8805 97.661 36.0331C97.6 36.2151 97.844 36.3971 98.027 36.2758C99.613 35.5478 101.077 31.3622 98.942 28.4504Z" fill="#F2F2F2"/>
<path d="M86.986 13.8309C87.413 15.5901 86.559 16.864 86.376 18.5018C86.376 18.7445 86.681 18.9871 86.925 18.8051C88.633 17.5919 89.365 13.1636 85.217 8.91726C82.655 6.30881 77.836 3.82168 74.298 6.0055C74.237 6.06616 74.298 6.18748 74.359 6.12682C79.971 4.79226 85.705 8.8566 86.986 13.8309Z" fill="#F2F2F2"/>
<path d="M84.668 20.3823C84.668 20.7463 85.156 20.8069 85.278 20.5643C87.901 16.4393 84.729 10.5551 80.459 9.22055C80.337 9.15988 80.276 9.34187 80.337 9.46319C86.681 14.1342 84.79 16.7426 84.668 20.3823Z" fill="#F2F2F2"/>
<path d="M83.021 20.7464C83.021 20.8677 83.143 20.989 83.326 20.989C84.729 20.5644 84.668 17.1066 82.716 14.6195C82.594 14.4375 82.35 14.6802 82.472 14.8015C83.204 16.0754 83.692 17.9559 83.387 19.5331C83.265 20.0184 82.96 20.3217 83.021 20.7464Z" fill="#F2F2F2"/>
<path d="M70.089 20.9283C70.211 21.0497 70.394 20.989 70.455 20.8677C71.37 18.1986 66.124 11.4044 61.061 13.285C60.878 13.3456 60.878 13.7096 61.122 13.6489C63.501 13.4063 65.392 14.1949 67.161 15.8328C69.235 17.7739 69.418 20.0184 70.089 20.9283Z" fill="#F2F2F2"/>
<path d="M64.355 16.3787C64.172 16.318 64.111 16.5607 64.294 16.6213C67.649 17.9559 67.588 20.5643 68.808 21.2316C68.93 21.2923 69.113 21.2316 69.113 21.1103C69.296 20.1397 68.198 19.0478 67.588 18.3805C66.734 17.3493 65.575 16.682 64.355 16.3787Z" fill="#F2F2F2"/>
<path d="M67.832 21.8383C67.893 20.443 66.063 19.5938 65.148 18.7445C64.965 18.5625 64.721 18.8052 64.904 18.9872C65.331 19.4724 65.88 19.8971 66.307 20.3217C67.039 21.0497 67.771 22.4449 67.832 21.8383Z" fill="#F2F2F2"/>
<path d="M72.59 61.2683C70.028 60.4797 67.466 61.9356 63.074 58.9632C63.013 58.9025 62.891 59.0239 62.952 59.0845C66.551 63.3915 74.176 61.7536 72.59 61.2683Z" fill="#F2F2F2"/>
<path d="M63.623 57.6893C65.453 58.9632 68.869 60.2978 70.455 59.5092C70.638 59.4485 70.516 59.2059 70.394 59.1452C68.93 58.5992 66.978 59.0845 63.684 57.5073C63.562 57.5073 63.501 57.6286 63.623 57.6893Z" fill="#F2F2F2"/>
<path d="M69.052 57.568C68.747 57.204 68.259 57.2647 67.771 57.204C67.161 57.1434 66.551 57.0827 66.002 56.7794C65.88 56.7187 65.697 56.9007 65.819 57.022C67.588 58.4779 69.601 58.1746 69.052 57.568Z" fill="#F2F2F2"/>
</g>
<defs>
<clipPath id="clip0">
<rect width="122" height="66" fill="white"/>
</clipPath>
</defs>
</svg>
