<svg width="163" height="61" viewBox="0 0 163 61" fill="none" xmlns="http://www.w3.org/2000/svg">
<path d="M8.96085 53.1715C10.5744 53.088 12.078 52.4437 13.3952 51.3234C16.1869 53.6881 19.439 54.0055 22.9888 53.8219C26.0544 53.6633 28.6152 53.1262 30.7517 52.2064C32.5586 54.2982 41.1576 57.9002 48.4726 53.8798C48.9541 61.6247 60.4601 62.0009 63.975 58.0151C66.7083 59.2497 69.8032 59.6562 72.5712 59.9986C75.8233 60.316 80.3746 60.7281 82.9075 58.0882C87.8218 60.8286 96.0897 59.5917 100.966 56.9114C102.647 58.1195 106.263 59.2274 108.587 57.2457C113.63 59.332 124.027 60.1702 133.732 52.3032C137.398 54.3798 143.371 55.6896 148.166 54.5513C151.148 57.4726 157.033 57.0873 159.97 54.4265C164.453 50.3907 161.532 45.5238 158.794 44.2085C158.297 43.9914 157.627 43.5404 156.884 43.2551C156.45 39.5546 154.219 37.08 150.963 36.6819C149.01 36.4591 147.022 37.1285 145.609 36.3922C142.952 35.0728 139.323 29.0285 132.158 31.2605C129.721 26.3686 120.72 21.2496 115.315 21.5291C113.298 21.6334 108.393 22.2108 105.317 25.2836C103.568 24.3219 101.352 23.7081 98.6692 23.4421C98.6622 21.7429 98.2101 19.2573 96.9971 17.7013C94.7409 14.7424 86.7803 9.40776 80.4125 12.9745C78.7725 9.41723 73.573 7.41995 70.0914 7.3572C65.1493 7.20811 61.053 10.9002 59.3506 15.5206C57.068 13.6153 53.5877 12.0147 49.949 12.041C49.5817 9.63193 47.6997 6.08719 45.6591 4.16934C37.2547 -3.48951 23.1713 1.04279 22.8126 12.8779C13.0216 12.8177 5.70546 27.7644 8.49446 33.2046C3.99195 35.299 0.502112 39.769 0.230959 43.9108C-0.147276 49.1102 4.28165 53.4135 8.96085 53.1715ZM2.43979 42.8253C3.33412 39.7845 5.46363 37.1653 8.21215 35.5664C10.9607 33.9674 13.776 33.6599 16.9432 33.9008C17.8348 33.9356 14.911 32.1444 10.6894 33.4149C10.5419 32.1275 9.11201 31.0684 10.5168 26.949C11.6143 29.4012 14.1598 31.6976 16.5328 32.2224C16.6135 32.2182 16.6858 32.0526 16.6052 32.0568C15.0222 31.1674 13.5033 29.951 12.4517 28.3867C11.9259 27.6045 11.6254 26.487 11.0189 25.709C11.1594 25.2971 11.3805 24.8809 11.5252 24.5497C13.5672 29.624 19.1896 33.5418 24.7103 32.366C24.791 32.3618 24.7826 32.2004 24.702 32.2046C21.9339 31.8621 19.3189 31.3499 16.9723 29.7716C14.7064 28.1891 13.2222 26.0807 12.1205 23.5477C12.5628 22.7155 13.0858 21.8791 13.6088 21.0427C14.2431 23.9235 17.6107 28.0389 23.4556 30.0028C23.6211 30.0752 23.6893 29.8289 23.5238 29.7565C18.5538 27.5046 15.7968 24.2479 14.869 21.9487C14.5894 21.2348 14.5519 20.5083 14.3529 19.7902C17.9151 15.1545 21.9544 13.4888 27.9009 15.8521C28.0664 15.9245 28.2152 15.674 28.0497 15.6016C26.8743 14.7721 25.7156 14.2655 24.4888 14.0052C24.5653 13.9203 24.6042 13.1089 24.5959 12.9475C25.0632 12.5996 25.4457 12.1751 25.9979 11.9038C28.4404 10.6444 31.5145 10.6473 33.9682 11.1678C34.0488 11.1637 34.1253 11.0788 34.0405 11.0022C31.2863 9.36409 26.7129 10.0862 24.8392 11.3972C24.9074 11.1508 24.8991 10.9894 24.9672 10.7431C25.8338 10.2936 26.6071 9.60608 27.5627 9.31386C30.901 8.16999 35.7708 8.48469 38.0965 9.65937C38.1772 9.65519 38.2537 9.5703 38.173 9.57448C35.4745 7.44785 28.6601 7.07186 25.4484 9.09946C25.5931 8.76824 25.7336 8.3563 25.8782 8.02508C27.731 6.31056 29.6936 5.1569 32.2669 4.86195C35.5621 4.44873 38.2995 5.76398 41.2025 7.15162C41.2025 7.15162 41.2832 7.14745 41.279 7.06673C37.8891 4.08557 33.1348 2.87462 28.5391 4.731C30.4043 3.25864 32.7064 2.41117 35.1308 2.36672C45.3127 2.16388 47.9794 11.4954 48.1393 13.0249C43.8079 13.7345 42.0846 17.9513 43.0416 20.8155C43.1306 20.9727 43.3727 20.9602 43.3643 20.7988C43.8163 18.5902 43.8566 16.241 45.9723 14.9175C49.5748 12.6269 55.1693 14.4419 58.1433 17.2017C59.8444 18.8134 60.59 20.7173 61.1103 22.9565C61.1186 23.118 61.3607 23.1055 61.3523 22.944C61.6166 21.7973 61.4816 20.7521 61.1047 19.7194C62.643 18.183 65.4584 17.8756 67.4363 18.5826C67.6018 18.655 67.7507 18.4045 67.5851 18.3321C65.5056 17.2256 62.6055 17.4566 60.8251 19.0055C60.736 18.8482 60.6428 18.6102 60.4731 18.4571C61.106 18.1816 61.7904 17.3368 62.4956 16.8957C64.5389 15.7379 67.4265 15.2648 69.5366 15.3985C69.6173 15.3943 69.6131 15.3136 69.5324 15.3177C64.7697 13.9454 61.3244 16.1469 60.4105 17.2463C60.4787 17 60.6275 16.7495 60.6957 16.5032C61.0907 16.3209 61.2409 14.5325 66.1162 13.3901C67.3945 13.0812 68.613 13.1801 69.9121 13.2747C70.5617 13.3221 70.9693 13.3819 71.5215 13.1106C68.7882 11.876 64.0701 12.9294 61.7249 14.5075C63.4302 11.5056 65.9714 9.0271 69.7076 9.31949C73.1975 9.54368 77.7474 11.4936 78.8227 15.0801C77.7391 16.0264 76.9102 17.2024 76.7349 18.5064C76.7433 18.6678 76.9171 18.9016 77.0701 18.7319C79.0119 17.1746 79.8673 14.9451 82.5004 14.2424C84.6536 13.6454 86.9417 14.0936 88.9281 14.9621C93.0704 16.8522 95.8287 18.5711 96.0667 23.1721C96.0875 23.5757 96.0277 23.9834 96.1293 24.3829C94.1847 24.3216 92.1762 24.5873 90.3582 25.4097C88.3065 26.4061 86.9253 27.8535 86.312 30.0704C86.0435 31.1365 85.7153 32.6103 85.7014 33.9059C84.4732 35.1835 82.4605 35.3685 80.6814 35.3796C78.2528 35.3433 76.1051 34.4832 73.7321 33.9584C71.444 33.5102 68.943 33.6396 67.4297 35.6603C66.1417 37.3456 65.7579 39.3079 65.7857 41.4107C64.4059 41.3202 63.0386 41.4719 62.1637 41.7599C60.7365 42.3193 59.5681 43.1891 58.8282 44.5224C58.1605 45.69 57.1187 47.4435 57.109 48.8199C55.1867 47.6243 52.4479 47.8469 50.7482 49.3917C50.7356 49.1495 50.7273 48.9881 50.7148 48.7459C50.7022 48.5037 50.2989 48.5246 50.2265 48.6902C49.2014 50.7666 47.8884 51.9676 45.667 52.8109C44.0021 53.4636 42.2439 53.8782 40.4607 53.8086C38.6775 53.7389 36.8859 53.5079 35.1625 53.0304C33.6853 52.6212 31.9618 52.1438 31.1606 50.7284C31.5556 50.5461 31.9465 50.2831 32.3374 50.0201C37.1627 52.6032 44.4666 51.4971 48.2319 47.6603C48.3084 47.5754 48.2235 47.4988 48.1428 47.503C45.8951 49.3998 42.956 50.4421 39.9668 50.5158C37.623 50.5561 35.4921 50.0188 33.2721 49.3243C33.5057 49.1503 33.7394 48.9763 33.8924 48.8066C38.082 50.0467 42.5707 49.248 45.4735 45.9414C42.3717 48.5299 38.427 48.8958 34.5851 48.1233C34.8146 47.8686 34.9634 47.6181 35.1929 47.3634C37.4296 48.3808 40.5648 46.4381 42.2771 45.1355C40.48 46.3616 37.8511 47.145 35.6436 46.6926C35.8648 46.2765 36.0817 45.7797 36.218 45.287C36.282 44.96 35.951 44.8152 35.7215 45.0699C33.6434 47.1198 32.1343 49.2212 29.3607 50.3359C26.825 51.3573 24.1029 51.9028 21.3557 51.9639C12.9571 52.2364 12.6899 47.0704 8.85775 44.9214C8.11079 44.5554 11.886 48.7306 12.4841 49.3472C11.3073 50.0555 10.2196 50.9211 8.77164 51.077C7.8077 51.2077 6.50436 51.0323 5.41383 50.2794C2.99074 48.786 1.61779 45.7005 2.43979 42.8253ZM57.9408 49.2625C57.9408 49.2625 59.5292 44.0005 62.4516 42.6353C65.5312 41.1811 68.1156 42.6661 68.4425 42.7302C69.3508 43.0879 70.1868 43.6112 70.8698 44.3043C70.9546 44.3808 71.1118 44.2918 71.1034 44.1303C71.0102 43.8923 70.917 43.6543 70.7432 43.4205C71.1298 43.0768 71.3426 42.4992 71.7252 42.0748C72.4178 41.3915 73.1356 41.1925 74.0314 41.308C74.1927 41.2997 74.2609 41.0534 74.0953 40.981C73.2802 40.8613 72.2231 40.7541 71.4414 41.2801C71.0505 41.5431 70.4343 42.1415 70.056 42.6467C69.9712 42.5702 69.8015 42.4171 69.7166 42.3405C70.6735 40.5105 72.5472 39.1995 74.6614 39.4139C74.7421 39.4098 74.7379 39.329 74.6573 39.3332C72.3608 38.7236 69.9906 39.8174 68.9696 41.9745C69.5441 40.5689 70.2715 38.9935 71.5206 38.1195C73.3984 36.8893 75.6225 37.6646 77.7285 37.7176L77.7243 37.6368C72.7877 36.0306 70.7792 36.2964 68.2227 41.6084C67.811 41.4679 67.4034 41.408 66.9959 41.3482C66.9986 38.2725 68.331 34.3187 72.0588 34.4496C74.653 34.5583 77.0594 35.7288 79.5812 36.003C81.5299 36.1451 84.6847 36.1438 86.1424 34.6116C86.2523 35.1724 86.4428 35.7291 86.8713 36.1926C87.3887 36.8133 87.2538 35.7681 88.6864 33.7516C89.2136 32.9959 89.8214 32.236 90.5183 31.6335C92.0608 30.1778 94.0151 28.8627 96.1043 28.5928C96.7456 28.4787 93.7911 27.6602 90.5363 30.4185C89.5293 31.2799 87.8254 32.7439 87.0938 34.2386C87.0729 33.835 87.052 33.4314 87.0312 33.0278C88.0813 31.4357 88.7837 29.376 92.492 27.5656C92.9635 27.2984 90.6628 26.608 87.326 30.9083C89.0604 23.7772 97.5648 23.9849 104.912 26.8423C104.159 27.9334 103.742 29.2499 104.221 30.682C104.314 30.92 104.717 30.8991 104.705 30.657C105.401 25.3602 111.042 23.3688 115.899 23.4414C119.623 23.4916 126.006 26.4798 130.454 32.7245C129.983 32.9917 129.511 33.2589 129.04 33.5261C128.689 31.4399 126.733 29.5986 125.21 28.3015C121.485 25.0949 118.513 25.4914 119.175 25.7809C124.616 27.7657 127.734 31.7322 128.165 33.8142C128.169 33.8949 128.254 33.9714 128.339 34.048C128.028 34.3068 128.181 34.137 127.799 34.5615C127.372 32.5602 123.214 28.8094 120.14 28.8065C120.06 28.8107 119.987 28.9763 120.068 28.9721C121.638 29.6193 123.221 30.5087 124.409 31.5804C126.87 33.8002 126.496 34.3861 127.03 35.3297C126.953 35.4146 126.881 35.5802 126.804 35.6651C125.749 34.0201 123.903 32.7396 121.954 32.5976C121.873 32.6018 121.878 32.6825 121.882 32.7632C123.634 33.8057 125.29 34.5294 126.277 36.4208C125.831 37.1723 125.384 37.9238 124.938 38.6753C124.866 38.8409 125.031 38.9133 125.188 38.8242C125.341 38.6544 126.642 37.2113 127.25 36.4514C134.535 27.1718 143.727 37.5417 144.143 37.763C146.8 39.0824 149.947 37.3819 152.54 39.0284C155.969 41.1981 155.022 46.346 153.312 49.2672C153.168 49.5984 153.584 49.8197 153.813 49.565C155.122 48.2833 155.748 46.3085 155.809 44.3629C156.475 44.7331 157.957 45.223 158.983 46.303C162.754 50.3976 158.216 54.9219 153.346 54.6072C151.72 54.4484 150.476 53.8653 149.216 52.9592C150.248 52.5821 151.187 51.967 152.037 51.1946C152.113 51.1097 152.02 50.8718 151.863 50.9608C147.08 53.8791 140.745 53.3973 136.187 51.2859C134.778 50.6304 133.59 49.5587 132.181 48.9032C131.765 48.6819 131.395 49.3485 132.995 50.5608C130.641 51.9774 128.546 53.7045 126.019 54.8873C127.235 53.3676 128.966 49.3123 128.333 49.5878C128.333 49.5878 127.563 51.8938 123.636 55.739C123.08 55.9296 122.439 56.0437 121.797 56.1578C123.582 54.6896 124.837 52.3586 124.736 50.4213C124.732 50.3406 124.652 50.3448 124.656 50.4255C123.885 52.7315 122.091 55.5761 119.628 56.4319C118.095 56.5112 115.908 56.4624 114.201 56.3079C117.238 55.5843 120.424 53.0724 121.772 50.9793C121.772 50.9793 121.768 50.8986 121.687 50.9027C116.762 55.7708 110.141 57.57 105.352 52.5569C105.097 52.3273 104.791 52.6668 104.965 52.9006C105.593 54.0822 106.526 54.9242 107.608 55.5157C103.946 58.2141 99.6156 52.6917 100.539 54.9101C98.8701 55.482 95.8073 57.2591 90.9667 57.5095C84.5126 57.8433 83.2663 55.6416 80.8223 53.7446C80.3174 53.366 80.5497 54.7299 81.7418 55.8823C79.2131 58.603 74.9038 58.1783 71.4862 57.7885C66.2771 57.1677 63.5772 56.5789 60.1873 53.5977C59.7631 53.215 60.734 54.7835 62.7412 56.0556C62.2738 56.4035 60.9691 57.7659 58.3194 58.1458C56.2301 58.4157 53.7167 58.3029 52.028 56.9334C47.6534 53.6794 51.3407 46.7711 57.9408 49.2625Z" fill="#F2F2F2"/>
</svg>
