<svg width="193" height="72" viewBox="0 0 193 72" fill="none" xmlns="http://www.w3.org/2000/svg">
<path d="M11.0086 63.2237C12.9236 63.1247 14.708 62.36 16.2713 61.0305C19.5845 63.8368 23.444 64.2135 27.6568 63.9956C31.2951 63.8074 34.3342 63.17 36.8698 62.0783C39.0142 64.5609 49.2194 68.8357 57.9008 64.0644C58.4721 73.2559 72.1274 73.7023 76.2988 68.9721C79.5426 70.4372 83.2156 70.9196 86.5007 71.3261C90.3602 71.7028 95.7616 72.1918 98.7676 69.0587C104.6 72.3111 114.412 70.8431 120.2 67.6622C122.194 69.0959 126.486 70.4108 129.244 68.0589C135.228 70.5349 147.568 71.5297 159.085 62.1932C163.437 64.6576 170.525 66.2121 176.216 64.8612C179.755 68.3282 186.739 67.8709 190.224 64.7131C195.544 59.9234 192.078 54.1475 188.829 52.5865C188.24 52.3288 187.444 51.7937 186.562 51.4551C186.047 47.0633 183.399 44.1265 179.535 43.654C177.217 43.3897 174.858 44.184 173.181 43.3103C170.028 41.7444 165.721 34.5711 157.218 37.22C154.326 31.4143 143.643 25.3392 137.228 25.6709C134.835 25.7947 129.014 26.4799 125.363 30.1267C123.287 28.9853 120.658 28.2568 117.473 27.9413C117.465 25.9246 116.929 22.9747 115.489 21.1281C112.811 17.6166 103.364 11.2854 95.8066 15.5184C93.8603 11.2967 87.6896 8.9263 83.5577 8.85184C77.6925 8.6749 72.831 13.0566 70.8106 18.54C68.1016 16.2788 63.9713 14.3793 59.6529 14.4105C59.217 11.5515 56.9834 7.3446 54.5617 5.06853C44.5875 -4.02091 27.8734 1.35797 27.4478 15.4037C15.8279 15.3323 7.1452 33.0708 10.4551 39.5273C5.11162 42.0128 0.969916 47.3178 0.648116 52.2332C0.199231 58.4038 5.45543 63.5109 11.0086 63.2237ZM3.26953 50.945C4.33091 47.3361 6.85819 44.2278 10.1201 42.3301C13.382 40.4325 16.7232 40.0676 20.482 40.3535C21.5402 40.3948 18.0702 38.269 13.0601 39.7768C12.8851 38.249 11.188 36.992 12.8552 32.1031C14.1578 35.0134 17.1787 37.7388 19.995 38.3615C20.0907 38.3566 20.1766 38.16 20.0808 38.165C18.2022 37.1095 16.3995 35.6659 15.1515 33.8094C14.5275 32.8811 14.1709 31.5548 13.4511 30.6315C13.6178 30.1426 13.8803 29.6488 14.052 29.2557C16.4755 35.2778 23.148 39.9274 29.6999 38.532C29.7957 38.527 29.7858 38.3354 29.69 38.3404C26.405 37.934 23.3015 37.3261 20.5166 35.453C17.8274 33.5749 16.066 31.0726 14.7585 28.0665C15.2834 27.0789 15.9041 26.0862 16.5248 25.0936C17.2776 28.5126 21.2742 33.3967 28.2109 35.7274C28.4073 35.8133 28.4882 35.521 28.2918 35.4351C22.3935 32.7625 19.1215 28.8975 18.0204 26.1689C17.6886 25.3216 17.644 24.4594 17.4079 23.6071C21.6354 18.1056 26.4293 16.1287 33.4864 18.9335C33.6829 19.0194 33.8595 18.7221 33.663 18.6362C32.2681 17.6518 30.893 17.0505 29.437 16.7416C29.5278 16.6409 29.574 15.6779 29.5641 15.4863C30.1188 15.0734 30.5727 14.5697 31.2281 14.2477C34.1268 12.753 37.775 12.7564 40.687 13.3743C40.7828 13.3693 40.8736 13.2686 40.7729 13.1777C37.5043 11.2336 32.0765 12.0906 29.8529 13.6464C29.9338 13.3541 29.9239 13.1625 30.0048 12.8701C31.0332 12.3367 31.951 11.5208 33.0851 11.174C37.047 9.81645 42.8264 10.1899 45.5865 11.584C45.6822 11.5791 45.773 11.4783 45.6773 11.4833C42.4747 8.95942 34.3875 8.5132 30.5759 10.9195C30.7476 10.5264 30.9143 10.0376 31.086 9.64447C33.2848 7.6097 35.614 6.24055 38.668 5.8905C42.5786 5.4001 45.8274 6.96103 49.2726 8.60785C49.2726 8.60785 49.3684 8.6029 49.3634 8.50711C45.3404 4.96911 39.698 3.53197 34.2439 5.73509C36.4575 3.98771 39.1895 2.98195 42.0669 2.92919C54.1506 2.68847 57.3153 13.763 57.5052 15.5782C52.3647 16.4203 50.3195 21.4248 51.4553 24.8239C51.561 25.0106 51.8482 24.9957 51.8383 24.8041C52.3747 22.183 52.4225 19.395 54.9334 17.8243C59.2088 15.1058 65.8483 17.2598 69.3777 20.5352C71.3967 22.4479 72.2816 24.7074 72.899 27.3649C72.9089 27.5565 73.1961 27.5417 73.1862 27.3501C73.4999 25.9891 73.3397 24.7487 72.8923 23.5232C74.718 21.6998 78.0592 21.3349 80.4067 22.174C80.6031 22.2599 80.7797 21.9626 80.5833 21.8767C78.1153 20.5636 74.6735 20.8376 72.5605 22.6759C72.4548 22.4892 72.3442 22.2068 72.1428 22.0251C72.8939 21.6981 73.7061 20.6956 74.543 20.172C76.968 18.7979 80.395 18.2365 82.8993 18.3951C82.995 18.3902 82.99 18.2944 82.8943 18.2993C77.242 16.6706 73.1531 19.2834 72.0685 20.5881C72.1494 20.2958 72.326 19.9985 72.4069 19.7062C72.8757 19.4898 73.054 17.3674 78.8399 16.0116C80.357 15.645 81.8031 15.7623 83.3449 15.8747C84.1158 15.9309 84.5995 16.0019 85.2549 15.6799C82.011 14.2147 76.4116 15.4648 73.6284 17.3377C75.6522 13.7752 78.6681 10.8337 83.1021 11.1807C87.244 11.4467 92.6437 13.7609 93.9199 18.0173C92.6339 19.1404 91.6501 20.536 91.4421 22.0836C91.452 22.2752 91.6584 22.5527 91.84 22.3512C94.1444 20.503 95.1596 17.8571 98.2845 17.0231C100.84 16.3146 103.555 16.8466 105.913 17.8773C110.829 20.1204 114.102 22.1603 114.385 27.6207C114.41 28.0997 114.339 28.5837 114.459 29.0577C112.151 28.9849 109.768 29.3003 107.61 30.2764C105.175 31.4589 103.536 33.1766 102.808 35.8076C102.489 37.0728 102.1 38.8219 102.083 40.3596C100.626 41.8758 98.2371 42.0953 96.1258 42.1085C93.2435 42.0654 90.6947 41.0446 87.8785 40.4218C85.1629 39.8899 82.1948 40.0434 80.3988 42.4416C78.8702 44.4417 78.4147 46.7705 78.4477 49.2662C76.8102 49.1588 75.1874 49.3387 74.1491 49.6806C72.4554 50.3445 71.0688 51.3767 70.1906 52.959C69.3983 54.3447 68.1619 56.4258 68.1503 58.0593C65.8689 56.6404 62.6186 56.9046 60.6013 58.7378C60.5865 58.4504 60.5766 58.2589 60.5617 57.9715C60.5468 57.6841 60.0681 57.7088 59.9823 57.9054C58.7657 60.3696 57.2074 61.795 54.5711 62.7958C52.5951 63.5703 50.5086 64.0625 48.3923 63.9798C46.276 63.8971 44.1497 63.6229 42.1044 63.0563C40.3513 62.5706 38.306 62.0041 37.3551 60.3243C37.8239 60.1079 38.2877 59.7958 38.7516 59.4836C44.4782 62.5493 53.1465 61.2365 57.615 56.6831C57.7058 56.5823 57.6051 56.4915 57.5094 56.4964C54.8418 58.7475 51.3537 59.9845 47.8062 60.0719C45.0246 60.1197 42.4956 59.4821 39.8609 58.6578C40.1382 58.4514 40.4156 58.2449 40.5972 58.0434C45.5693 59.5152 50.8964 58.5674 54.3415 54.6432C50.6603 57.7151 45.9787 58.1493 41.4192 57.2325C41.6916 56.9303 41.8682 56.633 42.1406 56.3307C44.7951 57.5382 48.5159 55.2326 50.548 53.6867C48.4152 55.1417 45.2952 56.0715 42.6754 55.5346C42.9379 55.0408 43.1954 54.4512 43.3572 53.8665C43.4331 53.4783 43.0402 53.3066 42.7678 53.6088C40.3016 56.0416 38.5106 58.5356 35.2189 59.8584C32.2096 61.0707 28.979 61.718 25.7187 61.7906C15.7513 62.1139 15.4342 55.983 10.8863 53.4326C9.99981 52.9982 14.4801 57.9534 15.19 58.6851C13.7934 59.5257 12.5026 60.553 10.7841 60.7379C9.6401 60.8931 8.09332 60.685 6.79908 59.7914C3.92339 58.0191 2.29399 54.3573 3.26953 50.945ZM69.1375 58.5845C69.1375 58.5845 71.0226 52.3397 74.4908 50.7195C78.1456 48.9936 81.2128 50.7561 81.6008 50.8321C82.6787 51.2566 83.6709 51.8776 84.4814 52.7002C84.5821 52.791 84.7686 52.6853 84.7587 52.4937C84.6481 52.2113 84.5375 51.9289 84.3312 51.6514C84.7901 51.2434 85.0426 50.558 85.4966 50.0543C86.3187 49.2433 87.1705 49.0072 88.2336 49.1443C88.4251 49.1344 88.5059 48.842 88.3095 48.7562C87.3421 48.6141 86.0875 48.4869 85.1598 49.1111C84.6959 49.4233 83.9647 50.1335 83.5157 50.733C83.415 50.6422 83.2136 50.4605 83.1129 50.3696C84.2486 48.1977 86.4721 46.642 88.9813 46.8964C89.0771 46.8915 89.0721 46.7957 88.9764 46.8006C86.2509 46.0771 83.438 47.3752 82.2264 49.9352C82.9081 48.2671 83.7714 46.3974 85.2538 45.3602C87.4824 43.9002 90.122 44.8203 92.6213 44.8832L92.6163 44.7874C86.7576 42.8811 84.3739 43.1965 81.3399 49.5008C80.8513 49.334 80.3676 49.2629 79.8839 49.1919C79.8871 45.5417 81.4685 40.8494 85.8926 41.0048C88.9713 41.1338 91.8272 42.5229 94.82 42.8484C97.1328 43.0169 100.877 43.0154 102.607 41.197C102.737 41.8626 102.963 42.5233 103.472 43.0733C104.086 43.81 103.926 42.5696 105.626 40.1764C106.252 39.2795 106.973 38.3778 107.8 37.6626C109.631 35.935 111.95 34.3743 114.43 34.054C115.191 33.9185 111.684 32.9472 107.821 36.2207C106.626 37.243 104.604 38.9805 103.736 40.7544C103.711 40.2754 103.686 39.7964 103.662 39.3174C104.908 37.428 105.741 34.9835 110.142 32.8349C110.702 32.5178 107.972 31.6985 104.011 36.802C106.07 28.3389 116.163 28.5854 124.882 31.9765C123.989 33.2714 123.494 34.8339 124.062 36.5334C124.172 36.8159 124.651 36.7911 124.636 36.5037C125.463 30.2175 132.157 27.8542 137.922 27.9403C142.341 27.9999 149.916 31.5463 155.196 38.9575C154.636 39.2746 154.076 39.5917 153.517 39.9088C153.101 37.4329 150.78 35.2477 148.972 33.7083C144.551 29.9027 141.024 30.3733 141.809 30.7169C148.267 33.0724 151.967 37.7798 152.478 40.2507C152.483 40.3465 152.584 40.4373 152.685 40.5281C152.317 40.8353 152.498 40.6338 152.044 41.1376C151.538 38.7625 146.603 34.3111 142.955 34.3076C142.859 34.3126 142.773 34.5091 142.869 34.5042C144.733 35.2723 146.612 36.3278 148.021 37.5996C150.942 40.2341 150.498 40.9294 151.131 42.0493C151.041 42.15 150.955 42.3466 150.864 42.4473C149.611 40.495 147.42 38.9754 145.108 38.8069C145.012 38.8118 145.017 38.9076 145.022 39.0034C147.102 40.2406 149.066 41.0995 150.238 43.3441C149.709 44.236 149.179 45.1279 148.649 46.0198C148.563 46.2163 148.759 46.3022 148.946 46.1965C149.128 45.995 150.671 44.2823 151.392 43.3805C160.039 32.3675 170.948 44.6744 171.441 44.9371C174.594 46.503 178.33 44.4848 181.407 46.4388C185.476 49.0139 184.352 55.1233 182.323 58.5901C182.152 58.9832 182.645 59.2458 182.918 58.9436C184.471 57.4225 185.214 55.0788 185.286 52.7697C186.077 53.2091 187.835 53.7906 189.054 55.0723C193.529 59.9316 188.143 65.301 182.363 64.9275C180.433 64.7392 178.958 64.0471 177.462 62.9718C178.687 62.5242 179.801 61.7942 180.81 60.8776C180.9 60.7768 180.79 60.4944 180.603 60.6001C174.926 64.0634 167.409 63.4917 161.999 60.986C160.327 60.208 158.917 58.9361 157.245 58.1581C156.751 57.8955 156.312 58.6866 158.21 60.1253C155.417 61.8066 152.931 63.8562 149.932 65.26C151.375 63.4565 153.43 58.6436 152.679 58.9706C152.679 58.9706 151.764 61.7074 147.104 66.2708C146.444 66.497 145.683 66.6324 144.922 66.7678C147.04 65.0254 148.529 62.2589 148.41 59.9598C148.405 59.864 148.309 59.869 148.314 59.9648C147.399 62.7015 145.27 66.0774 142.347 67.0931C140.527 67.1872 137.932 67.1293 135.907 66.9459C139.51 66.0872 143.292 63.106 144.892 60.622C144.892 60.622 144.887 60.5262 144.791 60.5312C138.946 66.3085 131.088 68.4438 125.404 62.4943C125.102 62.2218 124.739 62.6248 124.946 62.9023C125.69 64.3045 126.798 65.3038 128.082 66.0058C123.736 69.2083 118.597 62.6543 119.693 65.2871C117.712 65.9658 114.077 68.0749 108.332 68.372C100.673 68.7681 99.1935 66.1551 96.293 63.9038C95.6937 63.4546 95.9695 65.0732 97.3842 66.4408C94.3832 69.6697 89.269 69.1658 85.213 68.7032C79.0308 67.9663 75.8267 67.2676 71.8036 63.7296C71.3001 63.2753 72.4524 65.1368 74.8345 66.6465C74.2799 67.0594 72.7315 68.6763 69.5868 69.1271C67.1073 69.4474 64.1243 69.3136 62.1202 67.6883C56.9285 63.8265 61.3045 55.6278 69.1375 58.5845Z" fill="#F2F2F2"/>
</svg>
