<svg width="195" height="88" viewBox="0 0 195 88" fill="none" xmlns="http://www.w3.org/2000/svg">
<g clip-path="url(#clip0)">
<path d="M178.336 45.6481C175.819 44.68 173.036 44.33 170.369 44.5532C169.126 40.9529 169.238 36.313 163.403 32.5076C158.96 29.6219 153.266 29.1852 148.2 30.5029C145.935 25.2848 140.714 21.836 133.943 21.7291C130.186 21.629 126.094 22.6968 123.915 23.5397C121.478 21.9302 121.557 19.0547 114.017 15.3142C109.76 13.1965 104.855 12.4866 100.113 12.728C94.1303 13.0927 85.4135 16.4644 81.1387 21.2324C77.032 18.6682 67.1542 20.0323 63.459 24.687C61.6492 23.3425 55.7223 21.0148 51.6404 20.5016C44.1261 19.5567 36.9973 22.2903 30.4396 28.7259C30.3353 28.8059 25.4809 33.6871 23.5005 36.6959C20.1833 35.348 13.3426 35.7909 7.71084 40.109C1.88202 44.4954 1.92486 54.6464 10.2741 55.6963C16.3041 56.4546 20.5201 50.6553 35.3437 57.1733C39.357 58.9811 44.1822 61.0771 48.4715 59.9411C48.2877 62.1519 49.182 64.0328 50.9222 65.1824C51.1902 66.7985 52.5708 67.8098 54.2061 68.2947C54.6244 69.4642 55.8431 71.0137 57.884 71.2703C59.6466 71.492 61.4433 70.694 62.95 69.9527C68.1117 72.3703 81.7252 73.5236 89.202 71.0199C93.5305 75.5666 108.535 76.1503 112.833 71.199C115.986 70.1062 120.325 73.0719 127.769 73.8219C132.605 74.3369 137.985 74.2687 140.985 70.6436C142.56 68.6078 142.987 65.9622 142.081 63.4281C149.851 65.336 165.39 66.9176 172.775 65.8916C177.924 67.6561 183.386 67.6913 187.429 64.0112C194.335 57.8056 184.367 47.8957 178.336 45.6481ZM181.667 64.1243C176.601 65.4419 163.924 61.3347 167.526 55.9237C169.379 53.1781 175.27 53.5465 177.938 55.5575C179.237 56.4655 179.239 58.6997 177.5 59.0395C176.735 59.1294 176.004 58.9445 175.401 58.4963C174.438 57.9098 175.006 57.1435 175.829 57.3401C176.281 57.49 176.478 56.677 176.026 56.5271C173.138 55.5124 173.477 58.8127 175.727 59.6542C179.148 60.9221 181.43 57.7651 178.831 55.2043C175.895 52.322 168.369 52.2135 166.297 55.9553C165.624 56.0569 164.941 56.2501 164.257 56.4433C162.993 56.7498 161.624 56.3916 160.303 56.4115C160.21 56.3999 160.187 56.5831 160.28 56.5948C161.37 56.918 162.483 57.058 163.608 57.1064C164.454 57.1197 165.242 56.8465 166.112 56.6766C165.834 57.3864 165.731 58.211 165.824 58.9674C162.891 59.8086 160.015 59.447 157.127 58.4323C156.223 58.1324 159.889 61.1996 165.929 59.6321C166.057 60.1136 166.277 60.6068 166.602 61.02C159.878 62.036 156.491 59.7484 153.012 59.6833C153.012 59.6833 153.012 59.6833 153 59.775C157.245 60.4948 160.169 62.7241 166.997 61.6281C167.995 62.6844 169.399 63.5124 170.825 64.1572C156.054 64.7198 141.858 60.7008 139.702 60.6158C138.367 59.238 134.376 56.5022 131.315 56.1172C132.297 51.3075 128.455 46.6358 123.689 45.5711C119.838 44.7146 112.928 44.9626 110.403 48.5544C107.456 46.5085 101.449 44.8222 96.9278 46.3015C97.171 45.8667 92.0657 41.5015 81.7137 44.3883C76.045 46.0025 71.4925 51.4802 70.9958 53.9309C68.9992 51.0736 55.7884 45.9684 50.7186 57.0589C49.455 57.3654 48.551 57.8102 47.2989 58.0251C42.8702 58.7713 36.9657 55.5157 33.3702 54.1328C19.1735 48.6244 11.5856 57.2574 7.00118 51.7477C4.54072 48.8321 6.49686 44.5172 8.83736 42.3915C12.4173 38.653 18.9675 37.5221 23.6763 39.045C23.7691 39.0566 23.7691 39.0566 23.8619 39.0683C23.8273 39.3432 23.7927 39.6181 23.7467 39.9846C23.7121 40.2595 24.0716 40.3978 24.199 40.1346C25.3905 36.6543 28.6351 34.0838 31.1375 31.4199C34.4045 27.9214 37.8576 25.1909 42.4828 23.6317C50.5508 20.923 61.2677 24.8769 63.4966 28.1357C63.4851 28.2273 63.4735 28.3189 63.462 28.4106C59.7403 28.7803 55.753 30.5128 53.9466 33.6365C53.8193 33.8997 54.1789 34.038 54.3874 33.8781C57.6775 30.1963 62.9982 28.3523 68.2751 29.8535C69.9104 30.3384 71.0127 31.3147 72.312 32.2227C72.5673 32.441 73.0772 32.1328 72.9378 31.743C71.4978 28.9557 67.7173 28.2941 64.7026 28.2873C64.7256 28.1041 64.7141 28.1957 64.7256 28.1041C65.1192 27.2228 65.5127 26.3415 66.0802 25.5751C68.5475 22.4414 76.2917 20.809 80.978 23.2599C80.5614 24.3245 80.5038 24.7826 80.2261 25.4923C80.2146 25.584 80.3886 25.6989 80.4001 25.6073C86.5843 16.1462 102.477 11.1637 114.785 18.2031C119.97 21.1821 120.831 24.0827 123.29 25.5089C123.081 25.6688 122.954 25.9321 122.838 26.1037C121.632 25.952 120.206 26.0519 118.85 26.3467C118.199 24.031 109.937 16.2903 102.865 17.8212C111.236 17.1984 117.563 26.0918 117.98 26.5166C117.389 26.7215 116.798 26.9264 116.288 27.2346C114.766 23.5993 109.79 21.2051 106.543 20.7968C106.45 20.7851 106.427 20.9684 106.52 20.9801C110.486 21.6649 113.747 24.9604 115.581 27.6111C115.164 27.931 114.735 28.3425 114.504 28.6857C112.415 26.5614 111.486 24.9554 107.137 24.3154C107.044 24.3038 107.021 24.487 107.114 24.4987C110.953 25.4468 112.763 27.5361 114.145 29.2921C114.133 29.3837 114.029 29.4637 114.006 29.6469C113.983 29.8302 114.157 29.9452 114.261 29.8652C116.775 27.8544 119.279 26.68 122.561 26.8134C127.895 27.1118 129.01 30.2306 130.345 31.6084C130.843 31.3919 130.237 27.2202 123.905 25.8655C128.947 23.2417 135.462 22.3856 141.042 25.228C143.872 26.7009 145.451 29.1333 146.613 31.8856C144.225 32.8885 143.484 34.2846 143.866 34.2396C145.107 34.1163 146.15 33.3167 147.24 32.8952C152.595 30.7763 158.659 31.2596 163.381 34.925C166.99 37.7057 166.738 41.9557 168.538 45.626C166.115 46.1591 162.939 47.4351 161.213 49.1727C160.993 49.4243 161.411 49.8491 161.631 49.5976C163.566 47.7001 167.542 46.8039 170.209 46.5807C178.22 45.8197 184.115 51.401 186.379 55.8744C188.284 60.2094 185.469 63.1132 181.667 64.1243ZM134.469 71.4997C123.71 73.1253 118.187 67.5906 112.761 68.77C112.946 67.3039 111.403 66.086 111.415 66.739C111.52 68.1485 111.846 69.3064 110.583 70.3576C106.029 74.3459 85.6773 71.3213 91.32 66.1669C92.4903 65.104 94.4148 64.7875 95.8761 65.1574C96.0616 65.1808 96.0962 64.9059 95.9106 64.8825C93.7066 63.6746 88.1538 65.1172 89.2117 68.6941C86.9161 68.9639 84.6672 69.6119 82.2904 69.7785C72.6441 70.7994 64.7691 68.2268 63.2963 67.9485C63.0756 67.4553 60.9079 68.2066 60.421 68.3316C57.1637 69.5043 55.7474 67.2785 56.8952 67.1436C57.4633 67.1219 57.4627 66.3772 56.512 66.4438C55.8626 66.3622 55.4218 66.1206 54.0764 65.5791C50.8404 64.3344 57.0887 62.607 55.7087 62.3404C54.8738 62.2354 53.4131 62.6102 52.66 63.3532C50.989 61.6538 50.4657 59.8195 51.5536 57.1639C52.5025 54.8632 54.5417 52.8857 56.7554 51.7679C59.8733 50.2053 65.3121 51.1684 68.5602 53.0661C69.6158 53.6643 70.1615 54.5706 70.8927 55.5003C67.7403 57.3378 66.758 61.4028 67.5923 60.7631C69.2592 57.2495 72.7124 54.5191 77.3514 55.847C77.537 55.8704 77.6643 55.6072 77.4788 55.5838C77.3048 55.4689 77.038 55.3422 76.8524 55.3189C77.0725 55.0673 77.1999 54.8041 77.4315 54.4609C78.6709 52.8483 81.916 51.0224 81.8117 51.1024C79.9339 51.7971 76.8276 53.268 76.3189 55.0656C75.9593 54.9274 75.5882 54.8807 75.2171 54.834C76.7342 52.5117 78.9935 50.2826 81.7408 49.418C82.6219 49.1565 78.2041 49.0664 74.475 54.7407C74.1967 54.7057 73.9069 54.7623 73.6285 54.7273C75.6089 51.7186 77.0908 48.9264 83.7794 46.6959C83.8837 46.6159 83.8024 46.5126 83.7097 46.5009C78.3533 47.1305 72.8846 52.3999 72.6778 54.794C72.388 54.8506 72.1909 54.9189 71.8896 55.0671C71.8065 52.7297 74.0773 50.4091 75.5835 48.923C80.635 43.9735 90.6287 42.4378 95.606 46.3214C89.9258 48.0272 89.4995 51.4176 90.3108 50.9611C92.2341 49.1552 94.7596 46.3081 102.506 46.9098C107.26 47.3215 112.352 49.5441 113.909 54.394C113.979 54.5889 114.362 54.5439 114.303 54.2574C113.768 51.77 112.398 49.9223 110.6 48.4861C114.03 45.9389 117.671 45.4659 121.845 45.9909C126.948 46.6325 130.186 50.8559 129.749 55.8273C129.657 55.8156 129.471 55.7923 129.378 55.7806C129.435 53.8331 124.953 46.754 119.562 47.6585C119.47 47.6468 119.551 47.7501 119.551 47.7501C123.899 47.6453 127.613 51.8355 128.625 55.779C128.149 55.8123 127.674 55.8456 127.291 55.8905C125.57 49.3447 120.132 49.8709 120.967 49.9759C124.203 50.4759 125.944 53.1149 126.619 55.9921C126.329 56.0488 126.028 56.197 125.819 56.357C125.784 55.8871 124.018 51.9419 121.456 52.8298C121.364 52.8182 121.445 52.9215 121.445 52.9215C124.263 52.9965 125.007 56.0687 125.321 56.5735C125.008 56.8134 124.602 57.0416 124.382 57.2932C124.278 57.3732 124.359 57.4765 124.463 57.3965C125.344 57.135 126.225 56.8734 127.002 56.6919C127.095 56.7035 127.188 56.7152 127.292 56.6352C128.729 56.4437 130.144 56.4354 131.768 57.0119C141.522 60.3793 143.118 70.1672 134.469 71.4997Z" fill="#F2F2F2"/>
<path d="M35.9937 28.7728C30.3729 32.2546 28.6841 37.4408 29.7616 36.3663C31.9166 34.2172 33.4567 31.7115 36.0525 29.8041C37.1997 28.9244 42.8672 25.8209 44.9888 25.4361C45.5684 25.3228 43.1558 24.2748 35.9937 28.7728Z" fill="#F2F2F2"/>
<path d="M42.8223 27.6768C38.8107 28.1032 33.7471 32.3996 33.0546 36.4081C33.0431 36.4997 33.2171 36.6146 33.3214 36.5347C35.7881 32.6563 38.3481 29.5343 42.892 27.8717C42.9963 27.7918 42.9266 27.5968 42.8223 27.6768Z" fill="#F2F2F2"/>
<path d="M36.3919 33.8491C36.056 34.2723 35.6158 34.7754 35.6394 35.3368C35.6279 35.4285 35.8135 35.4518 35.8135 35.4518C37.1001 34.962 38.6967 30.5088 41.3403 30.4689C42.0012 30.459 39.9361 28.8962 36.3919 33.8491Z" fill="#F2F2F2"/>
<path d="M11.9788 41.3904C7.26206 44.4273 6.96366 48.2991 7.6355 47.4528C9.60493 45.2804 11.8151 39.6943 18.3551 40.1444C19.19 40.2494 16.2899 38.5816 11.9788 41.3904Z" fill="#F2F2F2"/>
<path d="M15.7472 41.3987C10.8431 42.1782 9.004 47.811 9.82681 47.2629C11.681 46.0068 10.8092 43.1978 15.8169 41.5936C15.9212 41.5137 15.9443 41.3304 15.7472 41.3987Z" fill="#F2F2F2"/>
<path d="M14.9141 43.5279C12.9089 44.4858 11.473 46.9115 11.6246 47.9544C11.6131 48.046 11.7986 48.0694 11.7986 48.0694C12.7487 47.258 12.5269 45.2755 15.0765 43.7345C15.1808 43.6545 15.1111 43.4596 14.9141 43.5279Z" fill="#F2F2F2"/>
<path d="M63.8059 52.6544C61.5558 51.813 59.0977 51.8762 57.0464 53.2007C52.5383 56.0777 53.0512 59.4931 53.5144 58.8067C54.661 57.1823 55.0424 55.648 56.6183 54.3569C58.5186 52.7342 61.3127 52.2478 63.6786 52.9177C63.8641 52.941 63.8987 52.6661 63.8059 52.6544Z" fill="#F2F2F2"/>
<path d="M61.8589 53.8989C57.1156 52.6509 53.2027 60.536 54.744 59.5198C55.254 59.2116 55.4159 58.6735 55.7633 58.1587C57.292 55.7447 58.9952 54.1904 61.8474 53.9905C61.9287 54.0938 61.9517 53.9106 61.8589 53.8989Z" fill="#F2F2F2"/>
<path d="M60.8979 55.5466C59.6924 56.1396 58.6028 56.5611 57.6297 57.5557C55.5675 59.7164 56.4036 61.3108 56.6582 60.7844C57.2719 59.6515 56.5867 58.3553 61.0719 55.6615C61.1646 55.6732 61.0949 55.4783 60.8979 55.5466Z" fill="#F2F2F2"/>
<path d="M98.9717 50.2817C98.8674 50.3617 98.9372 50.5566 99.1227 50.5799C101.36 50.0235 103.215 49.5121 105.534 49.8038C108.224 50.1421 111.043 51.7066 112.124 54.3556C112.112 54.4472 112.216 54.3673 112.216 54.3673C111.308 49.5991 102.471 47.1847 98.9717 50.2817Z" fill="#F2F2F2"/>
<path d="M101.605 51.8229C101.501 51.9029 101.57 52.0978 101.675 52.0178C107.217 51.4116 107.391 52.2713 110.605 54.4439C110.686 54.5472 110.802 54.3756 110.813 54.2839C108.979 51.6332 104.537 50.237 101.605 51.8229Z" fill="#F2F2F2"/>
<path d="M103.241 53.7971C103.404 54.0037 107.346 53.3824 108.936 54.9785L109.028 54.9902C108.76 53.3741 103.982 52.401 103.241 53.7971Z" fill="#F2F2F2"/>
<path d="M88.9186 20.8145C82.6139 24.4895 82.6865 28.4079 83.3584 27.5616C84.2503 26.4637 87.3058 19.4016 97.4741 18.7256C98.135 18.7156 95.0379 17.1161 88.9186 20.8145Z" fill="#F2F2F2"/>
<path d="M89.6862 23.7033C88.6202 24.6862 85.9553 27.1435 86.4088 28.7829C86.3973 28.8745 86.5829 28.8979 86.6872 28.8179C87.2201 28.3264 87.4166 27.5134 87.7756 26.907C88.7367 25.2594 92.0613 21.3027 95.783 20.933C96.4439 20.923 94.0543 19.6917 89.6862 23.7033Z" fill="#F2F2F2"/>
<path d="M93.8257 23.7586C92.3298 23.6635 91.0783 24.6231 90.1979 25.6294C89.4333 26.464 87.6143 28.1899 87.8355 29.4278C87.824 29.5194 88.0096 29.5427 88.1023 29.5544C88.508 29.3262 88.6468 28.9713 88.89 28.5365C89.8741 26.7056 91.8314 23.8801 93.9882 23.9651C93.9767 24.0568 94.0112 23.7819 93.8257 23.7586Z" fill="#F2F2F2"/>
<path d="M132.207 25.7925C132.114 25.7808 132.091 25.9641 132.195 25.8841C139.708 25.3396 141.613 28.9299 143.667 31.3291C143.911 31.639 144.769 31.5607 144.525 31.2508C141.345 27.3139 138.664 24.6498 132.207 25.7925Z" fill="#F2F2F2"/>
<path d="M134.237 27.6302C134.145 27.6185 134.226 27.7218 134.226 27.7218C138.921 27.1022 140.839 32.8351 142.81 32.8968C143.274 32.9551 138.26 26.3675 134.237 27.6302Z" fill="#F2F2F2"/>
<path d="M135.793 30.2458C135.608 30.2225 135.677 30.4174 135.77 30.4291C137.823 30.5941 139.459 32.5684 140.689 34.0262C140.933 34.3361 141.698 34.2462 141.455 33.9363C140.201 32.6617 137.973 30.1476 135.793 30.2458Z" fill="#F2F2F2"/>
<path d="M163.433 42.0057C163.654 42.4988 164.744 42.8221 164.524 42.3289C161.898 36.2279 158.209 33.3438 151.288 35.1729C151.195 35.1612 151.172 35.3445 151.358 35.3678C159.265 34.6867 161.157 36.8792 163.433 42.0057Z" fill="#F2F2F2"/>
<path d="M155.452 37.2788C155.267 37.2555 155.232 37.5304 155.418 37.5537C157.273 37.787 158.654 38.7983 159.803 40.1528C160.708 41.1975 160.988 42.7219 161.893 43.7665C163.065 44.9378 160.902 37.4056 155.452 37.2788Z" fill="#F2F2F2"/>
<path d="M155.721 39.6396C155.628 39.6279 155.617 39.7195 155.709 39.7312C157.959 40.5726 158.506 42.9684 159.401 44.8493C159.54 45.2392 160.352 45.5274 160.213 45.1376C159.318 43.2566 158.144 39.8512 155.721 39.6396Z" fill="#F2F2F2"/>
<path d="M132.415 69.1006C130.491 69.417 128.565 68.9888 126.583 69.0187C125.829 69.017 131.141 70.9881 135.743 68.8674C138.049 67.7613 139.184 65.4839 137.57 63.3263C137.164 62.8099 140.183 68.0296 132.415 69.1006Z" fill="#F2F2F2"/>
<path d="M134.799 62.8847C134.717 62.7814 134.706 62.8731 134.799 62.8847C136.693 68.0561 126.257 67.1161 127.788 67.6809C130.107 68.7173 138.071 66.0886 134.799 62.8847Z" fill="#F2F2F2"/>
<path d="M133.188 63.706C132.262 66.5682 129.293 65.4502 128.157 66.2382C127.219 66.9579 133.515 67.0981 133.188 63.706Z" fill="#F2F2F2"/>
<path d="M66.8271 31.6262C63.2667 30.7131 55.6614 31.9906 54.656 36.2389C54.633 36.4222 54.807 36.5372 54.9228 36.3656C58.0976 33.6001 59.6845 31.4726 66.8271 31.6262C66.9199 31.6378 66.9084 31.7295 66.8271 31.6262Z" fill="#F2F2F2"/>
<path d="M59.2921 33.8433C58.2838 34.368 55.7456 35.8174 55.9554 37.1469C55.9905 37.6167 56.7782 36.5988 57.1141 36.1756C58.006 35.0778 61.3203 32.7021 64.138 32.7772C64.6946 32.8472 63.14 31.7209 59.2921 33.8433Z" fill="#F2F2F2"/>
<path d="M59.4788 35.3561C56.9528 37.4585 57.0577 38.1233 57.359 37.975C58.6572 37.3936 59.4321 34.9779 62.2607 34.2167C62.7361 34.1833 61.3561 33.9167 59.4788 35.3561Z" fill="#F2F2F2"/>
</g>
<defs>
<clipPath id="clip0">
<rect width="187" height="64" fill="white" transform="translate(8.72302 0.584473) rotate(7.16718)"/>
</clipPath>
</defs>
</svg>
