<svg width="25" height="25" viewBox="0 0 25 25" fill="none" xmlns="http://www.w3.org/2000/svg">
<path fill-rule="evenodd" clip-rule="evenodd" d="M12.5 24.125C18.9203 24.125 24.125 18.9203 24.125 12.5C24.125 6.07969 18.9203 0.875 12.5 0.875C6.07969 0.875 0.875 6.07969 0.875 12.5C0.875 18.9203 6.07969 24.125 12.5 24.125ZM12.5 25C19.4036 25 25 19.4036 25 12.5C25 5.59644 19.4036 0 12.5 0C5.59644 0 0 5.59644 0 12.5C0 19.4036 5.59644 25 12.5 25Z" fill="#00A0E3"/>
<path d="M15.1486 7.90464H16.7386V5.00167H13.849C13.608 4.99164 10.6696 4.93547 9.90797 7.83978C9.89694 7.8702 9.65355 8.56092 9.65355 10.1744L7.01135 10.1824V13.2271L9.65689 13.2194V21.2503H13.6979V13.2265H16.3725V10.1737H13.6979V9.21319C13.6979 8.61609 13.9497 7.90464 15.1486 7.90464ZM15.7039 10.842V12.5575H13.0293V20.5813H10.3255V12.5488L7.68001 12.5565V10.8491L10.3326 10.8414L10.3255 10.5014C10.2908 8.79228 10.5345 8.07347 10.5455 8.03904C11.2028 5.5376 13.7126 5.6633 13.8203 5.66999L16.07 5.67066V7.23631H15.1486C13.5862 7.23631 13.0296 8.25735 13.0296 9.21286V10.842H15.7039Z" fill="#00A0E3"/>
<path fill-rule="evenodd" clip-rule="evenodd" d="M16.8636 8.02964H15.1486C14.5745 8.02964 14.2518 8.19894 14.0692 8.41555C13.8832 8.63626 13.8229 8.9292 13.8229 9.2132V10.0487H16.4975V13.3515H13.8229V21.3753H9.53189V13.3448L6.88635 13.3525V10.0578L9.52903 10.0498C9.54075 8.5586 9.76041 7.88303 9.78841 7.80292C10.182 6.30866 11.1391 5.57097 12.0268 5.21196C12.9046 4.85702 13.7149 4.87122 13.8516 4.87667H16.8636V8.02964ZM13.849 5.00167C13.608 4.99164 10.6696 4.93547 9.90797 7.83978C9.89694 7.8702 9.65354 8.56092 9.65354 10.1744L7.01135 10.1824V13.2271L9.65689 13.2194V21.2503H13.6979V13.2265H16.3725V10.1737H13.6979V9.2132C13.6979 8.61609 13.9497 7.90464 15.1486 7.90464H16.7386V5.00167H13.849ZM7.68001 10.8491V12.5565L10.3255 12.5488V20.5813H13.0293V12.5575H15.7039V10.842H13.0296V9.21286C13.0296 8.25735 13.5862 7.23632 15.1486 7.23632H16.07V5.67066L13.8203 5.66999C13.7126 5.6633 11.2028 5.5376 10.5455 8.03904C10.5453 8.03961 10.5451 8.04036 10.5448 8.04131C10.5265 8.09753 10.2913 8.82056 10.3255 10.5014L10.3326 10.8414L7.68001 10.8491ZM10.4505 10.4988L10.4602 10.966L7.80501 10.9737V12.4311L10.4505 12.4234V20.4563H12.9043V12.4325H15.5789V10.967H12.9046V9.21286C12.9046 8.7125 13.0502 8.18604 13.4099 7.78304C13.7722 7.37724 14.3383 7.11132 15.1486 7.11132H15.945V5.79562L13.8125 5.79499C13.7666 5.79214 13.133 5.75951 12.4342 6.03051C11.7411 6.29931 10.983 6.86594 10.6664 8.0708L10.6647 8.07723C10.6646 8.07759 10.6643 8.07808 10.664 8.07883C10.6497 8.12244 10.4166 8.83201 10.4505 10.4988Z" fill="#00A0E3"/>
</svg>
