<svg width="25" height="25" viewBox="0 0 25 25" fill="none" xmlns="http://www.w3.org/2000/svg">
<path d="M12.5 0C5.59652 0 0 5.59652 0 12.5C0 19.4035 5.59652 25 12.5 25C19.4035 25 25 19.4035 25 12.5C24.9923 5.59977 19.4002 0.00773115 12.5 0ZM12.5 24.1667C6.05672 24.1667 0.833333 18.9433 0.833333 12.5C0.833333 6.05672 6.05672 0.833333 12.5 0.833333C18.9433 0.833333 24.1667 6.05672 24.1667 12.5C24.1593 18.9402 18.9402 24.1593 12.5 24.1667Z" fill="#00A0E3"/>
<path d="M17.9167 5H7.08333C5.93323 5.00142 5.00142 5.93323 5 7.08333V17.9167C5.00142 19.0668 5.93323 19.9986 7.08333 20H17.9167C19.0668 19.9986 19.9986 19.0668 20 17.9167V7.08333C19.9986 5.93323 19.0668 5.00142 17.9167 5ZM19.1667 17.9167C19.1667 18.607 18.607 19.1667 17.9167 19.1667H7.08333C6.39303 19.1667 5.83333 18.607 5.83333 17.9167V7.08333C5.83333 6.39303 6.39303 5.83333 7.08333 5.83333H17.9167C18.607 5.83333 19.1667 6.39303 19.1667 7.08333V17.9167Z" fill="#00A0E3"/>
<path d="M12.5 8.33334C10.1988 8.33334 8.33331 10.1988 8.33331 12.5C8.33331 14.8012 10.1988 16.6667 12.5 16.6667C14.8012 16.6667 16.6666 14.8012 16.6666 12.5C16.6642 10.1998 14.8002 8.33578 12.5 8.33334ZM12.5 15.8333C10.659 15.8333 9.16665 14.341 9.16665 12.5C9.16665 10.659 10.659 9.16667 12.5 9.16667C14.341 9.16667 15.8333 10.659 15.8333 12.5C15.8313 14.34 14.34 15.8313 12.5 15.8333Z" fill="#00A0E3"/>
<path d="M17.0833 6.66666C16.393 6.66666 15.8333 7.22636 15.8333 7.91666C15.8333 8.60697 16.393 9.16666 17.0833 9.16666C17.7736 9.16666 18.3333 8.60697 18.3333 7.91666C18.3333 7.22636 17.7736 6.66666 17.0833 6.66666ZM17.0833 8.33333C16.8532 8.33333 16.6666 8.14677 16.6666 7.91666C16.6666 7.68656 16.8532 7.5 17.0833 7.5C17.3134 7.5 17.5 7.68656 17.5 7.91666C17.5 8.14677 17.3134 8.33333 17.0833 8.33333Z" fill="#00A0E3"/>
</svg>
