<svg width="45" height="60" viewBox="0 0 45 60" fill="none" xmlns="http://www.w3.org/2000/svg">
<g clip-path="url(#clip0)">
<path fill-rule="evenodd" clip-rule="evenodd" d="M14.6647 56.4401C15.0368 56.6089 15.3469 56.7495 15.719 56.9182C15.815 57.0365 16.001 57.1209 16.1193 57.0249C18.8271 53.6918 21.3489 50.2742 22.9346 46.2827C23.6601 44.518 24.5377 42.7476 25.3251 41.0111C25.9438 39.6467 26.2582 38.2938 26.2625 36.8003C26.3397 34.8165 26.2646 32.8384 26.618 30.905C26.848 29.7382 27.3657 28.9262 28.7071 28.9362C29.3777 28.9413 30.1328 28.7602 30.7638 28.523C31.9075 28.1444 33.0346 28.1321 34.1791 28.5763C34.6752 28.8013 35.1995 28.9642 35.6106 28.5525C36.0779 28.0166 35.5139 27.6114 35.2543 27.1946C34.3341 25.4314 33.566 23.6624 31.7278 22.6045C31.1358 22.2613 31.2987 21.737 31.7098 21.3252C32.4078 20.4454 33.4614 20.1007 34.515 19.756C36.7462 19.1228 38.6558 18.0446 40.1081 16.161C41.5439 14.6437 41.8013 12.592 42.4928 10.7372C42.7683 9.96489 42.531 9.33389 41.7248 8.96829C40.6762 8.64235 39.7806 9.13346 38.8792 9.47241C36.4114 10.2974 33.78 10.8239 31.6454 12.3982C31.4089 12.59 31.0144 12.6355 30.8118 12.9174C29.9169 14.2314 28.4746 14.7737 27.0944 15.3442C25.8042 15.8807 24.7399 16.7439 23.8954 17.7817C23.749 17.9396 23.5745 18.1596 23.4281 18.3175C23.3099 18.4134 23.2197 18.4473 23.1635 18.5713C22.9551 18.7011 22.7467 18.831 22.5382 18.9608C20.426 20.3209 18.1667 21.0161 15.5966 20.7479C14.6778 20.6303 13.9004 21.0255 13.0495 21.0883C12.8865 21.6126 13.2644 21.9335 13.6365 22.1022C14.7528 22.6084 15.8187 23.3909 16.9632 23.8351C18.6038 24.5043 19.3379 26.1831 18.6348 27.7335C17.763 29.6561 17.9902 31.6284 17.8229 33.6462C17.7509 34.9594 18.0732 36.2272 17.787 37.518C17.7084 37.8562 17.6579 38.1324 17.4552 38.4144C16.2221 39.6497 15.8911 41.3689 15.4642 42.9699C15.4765 44.097 14.9364 45.1232 14.4244 46.0874C13.9687 46.9275 13.7213 47.6379 14.0322 48.6013C14.2752 49.3845 13.8476 50.1626 13.9384 50.9515C14.0351 51.8926 13.9796 52.8395 13.862 53.7582C13.8686 54.7332 14.1455 55.6065 14.6647 56.4401Z" fill="white"/>
</g>
<defs>
<clipPath id="clip0">
<rect width="23.6979" height="54.4779" fill="white" transform="matrix(-0.910736 -0.412989 -0.412989 0.910736 44.0813 10.0369)"/>
</clipPath>
</defs>
</svg>
