<svg width="318" height="367" viewBox="0 0 318 367" fill="none" xmlns="http://www.w3.org/2000/svg">
<g clip-path="url(#clip0)">
<path fill-rule="evenodd" clip-rule="evenodd" d="M186.268 224.001C184.617 226.119 182.06 225.298 179.955 225.946C176.848 227.824 176.087 227.598 174.777 224.095C174.324 222.626 172.786 222.87 171.686 222.289C170.521 221.499 168.789 221.114 169.453 219.53C169.907 218.011 171.493 218.672 172.739 218.977C174.681 219.298 176.833 219.554 178.856 219.39C182.126 219.532 185.395 219.673 186.124 215.311C186.27 215.037 186.626 214.697 186.837 214.632C190.884 211.316 191.127 209.862 188.587 205.359C187.859 203.745 186.564 202.535 185.545 201.47C184.25 200.26 182.891 198.84 184.122 196.852C184.834 196.173 185.886 195.848 186.776 196.494C186.76 197.188 186.679 197.673 187.439 197.898C192.489 199.33 196.227 203.234 200.839 205.49C202.7 206.296 201.34 207.864 201.242 209.043C202.132 209.688 202.845 209.009 203.751 208.959C204.091 209.314 204.706 209.814 205.321 210.314C203.54 212.012 201.824 213.92 199.703 215.263C198.214 216.412 196.045 216.85 194.103 216.53C193.132 216.369 192.161 216.209 191.513 217.098C189.927 219.426 187.45 221.108 186.268 224.001Z" fill="white"/>
<path fill-rule="evenodd" clip-rule="evenodd" d="M259.073 201.563C259.623 201.853 259.963 202.208 260.513 202.498C264.639 204.674 266.323 204.155 267.748 199.809C271.81 201.774 270.823 202.309 269.672 206.8C272.99 207.846 276.34 207.503 279.707 206.466C280.338 206.271 281.18 206.012 281.876 206.027C282.507 205.832 283.057 206.122 283.462 206.687C283.866 207.252 283.575 207.802 283.073 208.416C280.774 211.423 278.41 214.22 274.17 213.918C273.685 213.838 273.328 214.177 272.632 214.162C270.674 214.536 270.609 214.326 271.419 212.467C271.565 212.193 271.921 211.853 271.516 211.288C270.206 210.773 269.412 211.937 268.765 212.826C267.826 214.264 266.417 214.928 264.75 214.753C263.569 214.657 262.517 214.981 261.465 215.305C260.202 215.695 258.746 215.454 257.71 215.084C257.241 214.309 257.807 213.904 258.163 213.565C260.932 211.333 260.932 211.333 258.909 208.508C258.44 207.734 258.035 207.169 257.566 206.394C256.951 205.894 256.207 204.974 256.774 204.57C258.182 203.906 257.939 202.372 259.073 201.563Z" fill="white"/>
<path fill-rule="evenodd" clip-rule="evenodd" d="M200.188 218.332C202.034 216.844 203.458 215.485 204.268 213.627C204.997 212.253 206.761 211.25 208.849 211.296C210.937 211.342 213.057 209.999 215.258 211.159C216.844 211.819 216.909 212.029 215.694 213.323C211.615 218.028 206.177 218.325 200.188 218.332Z" fill="white"/>
<path fill-rule="evenodd" clip-rule="evenodd" d="M203.132 226.388C202.922 226.453 202.711 226.518 202.501 226.583C201.788 227.262 200.736 227.586 199.765 227.426C197.273 226.815 194.861 228.707 192.077 228.646C192.531 227.127 193.793 226.738 194.716 225.994C196.351 224.571 195.526 224.136 194.004 223.685C194.231 222.926 195.008 222.456 195.704 222.472C198.844 222.193 201.919 221.705 204.736 220.378C206.775 219.519 206.84 219.729 206.856 222.023C206.904 222.927 207.244 223.282 207.859 223.782C208.409 224.072 209.169 224.297 209.282 225.412C207.874 226.076 206.563 225.56 205.172 225.53C204.961 225.594 204.751 225.659 204.54 225.724C203.844 225.709 203.423 225.839 203.132 226.388Z" fill="white"/>
<path fill-rule="evenodd" clip-rule="evenodd" d="M224.054 177.65C223.844 177.715 223.633 177.78 223.423 177.844C223.131 178.394 222.435 178.379 222.144 178.928C221.853 179.478 221.157 179.462 220.865 180.012C220.719 180.286 220.574 180.561 220.218 180.901C220.007 180.966 219.797 181.03 219.586 181.095C219.441 181.37 219.295 181.645 219.149 181.92C218 183.423 216.867 184.232 214.941 183.217C212.092 182.945 209.486 184.208 206.848 183.872C207.577 182.498 209.39 182.399 209.843 180.88C208.192 180.01 207.318 181.659 205.991 181.838C207.788 179.445 213.842 176.66 216.836 176.657C218.503 176.832 219.765 176.443 221.044 175.36C221.255 175.295 221.465 175.23 221.676 175.165C222.226 175.455 222.792 175.051 223.343 175.341C223.618 175.486 223.893 175.631 224.168 175.776C224.443 175.921 224.443 175.921 224.508 176.131C224.572 176.341 224.572 176.341 224.362 176.406C224.556 177.035 224.2 177.375 224.054 177.65Z" fill="white"/>
<path fill-rule="evenodd" clip-rule="evenodd" d="M201.222 227.666C200.591 227.861 200.105 227.781 199.555 227.49C200.397 227.231 201.449 226.907 202.29 226.647" fill="white"/>
<path fill-rule="evenodd" clip-rule="evenodd" d="M163.718 173.261C164.139 173.132 164.77 172.937 165.256 173.017C166.923 173.193 167.392 173.968 166.243 175.471C165.951 176.021 165.045 176.07 165.303 176.91C165.837 177.895 167.65 177.796 168.103 179.265C168.75 181.364 168.458 181.913 166.354 182.562C165.723 182.756 165.302 182.886 164.671 183.081C161.467 180.161 157.777 180.149 153.714 181.171C152.662 181.495 151.4 181.885 150.137 182.274C149.506 182.468 148.81 182.453 148.616 181.823C148.422 181.193 148.988 180.789 149.555 180.385C150.542 179.85 151.869 179.671 152.727 178.717C153.796 177.698 154.233 176.874 153.084 175.39C151.871 173.695 149.67 172.535 149.946 169.692C150.043 168.512 147.47 168.386 147.163 166.642C148.15 166.108 148.894 167.028 149.59 167.043C150.318 168.657 151.921 168.623 153.231 169.139C156.064 170.104 158.912 170.376 160.87 172.99C161.404 173.975 162.731 173.796 163.718 173.261Z" fill="white"/>
<path fill-rule="evenodd" clip-rule="evenodd" d="M142.78 219.706C141.68 219.126 140.693 219.66 139.576 219.774C138.249 219.953 137.067 219.858 135.19 219.747C136.274 218.034 138.281 218.564 138.735 217.046C139.124 215.317 140.257 214.508 141.665 213.844C144.676 213.146 147.702 211.754 150.907 211.685C151.603 211.701 152.445 211.441 152.914 212.216C153.383 212.991 152.606 213.46 152.039 213.864C151.683 214.204 151.117 214.609 150.825 215.158C149.077 218.455 146.325 219.993 142.78 219.706Z" fill="white"/>
<path fill-rule="evenodd" clip-rule="evenodd" d="M116.384 217.039C119.037 219.669 121.27 222.428 124.652 223.684C125.365 223.005 125.09 222.86 124.96 222.44C124.62 222.085 123.795 221.65 124.507 220.971C125.074 220.566 125.689 221.066 126.029 221.421C126.563 222.406 126.951 223.665 128.407 223.906C129.848 224.841 128.811 227.459 131.449 227.795C132.21 228.02 131.692 229.329 131.125 229.734C129.506 230.462 128.357 231.966 126.932 233.324C125.864 234.343 124.731 235.152 123.339 235.121C119.859 235.044 116.298 235.452 112.252 235.78C113.062 233.921 114.729 234.097 115.651 233.353C117.205 232.415 117.999 231.251 117.206 229.427C116.155 226.763 115.816 223.42 114.004 220.53C113.13 219.191 112.888 217.657 112.645 216.123C112.386 215.283 112.888 214.669 113.519 214.474C114.409 215.119 115.073 216.524 116.384 217.039Z" fill="white"/>
<path fill-rule="evenodd" clip-rule="evenodd" d="M52.9932 262.547C54.9843 260.784 54.9843 260.784 52.8481 259.834C50.9224 258.819 48.2033 258.967 46.8605 256.853C47.233 255.819 48.0583 256.254 48.7542 256.269C49.5149 256.494 50.3402 256.929 51.2465 256.88C54.8556 257.376 58.8045 258.228 60.7964 253.477C61.606 251.619 63.5972 249.856 64.8924 248.078C65.7504 247.124 66.511 247.349 66.8992 248.608C67.2226 249.658 67.0606 250.627 66.6234 251.451C65.8301 252.615 65.0367 253.779 64.5349 254.393C65.6026 256.363 67.2212 255.634 67.6741 257.103C65.5209 259.835 63.5617 263.197 59.5801 263.735C58.6901 263.09 57.638 263.414 56.861 263.883C55.4528 264.547 53.8505 264.581 52.1835 264.406C51.6496 263.421 52.4913 263.162 52.9932 262.547Z" fill="white"/>
<path fill-rule="evenodd" clip-rule="evenodd" d="M97.2606 254.42C96.0627 255.019 95.2047 255.973 93.6671 256.217C93.0359 256.412 92.4046 256.606 92.0001 256.042C91.5956 255.477 91.8871 254.927 92.1785 254.378C92.47 253.828 93.247 253.359 92.9882 252.519C92.0335 251.664 91.3212 252.344 90.7546 252.748C88.9903 253.751 87.5657 255.11 85.6072 255.484C84.976 255.678 84.3447 255.873 83.9402 255.308C83.6004 254.953 83.8919 254.403 84.248 254.064C86.9842 250.233 90.5293 247.531 95.0127 246.379C96.6961 245.86 98.1854 244.712 99.9334 244.403C102.701 245.159 102.426 245.014 101.81 247.502C101.259 250.2 99.4621 252.593 97.2606 254.42Z" fill="white"/>
<path fill-rule="evenodd" clip-rule="evenodd" d="M86.488 226.942C83.7852 226.396 81.4543 227.804 78.8646 228.372C78.2333 228.567 77.8772 228.907 77.2459 229.101C76.8251 229.231 76.1938 229.425 75.9998 228.796C75.8057 228.166 75.9514 227.891 76.3076 227.552C77.376 226.533 78.5091 225.724 79.982 225.27C80.8237 225.011 81.9405 224.896 82.313 223.862C82.4594 220.599 82.4594 220.599 78.5269 219.053C82.104 217.951 84.3866 215.638 87.931 215.925C89.1124 216.021 89.8731 216.246 89.3549 217.555C88.9013 219.073 89.9371 219.444 91.2643 219.265C91.9602 219.28 92.8019 219.021 93.4978 219.036C94.1938 219.051 94.9544 219.276 95.2132 220.116C95.4072 220.746 94.8407 221.15 94.2741 221.555C93.4971 222.024 92.7202 222.493 92.4934 223.253C91.1171 225.516 89.0777 226.374 86.488 226.942Z" fill="white"/>
<path fill-rule="evenodd" clip-rule="evenodd" d="M63.2523 202.386C63.7868 200.382 65.81 200.218 66.749 198.78C65.3898 197.36 63.7392 196.49 62.7361 194.73C61.5874 193.246 59.6616 192.23 59.9374 189.387C63.7726 192.112 68.0129 192.415 71.7997 194.235C73.1753 194.961 74.3568 195.056 75.5546 194.457C76.1858 194.263 77.0275 194.003 77.6587 193.809C78.5004 193.549 79.7629 193.16 80.2968 194.145C80.8307 195.129 79.5035 195.309 79.0663 196.133C76.1197 200.029 72.4452 202.311 67.2338 201.848C66.1981 201.478 64.9192 202.561 63.2523 202.386Z" fill="white"/>
<path fill-rule="evenodd" clip-rule="evenodd" d="M55.0581 222.149C58.8456 220.982 62.2933 219.46 66.2102 218.712C67.0356 219.147 66.6631 220.181 67.6988 220.552C68.1033 221.116 68.7346 220.922 69.3658 220.727C70.8387 220.273 72.1013 219.884 73.8166 220.965C72.2299 223.292 70.5786 225.41 68.3123 227.028C67.5354 227.497 66.6937 227.757 65.9977 227.741C62.7284 227.6 59.5238 227.668 56.3029 228.431C55.7043 227.236 56.8211 227.122 57.3877 226.717C58.2293 226.458 59.2814 226.134 60.0584 225.664C60.6896 225.47 61.1268 224.646 61.1432 223.951C61.0948 223.047 60.3342 222.821 59.6383 222.806C58.3921 222.501 57.1296 222.89 56.2069 223.634C55.4299 224.103 54.7176 224.782 53.4068 224.267C53.2937 223.152 54.9607 223.328 55.0581 222.149Z" fill="white"/>
</g>
<defs>
<clipPath id="clip0">
<rect width="233.787" height="318.8" fill="white" transform="translate(0 69.5009) rotate(-17.129)"/>
</clipPath>
</defs>
</svg>
