<svg width="151" height="151" viewBox="0 0 151 151" fill="none" xmlns="http://www.w3.org/2000/svg">
<g clip-path="url(#clip0)">
<path fill-rule="evenodd" clip-rule="evenodd" d="M86.8134 118.848C84.7826 118.666 83.0934 119.685 81.2149 120.179C80.6146 120.67 79.9366 120.183 79.3363 120.673C78.7733 121.013 78.058 120.677 77.4578 121.167C72.6135 123.323 67.162 123.413 62.0894 124.555C56.9796 125.847 52.1725 127.853 47.6681 130.572C46.7297 131.139 45.9807 132.231 44.5874 131.408C44.1341 130.657 44.6211 129.979 45.108 129.301C46.4555 127.079 47.4648 124.933 47.8332 122.15C48.276 119.066 50.3742 116.391 53.1133 114.353C58.742 110.315 61.6723 109.442 57.8839 98.9247C56.5952 95.0932 55.3064 91.2617 53.1536 87.6958C52.8898 87.4709 52.6632 87.0955 52.6243 86.6068C50.0537 81.5005 46.6953 76.9979 43.3368 72.4953C39.9481 70.6998 38.6983 67.3569 37.6361 63.9008C35.0551 54.9595 32.699 45.7544 31.7717 36.583C31.0745 29.0653 31.128 21.0944 34.3791 13.7539C35.1264 12.0224 34.7458 10.3315 35.0044 8.63892C34.8469 6.04508 31.8405 6.57963 30.4082 5.2676C30.1444 5.04273 29.9178 4.66736 29.8417 4.32919C29.8348 1.77254 32.3188 2.70574 33.6325 1.91261C34.0079 1.686 34.3461 1.60988 34.6842 1.53377C35.6988 1.30542 36.6389 1.37806 37.4675 1.90218C37.7685 1.97655 38.1828 2.23861 38.4466 2.46348C41.8388 5.53729 43.5046 9.78134 45.9584 13.4217C51.4377 23.5582 58.5689 32.8255 60.9691 44.4368C62.0045 51.8784 63.2276 59.2067 66.8551 65.8516C67.1189 66.0765 67.3455 66.4519 67.6093 66.6768C67.9864 67.0893 68.3263 67.6523 68.6662 68.2154C72.138 72.9057 74.597 78.4635 78.1059 83.0033C79.9612 87.7732 83.3179 91.6367 85.5486 96.18C86.0779 97.2689 87.0198 97.9807 86.8356 99.3723C87.2127 99.7849 87.7031 100.385 88.1546 100.497C94.5851 100.968 100.498 104.824 107.15 103.754C107.489 103.678 107.79 103.752 108.091 103.826C109.295 104.124 110.874 104.195 111.141 105.698C111.408 107.201 110.245 108.031 109.119 108.711C108.331 109.315 107.09 109.168 106.415 109.959C111.612 112.84 116.722 111.548 120.468 106.725C120.844 106.499 121.219 106.272 121.594 106.045C122.195 105.555 122.873 106.042 123.473 105.552C125.576 104.794 127.873 105.84 130.052 105.421C130.728 105.269 131.594 105.642 131.897 106.356C132.2 107.069 131.863 107.785 131.263 108.275C124.963 114.383 117.454 118.276 108.508 118.94C102.982 119.331 97.5658 118.631 91.9656 119.323C90.8377 119.364 89.671 118.916 88.6175 118.655C88.3166 118.581 88.0156 118.506 87.7146 118.432C87.6774 118.583 87.302 118.809 86.8134 118.848Z" fill="white"/>
</g>
<defs>
<clipPath id="clip0">
<rect width="124.016" height="124.016" fill="white" transform="translate(30.5432 0.192139) rotate(13.8804)"/>
</clipPath>
</defs>
</svg>
