<svg width="25" height="25" viewBox="0 0 25 25" fill="none" xmlns="http://www.w3.org/2000/svg">
<path d="M12.5 0.85C18.9 0.85 24.15 6.1 24.15 12.5C24.15 18.9 18.9 24.15 12.5 24.15C6.1 24.15 0.85 18.9 0.85 12.5C0.85 6.1 6.1 0.85 12.5 0.85ZM12.5 0C5.6 0 0 5.6 0 12.5C0 19.4 5.6 25 12.5 25C19.4 25 25 19.4 25 12.5C25 5.6 19.4 0 12.5 0Z" fill="#00A0E3"/>
<path d="M20.2 16.2C19.8 15.75 19.35 15.3 18.95 14.9C18.8 14.75 18.65 14.6 18.5 14.45C18.25 14.25 18.25 14.15 18.25 14.1C18.25 14.05 18.25 13.95 18.45 13.7C18.7 13.35 18.95 13.05 19.2 12.7C19.4 12.4 19.65 12.1 19.85 11.8L19.9 11.75C20.3 11.15 20.75 10.55 21 9.8C21.05 9.55 21.15 9.2 20.95 8.9C20.75 8.6 20.4 8.5 20.2 8.45C20.1 8.45 20 8.45 19.9 8.45H17.2C16.7 8.45 16.3 8.7 16.1 9.2C15.95 9.55 15.8 9.95 15.6 10.35C15.25 11.1 14.75 11.95 14.1 12.65L14 12.75C14 12.75 14 12.75 13.95 12.8C13.9 12.7 13.9 12.6 13.9 12.55V9.4V9.35C13.85 8.9 13.7 8.35 12.9 8.2C12.85 8.2 12.85 8.2 12.8 8.2H10C9.40001 8.2 9.10001 8.5 8.85001 8.75C8.80001 8.85 8.55001 9.1 8.70001 9.4C8.80001 9.6 8.95001 9.75 9.25001 9.8C9.50001 9.85 9.60001 10 9.65 10.25C9.75001 10.9 9.75001 11.55 9.70001 12.4C9.70001 12.6 9.65001 12.75 9.60001 12.85C9.40001 12.7 9.3 12.5 9.15 12.3C8.55 11.4 8.00001 10.45 7.55001 9.35C7.35001 8.85 6.95001 8.55 6.45001 8.55C5.60001 8.55 4.75001 8.55 4.00001 8.55C3.60001 8.55 3.30001 8.7 3.15001 8.95C3.00001 9.2 3.00001 9.55 3.15001 9.9C4.25001 12.3 5.25001 14.1 6.35001 15.6C7.15001 16.7 7.95001 17.45 8.90001 18C9.9 18.55 11 18.85 12.3 18.85C12.45 18.85 12.6 18.85 12.75 18.85C13.6 18.8 13.95 18.45 14 17.6C14 17.2 14.05 16.9 14.2 16.65C14.25 16.6 14.25 16.55 14.25 16.55C14.25 16.55 14.3 16.55 14.35 16.6C14.5 16.7 14.6 16.8 14.7 16.9C14.8 17 14.9 17.1 14.95 17.2L15 17.25C15.2 17.5 15.45 17.75 15.7 18C16.25 18.6 16.95 18.85 17.65 18.8H20.15H20.2C20.55 18.8 20.8 18.6 21 18.3C21.2 17.95 21.2 17.5 21 17.15C20.7 16.75 20.45 16.45 20.2 16.2ZM20.05 17.85H17.55H17.5C17.05 17.9 16.65 17.75 16.3 17.35C16.1 17.15 15.85 16.9 15.65 16.65C15.55 16.55 15.45 16.4 15.35 16.3C15.2 16.15 15.05 15.95 14.8 15.8C14.45 15.55 14.15 15.55 13.95 15.6C13.75 15.65 13.5 15.8 13.3 16.15C13.05 16.6 13 17.05 13 17.5C13 17.7 12.95 17.75 12.95 17.75C12.95 17.75 12.85 17.8 12.65 17.8C11.35 17.85 10.3 17.65 9.35001 17.1C8.55001 16.65 7.80001 15.95 7.10001 15C6.00001 13.55 5.05001 11.85 3.95001 9.5C4.75001 9.5 5.50001 9.5 6.35001 9.5C6.40001 9.5 6.50001 9.5 6.60001 9.7C7.10001 10.9 7.65001 11.9 8.30001 12.85C8.50001 13.1 8.70001 13.4 9.05001 13.65C9.40001 13.9 9.65001 13.85 9.85001 13.8C10 13.75 10.25 13.6 10.4 13.25C10.5 13.05 10.55 12.8 10.6 12.45C10.7 11.55 10.65 10.8 10.55 10.1C10.5 9.7 10.3 9.35 10.05 9.15H12.7C12.8 9.15 12.85 9.2 12.85 9.2C12.85 9.2 12.9 9.25 12.9 9.45V12.55C12.9 12.95 13.1 13.6 13.65 13.8C14.15 13.95 14.5 13.6 14.7 13.45L14.75 13.4C15.5 12.6 16 11.65 16.4 10.85C16.6 10.45 16.8 10 16.95 9.65C17 9.5 17 9.5 17.15 9.5H19.85C19.9 9.5 19.95 9.5 20 9.5C20.05 9.5 20.05 9.5 20.1 9.5C20.1 9.5 20.1 9.55 20.1 9.6C19.9 10.2 19.55 10.7 19.15 11.25L19.1 11.3C18.9 11.6 18.65 11.9 18.45 12.15C18.2 12.5 17.95 12.8 17.7 13.15C17.15 13.9 17.2 14.45 17.9 15.15C18.05 15.3 18.2 15.45 18.35 15.55L18.4 15.6C18.8 16 19.2 16.4 19.6 16.8C19.8 17 20 17.3 20.15 17.6C20.1 17.7 20.05 17.8 20.05 17.85Z" fill="#00A0E3"/>
</svg>
